<svg width="16" height="21" viewBox="0 0 16 21" fill="none" xmlns="http://www.w3.org/2000/svg">
<path fill-rule="evenodd" clip-rule="evenodd" d="M0.5 2.84004C0.5 1.43563 1.51214 0.0400391 3.05556 0.0400391H9.89445C10.4867 0.0400391 11.0657 0.215353 11.5585 0.543888L14.1641 3.61426C14.9987 4.17065 15.5 5.10735 15.5 6.11041V17.24C15.5 18.6445 14.4879 20.04 12.9444 20.04H3.05556C1.51214 20.04 0.5 18.6445 0.5 17.24V2.84004ZM3.05556 2.04004C2.88075 2.04004 2.5 2.25623 2.5 2.84004V17.24C2.5 17.8239 2.88075 18.04 3.05556 18.04H12.9444C13.1193 18.04 13.5 17.8239 13.5 17.24V6.11041C13.5 5.77605 13.3329 5.46382 13.0547 5.27836L10.4492 2.20799C10.2849 2.09848 10.0919 2.04004 9.89445 2.04004H3.05556Z" fill="#1B254A"/>
</svg>
