<svg width="24" height="25" viewBox="0 0 24 25" fill="none" xmlns="http://www.w3.org/2000/svg">
<path fill-rule="evenodd" clip-rule="evenodd" d="M12 2.5C12.5523 2.5 13 2.94772 13 3.5V15.0858L15.2929 12.7929C15.6834 12.4024 16.3166 12.4024 16.7071 12.7929C17.0976 13.1834 17.0976 13.8166 16.7071 14.2071L12.7071 18.2071C12.3166 18.5976 11.6834 18.5976 11.2929 18.2071L7.29289 14.2071C6.90237 13.8166 6.90237 13.1834 7.29289 12.7929C7.68342 12.4024 8.31658 12.4024 8.70711 12.7929L11 15.0858V3.5C11 2.94772 11.4477 2.5 12 2.5ZM3 16.5C3.55228 16.5 4 16.9477 4 17.5V18.5C4 19.0304 4.21071 19.5391 4.58579 19.9142C4.96086 20.2893 5.46957 20.5 6 20.5H18C18.5304 20.5 19.0391 20.2893 19.4142 19.9142C19.7893 19.5391 20 19.0304 20 18.5V17.5C20 16.9477 20.4477 16.5 21 16.5C21.5523 16.5 22 16.9477 22 17.5V18.5C22 19.5609 21.5786 20.5783 20.8284 21.3284C20.0783 22.0786 19.0609 22.5 18 22.5H6C4.93913 22.5 3.92172 22.0786 3.17157 21.3284C2.42143 20.5783 2 19.5609 2 18.5V17.5C2 16.9477 2.44772 16.5 3 16.5Z" fill="#221AFB"/>
</svg>
