<svg xmlns="http://www.w3.org/2000/svg" width="32" height="32" viewBox="0 0 32 32">
    <g fill="#649ABC" fill-rule="evenodd">
        <path d="M5 6h14l-7-4-7 4zM4 16v6h1a1 1 0 0 1 0 2H1a1 1 0 0 1 0-2h1v-6H1a1 1 0 0 1 0-2h4a1 1 0 0 1 0 2H4zm6 5.81V16H9a1 1 0 0 1 0-2h4c.125 0 .244.023.354.064a8.476 8.476 0 0 0-.34 1.936H12v4.498a6.507 6.507 0 0 0-2 1.312zm-.19.19a6.51 6.51 0 0 0-1.265 1.89A1 1 0 0 1 9 22h.81zm-1.791 4a6.591 6.591 0 0 0 .155 2H1c-.173 0-1 0-1-1s.827-1 1-1h7.019zm8.003-16a8.544 8.544 0 0 0-1.734 2H1.286C.976 12 0 12 0 11s.975-1 1.286-1h14.736zM12.394.105l11.208 6.42A.79.79 0 0 1 23.208 8H.792a.791.791 0 0 1-.394-1.475L11.606.105a.794.794 0 0 1 .788 0zM21.5 21a4.5 4.5 0 1 0 0-9 4.5 4.5 0 0 0 0 9zm0 2a6.5 6.5 0 1 1 0-13 6.5 6.5 0 0 1 0 13zm8.667 4.399V26.5c0-1.336-.989-2.446-2.287-2.662A10.157 10.157 0 0 1 21 26.5c-2.595 0-5.034-.97-6.88-2.662-1.298.216-2.287 1.326-2.287 2.662v.899h18.334zM32 26.958v3.725a.917.917 0 1 1-1.833 0V27.4H11.833v3.284a.917.917 0 1 1-1.833 0V26.5c0-2.485 2.052-4.5 4.583-4.5h.268A8.297 8.297 0 0 0 21 24.7a8.297 8.297 0 0 0 6.15-2.7h.267C29.948 22 32 24.015 32 26.5v.458z"/>
        <path d="M21 27c.634.528 1 1.31 1 2.135V31a1 1 0 0 1-2 0v-1.865A2.78 2.78 0 0 1 21 27z"/>
    </g>
</svg>
