<svg xmlns="http://www.w3.org/2000/svg" width="32" height="32" viewBox="0 0 32 32">
    <path fill="#649ABC" fill-rule="evenodd" d="M17 4H6v25h20V13h-8a1 1 0 0 1-1-1V4zm2 .828V11h6.172L19 4.828zM5 2h13.172a2 2 0 0 1 1.414.586l7.828 7.828A2 2 0 0 1 28 11.828V30a1 1 0 0 1-1 1H5a1 1 0 0 1-1-1V3a1 1 0 0 1 1-1zm4 15h14a1 1 0 0 1 0 2H9a1 1 0 0 1 0-2zm0-4h5a1 1 0 0 1 0 2H9a1 1 0 0 1 0-2zm0-4h5a1 1 0 0 1 0 2H9a1 1 0 0 1 0-2zm0 12h14a1 1 0 0 1 0 2H9a1 1 0 0 1 0-2zm0 4h14a1 1 0 0 1 0 2H9a1 1 0 0 1 0-2z"/>
</svg>
