<svg width="24" height="24" fill="none" xmlns="http://www.w3.org/2000/svg">
    <path fill-rule="evenodd" clip-rule="evenodd" d="M2 3a1 1 0 0 1 2 0v8h3.52l3.7-4.625a1 1 0 0 1 .997-.351l4 .889L20 3.55V3a1 1 0 1 1 2 0v18a1 1 0 0 1-1 1H3a1 1 0 0 1-1-1V3zm2 16.588V20h16v-6.5h-3.12l-4.215 3.747A1 1 0 0 1 12 17.5H7.76L4 19.588zM20 11.5h-3.5a1 1 0 0 0-.664.253L11.62 15.5H7.5a1 1 0 0 0-.485.126L4 17.3V13h4a1 1 0 0 0 .78-.375l3.612-4.514 3.891.865a1 1 0 0 0 .881-.229L20 6.227V11.5z" fill="#8A90A7"/>
</svg>
