<svg xmlns="http://www.w3.org/2000/svg" width="32" height="32" viewBox="0 0 32 32">
    <g fill="none" fill-rule="evenodd">
        <path fill="#669ABC" d="M26 7s0 .271-.141.531c-.13.24-.38.469-.859.469-1 0-1-1-1-1V2H7v5s0 1-1 1-1-1-1-1V1.6C5 .716 5.723 0 6.615 0h17.77C25.277 0 26 .716 26 1.6V7zm-9.978 3a8.544 8.544 0 0 0-1.734 2H3c-.38 0-1 0-1 1v3c0 .403 0 1 1 1h10.014c.04.692.164 1.362.36 2H2c-1.16 0-2-.757-2-2v-5c0-1.243.84-2 2-2h14.022zM8.2 27H6.615A1.608 1.608 0 0 1 5 25.4V22s0-1 1-1 1 1 1 1v3h1.49a7.001 7.001 0 0 0-.29 2zm3.392-6a7.037 7.037 0 0 0-2.097 1.943C9.227 22.852 9 22.615 9 22c0-1 .601-1 1-1h1.592zM17 3h4c.368 0 1 .448 1 1s-.632 1-1 1h-4s-1 0-1-1 1-1 1-1zm-7 3h11c.46 0 .833.448.833 1S21.46 8 21 8H10c-.46 0-.833-.448-.833-1S9.54 6 10 6zm-4.734 8.5l.575.575a.542.542 0 0 1-.766.766l-.575-.575-.575.575a.542.542 0 1 1-.766-.766l.575-.575-.575-.575a.542.542 0 0 1 .766-.766l.575.575.575-.575a.542.542 0 1 1 .766.766l-.575.575zm5 0l.575.575a.542.542 0 1 1-.766.766l-.575-.575-.575.575a.542.542 0 1 1-.766-.766l.575-.575-.575-.575a.542.542 0 0 1 .766-.766l.575.575.575-.575a.542.542 0 1 1 .766.766l-.575.575z"/>
        <path fill="#649ABC" d="M21.5 21a4.5 4.5 0 1 0 0-9 4.5 4.5 0 0 0 0 9zm0 2a6.5 6.5 0 1 1 0-13 6.5 6.5 0 0 1 0 13zm8.667 4.399V26.5c0-1.336-.989-2.446-2.287-2.662A10.157 10.157 0 0 1 21 26.5c-2.595 0-5.034-.97-6.88-2.662-1.298.216-2.287 1.326-2.287 2.662v.899h18.334zM32 26.958v3.725a.917.917 0 1 1-1.833 0V27.4H11.833v3.284a.917.917 0 1 1-1.833 0V26.5c0-2.485 2.052-4.5 4.583-4.5h.268A8.297 8.297 0 0 0 21 24.7a8.297 8.297 0 0 0 6.15-2.7h.267C29.948 22 32 24.015 32 26.5v.458z"/>
    </g>
</svg>
