<svg xmlns="http://www.w3.org/2000/svg" width="32" height="32" viewBox="0 0 32 32">
    <path fill="#669ABC" fill-rule="evenodd" d="M31.893 8.97a.997.997 0 0 1-1.993 0V1.993H7.973V8.97a.997.997 0 0 1-1.993 0V1.993C5.98.893 6.872 0 7.973 0H29.9c1.1 0 1.993.892 1.993 1.993V8.97zm0 17.94v2.99c0 1.1-.892 1.993-1.993 1.993H7.973c-1.1 0-1.993-.892-1.993-1.993v-2.99a.997.997 0 1 1 1.993 0v2.99H29.9v-2.99a.997.997 0 1 1 1.993 0zM6.998 17.94l.764.764a.72.72 0 0 1-1.018 1.018l-.764-.764-.764.764a.72.72 0 1 1-1.018-1.018l.763-.764-.763-.764a.72.72 0 0 1 1.018-1.018l.764.763.764-.763a.72.72 0 1 1 1.018 1.018l-.764.764zm5.98 0l.764.764a.72.72 0 0 1-1.018 1.018l-.764-.764-.764.764a.72.72 0 0 1-1.018-1.018l.763-.764-.763-.764a.72.72 0 1 1 1.018-1.018l.764.763.764-.763a.72.72 0 1 1 1.018 1.018l-.764.764zm5.98 0l.764.764a.72.72 0 0 1-1.018 1.018l-.764-.764-.764.764a.72.72 0 0 1-1.018-1.018l.763-.764-.763-.764a.72.72 0 0 1 1.018-1.018l.764.763.764-.763a.72.72 0 0 1 1.018 1.018l-.764.764zm5.98 0l.764.764a.72.72 0 0 1-1.018 1.018l-.764-.764-.764.764a.72.72 0 0 1-1.018-1.018l.763-.764-.763-.764a.72.72 0 0 1 1.018-1.018l.764.763.764-.763a.72.72 0 1 1 1.018 1.018l-.764.764zM19.933 3.987h6.977a.997.997 0 0 1 0 1.993h-6.977a.997.997 0 1 1 0-1.993zm-8.97 3.986H26.91a.997.997 0 0 1 0 1.994H10.963a.997.997 0 0 1 0-1.994zm0 17.94H26.91a.997.997 0 0 1 0 1.994H10.963a.997.997 0 0 1 0-1.994zM2.99 11.96h23.92a2.99 2.99 0 0 1 2.99 2.99v5.98a2.99 2.99 0 0 1-2.99 2.99H2.99A2.99 2.99 0 0 1 0 20.93v-5.98a2.99 2.99 0 0 1 2.99-2.99zm0 1.993a.997.997 0 0 0-.997.997v5.98c0 .55.447.997.997.997h23.92c.55 0 .997-.447.997-.997v-5.98a.997.997 0 0 0-.997-.997H2.99z"/>
</svg>
