<?xml version="1.0" standalone="no"?>
<!DOCTYPE svg PUBLIC "-//W3C//DTD SVG 1.1//EN" "http://www.w3.org/Graphics/SVG/1.1/DTD/svg11.dtd" >
<svg xmlns="http://www.w3.org/2000/svg">
<metadata>Generated by IcoMoon</metadata>
<defs>
<font id="icomoon" horiz-adv-x="1024">
<font-face units-per-em="1024" ascent="1024" descent="0" />
<missing-glyph horiz-adv-x="1024" />
<glyph unicode="&#x20;" horiz-adv-x="0" d="" />
<glyph unicode="&#xaa01;" glyph-name="empty" horiz-adv-x="500" d="M0 457.143c0-252.473 204.67-457.143 457.143-457.143s457.143 204.67 457.143 457.143c0 252.473-204.67 457.143-457.143 457.143s-457.143-204.67-457.143-457.143z" />
<glyph unicode="&#xaa02;" glyph-name="close" horiz-adv-x="500" d="M863.048 781.59l-269.59-269.59 269.59-269.59-81.459-81.459-269.59 269.59-269.59-269.59-81.459 81.459 269.59 269.59-269.59 269.59 81.459 81.459 269.59-269.59 269.59 269.59z" />
<glyph unicode="&#xaa04;" glyph-name="burguer" horiz-adv-x="500" d="M73.143 219.429h877.714v73.143h-877.714v-73.143zM73.143 475.429h877.714v73.143h-877.714v-73.143zM73.143 731.429h877.714v73.143h-877.714v-73.143z" />
<glyph unicode="&#xaa05;" glyph-name="check" horiz-adv-x="500" d="M152.205 532.065l-79.062-81.923 279.127-289.227 598.588 620.248-79.062 81.923-519.525-538.325z" />
<glyph unicode="&#xaa06;" glyph-name="chevron-left" horiz-adv-x="500" d="M457.523 511.239l329.714 329.714-109.905 109.905-439.618-439.618 439.618-439.618 109.905 109.905z" />
<glyph unicode="&#xaa07;" glyph-name="chevron-right" horiz-adv-x="500" d="M567.428 511.239l-329.714-329.714 109.905-109.905 439.618 439.618-439.618 439.618-109.905-109.905 329.714-329.714z" />
<glyph unicode="&#xaa08;" glyph-name="chevron-down" horiz-adv-x="500" d="M512.761 456.572l-329.714 329.714-109.905-109.905 439.618-439.618 439.618 439.618-109.905 109.905-329.714-329.714z" />
<glyph unicode="&#xaa09;" glyph-name="chevron-up" horiz-adv-x="500" d="M512.761 566.477l329.714-329.714 109.905 109.905-439.618 439.618-439.618-439.618 109.905-109.905z" />
<glyph unicode="&#xaa10;" glyph-name="caret-left" horiz-adv-x="500" d="M219.429 512l585.143 438.857v-877.714z" />
<glyph unicode="&#xaa11;" glyph-name="caret-right" horiz-adv-x="500" d="M804.571 512l-585.143-438.857v877.714z" />
<glyph unicode="&#xaa12;" glyph-name="caret-down" horiz-adv-x="500" d="M73.143 804.571h877.714l-438.857-585.143z" />
<glyph unicode="&#xaa13;" glyph-name="caret-up" horiz-adv-x="500" d="M512 804.571l438.857-585.143h-877.714z" />
<glyph unicode="&#xaa14;" glyph-name="search" horiz-adv-x="500" d="M922.283 151.398l-208.897 217.264c53.711 63.849 83.14 144.185 83.14 227.818 0 195.4-158.977 354.377-354.377 354.377s-354.377-158.977-354.377-354.377c0-195.4 158.977-354.377 354.377-354.377 73.356 0 143.261 22.125 203.027 64.127l210.484-218.912c8.798-9.137 20.631-14.175 33.311-14.175 12.003 0 23.389 4.576 32.033 12.896 18.366 17.673 18.951 46.978 1.279 65.359zM442.148 858.411c144.432 0 261.931-117.499 261.931-261.931s-117.499-261.931-261.931-261.931c-144.432 0-261.931 117.499-261.931 261.931s117.499 261.931 261.931 261.931z" />
<glyph unicode="&#xaa15;" glyph-name="logout" horiz-adv-x="500" d="M560.762 950.857h-97.524v-487.619h97.524v487.619zM796.282 845.044l-69.242-69.242c77.044-61.928 126.293-157.013 126.293-263.802 0-188.709-152.625-341.333-341.333-341.333s-341.333 152.625-341.333 341.333c0 106.789 49.25 201.874 125.806 264.29l-68.754 68.754c-94.598-80.457-154.575-199.436-154.575-333.044 0-242.347 196.51-438.857 438.857-438.857s438.857 196.51 438.857 438.857c0 133.608-59.977 252.587-154.575 333.044v0z" />
<glyph unicode="&#xaa16;" glyph-name="message" horiz-adv-x="500" d="M863.086 853.943h-702.171c-48.274 0-87.333-38.4-87.333-85.333l-0.439-512c0-46.933 39.497-85.333 87.771-85.333h702.171c48.274 0 87.771 38.4 87.771 85.333v512c0 46.933-39.497 85.333-87.771 85.333v0zM863.086 256.61h-702.171v426.667l351.086-213.333 351.086 213.333v-426.667zM512 555.276l-351.086 213.333h702.171l-351.086-213.333z" />
<glyph unicode="&#xaa17;" glyph-name="notification" horiz-adv-x="500" d="M465.997 73.143c50.815 0 92.391 41.576 92.391 92.391h-184.782c0-50.815 41.576-92.391 92.391-92.391v0zM794.8 342.167v239.137c0 133.482-92.608 245.224-217.391 274.79v29.544c0 36.11-29.13 65.219-65.217 65.219s-65.217-29.109-65.217-65.219v-29.544c-124.782-29.566-217.391-141.308-217.391-274.79v-239.137l-86.956-86.959v-43.479h739.128v43.479l-86.956 86.959z" />
<glyph unicode="&#xaa18;" glyph-name="options" horiz-adv-x="500" d="M160.914 424.444c-48.475 0-87.771 39.199-87.771 87.556s39.296 87.556 87.771 87.556 87.771-39.199 87.771-87.556-39.296-87.556-87.771-87.556zM512 424.444c-48.475 0-87.771 39.199-87.771 87.556s39.296 87.556 87.771 87.556 87.771-39.199 87.771-87.556-39.296-87.556-87.771-87.556zM863.086 424.444c-48.475 0-87.771 39.199-87.771 87.556s39.296 87.556 87.771 87.556 87.771-39.199 87.771-87.556-39.296-87.556-87.771-87.556z" />
<glyph unicode="&#xaa19;" glyph-name="plus" horiz-adv-x="500" d="M950.857 454.4h-381.257v-381.257h-115.2v381.257h-381.257v115.2h381.257v381.257h115.2v-381.257h381.257z" />
<glyph unicode="&#xaa20;" glyph-name="edit" horiz-adv-x="500" d="M80.457 255.975v-182.832h179.914l530.627 539.232-179.914 182.832-530.627-539.232zM930.132 753.765c18.711 19.015 18.711 49.73 0 68.745l-112.266 114.087c-18.711 19.015-48.937 19.015-67.648 0l-87.798-89.222 179.914-182.832 87.798 89.222z" />
<glyph unicode="&#xaa21;" glyph-name="drag" horiz-adv-x="500" d="M73.143 877.714h146.286v-731.429h-146.286v731.429zM438.857 877.714h146.286v-731.429h-146.286v731.429zM804.571 877.714h146.286v-731.429h-146.286v731.429z" />
<glyph unicode="&#xaa22;" glyph-name="hexagon" horiz-adv-x="500" d="M512.914 950.857l370.286-219.429v-438.857l-370.286-219.429-370.286 219.429v438.857z" />
<glyph unicode="&#xaa23;" glyph-name="hexagon-empty" horiz-adv-x="500" d="M160.914 721.009v-418.019l352-208.593 352 208.593v418.019l-352 208.593-352-208.593zM901.486 741.848v-459.696l-388.571-230.265-388.571 230.265v459.696l388.571 230.265 388.571-230.265z" />
<glyph unicode="&#xaa24;" glyph-name="print" horiz-adv-x="500" d="M819.2 687.543h-614.4c-72.85 0-131.657-58.807-131.657-131.657v-263.314h175.543v-175.543h526.629v175.543h175.543v263.314c0 72.85-58.807 131.657-131.657 131.657v0zM336.457 424.229h351.086v-219.429h-351.086v219.429zM819.2 512c-24.137 0-43.886 19.749-43.886 43.886s19.749 43.886 43.886 43.886c24.137 0 43.886-19.749 43.886-43.886s-19.749-43.886-43.886-43.886v0zM248.686 731.429h526.629v175.543h-526.629v-175.543z" />
<glyph unicode="&#xaa25;" glyph-name="excel" horiz-adv-x="500" d="M577.718 950.857v-877.714l-493.604 93.032v695.377l493.604 89.305zM598.931 848.605h340.374v-675.171h-340.374v675.171zM598.931 801.323v-90.627h123.386v90.627h-123.386zM747.844 801.323v-90.627h140.404v90.627h-140.404zM747.844 683.508v-90.627h140.404v90.627h-140.404zM598.931 683.508v-90.627h123.386v90.627h-123.386zM598.931 565.693v-90.627h123.386v90.627h-123.386zM598.931 447.878v-90.627h123.386v90.627h-123.386zM598.931 330.063v-90.627h123.386v90.627h-123.386zM747.844 565.693v-90.627h140.404v90.627h-140.404zM747.844 447.878v-90.627h140.404v90.627h-140.404zM747.844 330.063v-90.627h140.404v90.627h-140.404zM221.163 420.52h38.497l72.653 107.375h3.019l71.332-107.375h40.761l-92.278 135.493 94.354 136.814h-38.685l-72.841-108.319h-3.019l-71.709 108.319h-40.95l92.090-135.304-9.435-13.87c-6.29-9.247-14.059-20.663-23.305-34.251l-27.74-40.761c-9.247-13.587-17.015-25.004-23.305-34.251l-9.435-13.87z" />
<glyph unicode="&#xaa26;" glyph-name="pdf" horiz-adv-x="500" d="M725.339 360.791c26.044-2.122 52.619-6.4 76.649-12.148 23.495-5.747 39.876-11.94 53.22-20.344 13.865-8.689 24.343-19.694 28.864-29.836 3.931-8.703 4.112-17.978 1.636-23.21-1.759-3.74-6.441-7.233-14.83-9.89-10.251-3.304-20.327-3.478-32.58 0.166-15.126 4.498-35.022 15.305-57.954 31.587-24.038 16.947-47.525 36.834-76.019 64.983 7.052-0.284 14.057-0.72 21.015-1.306zM179.701 182.916c-17.034-14.425-30.264-22.316-41.753-26.314 2.638 10.795 8.966 21.3 23.569 35.576 18.562 18.082 45.863 37.542 79.549 55.694-22.327-27.562-43.027-49.348-61.365-64.957zM431.221 578.529c-32.499-85.497-82.216-177.249-136.914-258.214-18.466-27.349-36.32-51.554-53.24-72.442 6.388 3.442 13.005 6.837 19.835 10.167 44.077 21.378 104.164 43.447 161.483 60.17 44.19 12.961 80.391 21.123 126.108 29.379 39.207 7.109 67.127 11.125 93.533 13.186 21.174 1.705 41.932 2.144 62.297 1.322-1.054 1.041-2.115 2.093-3.182 3.157-35.184 35.055-74.772 79.174-106.38 119.184-32.813 41.612-60.306 82.755-78.947 117.761-15.983 30.175-25.967 56.148-35.209 89.035-2.688 9.537-5.084 18.785-7.173 27.703-10.625-46.119-24.998-95.133-42.211-140.409zM464.368 771.45c-2.080 21.789-1.522 42.763 1.102 61.833 2.079 15.509 4.889 25.037 7.737 29.282 1.261 1.876 3.463 3.399 6.379 4.469 1.61 0.609 1.796 0.646 4.573 0.953 1.233 0.137 1.233 0.137 2.913 0.355 0.827 0.13 1.329 0.208 1.7 0.268 0.872-0.43 2.019-1.027 3.401-1.791 1.219-0.678 1.219-0.678 2.524-1.42 0.478-0.274 0.861-0.494 1.188-0.682-0.151-2.626-0.437-5.996-0.88-10.306-0.426-4.147-2.857-25.552-3.567-32.2-3.193-30.123-9.358-65.739-18.005-103.273-4.487 19.155-7.559 36.79-9.065 52.512zM656.303 320.253c32.39-32.271 59.444-55.325 87.349-74.998 28.036-19.906 53.626-33.806 76.539-40.619 24.668-7.335 47.844-6.935 70.023 0.214 23.778 7.532 42.802 21.723 52.948 43.299 10.712 22.636 10.154 51.339-1.133 76.322-10.060 22.569-29.234 42.707-53.027 57.618-19.928 12.551-42.345 21.025-72.079 28.298-27.318 6.535-57.107 11.331-86.338 13.712-30.477 2.568-61.718 2.568-93.58 0.002-20.856-1.628-42.251-4.326-68.050-8.515 27.927-33.241 58.926-67.016 87.349-95.335zM404.549 379.181c-60.44-17.634-123.747-40.885-171.426-64.011-48.729-23.753-88.756-51.013-115.974-77.527-23.564-23.037-36.134-44.518-41.365-67.891-4.653-20.043-3.237-40.002 4.876-55.106 11.516-21.44 31.969-27.781 57.657-23.352 25.44 4.349 51.627 17.050 82.501 43.195 37.161 31.632 80.315 82.411 126.134 150.27 20.558 30.43 40.438 62.305 59.069 94.852-0.489-0.143-0.979-0.286-1.471-0.43zM544.895 445.081c7.645-9.677 15.715-19.561 24.059-29.493-9.873-1.603-20.392-3.424-31.772-5.488-47.252-8.533-85.268-17.082-131.162-30.489 29.083 50.807 55.121 103.252 75.94 154.394 17.686-28.402 39.036-58.616 62.936-88.924zM490.602 555.955c33.217 87.372 56.33 187.126 64.006 259.535 9.359 87.665 9.54 88.1-24.929 103.078-1.024 0.587-1.553 0.89-3.514 2.014-1.586 0.901-1.586 0.901-3.277 1.843-6.714 3.709-12.024 6.198-17.851 7.887-9.381 2.849-16.552 2.744-25.788 1.117-0.951-0.167-0.951-0.167-1.208-0.208-0.026 0.001-0.026 0.001-0.866-0.094-7.656-0.847-12.458-1.79-19.812-4.583-14.182-5.204-27.278-14.261-36.893-28.562-9.426-14.050-14.705-31.952-17.949-56.15-3.264-23.715-3.952-49.608-1.392-76.43 2.61-27.257 8.917-57.993 18.325-91.378 10.392-36.976 21.975-67.11 40.255-101.623 6.543-12.288 13.998-25.145 22.25-38.397 2.991 7.346 5.873 14.666 8.642 21.95z" />
<glyph unicode="&#xaa27;" glyph-name="arrow-left" horiz-adv-x="500" d="M438.736 748.851l-64.468 63.035-301.125-300.272 301.125-300.272 64.466 63.035-192.991 192.446h705.114v89.585h-705.114l192.993 192.443z" />
<glyph unicode="&#xaa28;" glyph-name="arrow-right" horiz-adv-x="500" d="M778.257 556.407h-705.114v-89.585h705.114l-192.993-192.444 64.467-63.034 301.126 300.271-301.126 300.271-64.467-63.034 192.993-192.444z" />
<glyph unicode="&#xaa30;" glyph-name="plus-bold" horiz-adv-x="500" d="M598.857 598.857v352h-173.714v-352h-352v-173.714h352v-352h173.714v352h352v173.714z" />
<glyph unicode="&#xba01;" glyph-name="accounts" horiz-adv-x="500" d="M165.527 282.123h138.599v292.564h-138.599v-292.564zM442.701 282.123h138.576v292.564h-138.576v-292.564zM73.143 73.143h877.714v125.397h-877.714v-125.397zM719.875 282.123h138.576v292.564h-138.576v-292.564zM511.988 950.857l-438.846-208.981v-83.605h877.714v83.605l-438.869 208.981z" />
<glyph unicode="&#xba02;" glyph-name="calendar1" horiz-adv-x="500" d="M816.017 863.086h-43.344v87.771h-86.688v-87.771h-346.751v87.771h-86.688v-87.771h-43.344c-48.112 0-86.254-39.497-86.254-87.771l-0.433-614.4c0-48.274 38.576-87.771 86.688-87.771h606.815c47.678 0 86.688 39.497 86.688 87.771v614.4c0 48.274-39.010 87.771-86.688 87.771v0zM209.202 643.657h606.815v-482.743h-606.815v482.743zM295.89 555.886h216.72v-219.429h-216.72v219.429z" />
<glyph unicode="&#xba03;" glyph-name="company-admin" horiz-adv-x="500" d="M845.489 468.992c1.805 14.043 3.158 28.087 3.158 43.008s-1.354 28.965-3.158 43.008l95.197 72.411c8.572 6.583 10.828 18.432 5.414 28.087l-90.234 151.845c-5.414 9.655-17.596 13.166-27.521 9.655l-112.341-43.886c-23.461 17.554-48.726 32.037-76.247 43.008l-17.144 116.297c-1.354 10.533-10.828 18.432-22.107 18.432h-180.467c-11.279 0-20.754-7.899-22.107-18.432l-17.144-116.297c-27.521-10.971-52.787-25.893-76.247-43.008l-112.341 43.886c-10.377 3.95-22.107 0-27.521-9.655l-90.234-151.845c-5.865-9.655-3.158-21.504 5.414-28.087l95.197-72.411c-1.805-14.043-3.158-28.526-3.158-43.008s1.354-28.965 3.158-43.008l-95.197-72.411c-8.572-6.583-10.828-18.432-5.414-28.087l90.234-151.845c5.414-9.655 17.596-13.166 27.521-9.655l112.341 43.886c23.461-17.554 48.726-32.037 76.247-43.008l17.144-116.297c1.354-10.533 10.828-18.432 22.107-18.432h180.467c11.279 0 20.754 7.899 22.107 18.432l17.144 116.297c27.521 10.971 52.787 25.893 76.247 43.008l112.341-43.886c10.377-3.95 22.107 0 27.521 9.655l90.234 151.845c5.414 9.655 3.158 21.504-5.414 28.087l-95.197 72.411zM510.271 358.4c-87.076 0-157.909 68.901-157.909 153.6s70.833 153.6 157.909 153.6c87.076 0 157.909-68.901 157.909-153.6s-70.833-153.6-157.909-153.6z" />
<glyph unicode="&#xba04;" glyph-name="credit-cards" horiz-adv-x="500" d="M863.084 866.743h-702.189c-48.714 0-87.313-39.522-87.313-88.814l-0.439-532.881c0-49.292 39.037-88.836 87.752-88.836h702.189c48.714 0 87.774 39.544 87.774 88.836v532.881c0 49.292-39.059 88.814-87.774 88.814v0zM160.895 511.489h702.189v-266.441h-702.189v266.441zM160.895 777.929h702.189v-88.814h-702.189v88.814z" />
<glyph unicode="&#xba05;" glyph-name="lock" horiz-adv-x="500" d="M763.183 155.397v419.297h-501.551v-419.297h501.551zM383.007 741.209v-84.261h258.8v84.261c0 22.737-5.851 44.136-17.554 64.199s-27.585 35.944-47.647 47.647c-20.062 11.703-41.461 17.554-64.199 17.554s-44.136-5.851-64.199-17.554c-20.062-11.703-35.944-27.585-47.647-47.647s-17.554-41.461-17.554-64.199zM763.183 656.948c22.737 0 42.465-8.025 59.183-24.074s25.078-35.443 25.078-58.18v-419.297c0-22.737-8.359-42.13-25.078-58.18s-36.446-24.074-59.183-24.074h-501.551c-22.737 0-42.465 8.025-59.183 24.074s-25.078 35.443-25.078 58.18v419.297c0 22.737 8.359 42.13 25.078 58.18s36.446 24.074 59.183 24.074h41.127v84.261c0 38.118 9.362 73.226 28.087 105.326s44.136 57.511 76.236 76.236c32.099 18.725 67.208 28.087 105.326 28.087s73.226-9.362 105.326-28.087c32.099-18.725 57.511-44.136 76.236-76.236s28.087-67.208 28.087-105.326v-84.261h41.127zM512.408 280.785c-22.737 0-42.465 8.359-59.183 25.078s-25.078 36.446-25.078 59.183c0 22.737 8.359 42.465 25.078 59.183s36.446 25.078 59.183 25.078c22.737 0 42.465-8.359 59.183-25.078s25.078-36.446 25.078-59.183c0-22.737-8.359-42.465-25.078-59.183s-36.446-25.078-59.183-25.078z" />
<glyph unicode="&#xba06;" glyph-name="unlock" horiz-adv-x="500" d="M764.753 155.397v419.297h-504.46v-419.297h504.46zM764.753 656.948c22.869 0 42.711-8.025 59.526-24.074s25.223-35.443 25.223-58.18v-419.297c0-22.737-8.408-42.13-25.223-58.18s-36.657-24.074-59.526-24.074h-504.46c-22.869 0-42.711 8.025-59.526 24.074s-25.223 35.443-25.223 58.18v419.297c0 22.737 8.408 42.13 25.223 58.18s36.657 24.074 59.526 24.074h382.381v84.261c0 22.737-5.885 44.136-17.656 64.199s-27.745 35.944-47.924 47.647c-20.179 11.703-41.702 17.554-64.571 17.554s-44.392-5.851-64.571-17.554c-20.179-11.703-36.153-27.585-47.924-47.647s-17.656-41.461-17.656-64.199h-80.714c0 38.118 9.417 73.226 28.25 105.326s44.392 57.511 76.678 76.236c32.286 18.725 67.598 28.087 105.937 28.087s73.651-9.362 105.937-28.087c32.286-18.725 57.845-44.136 76.678-76.236s28.25-67.208 28.25-105.326v-84.261h41.366zM512.522 280.785c-22.869 0-42.711 8.359-59.526 25.078s-25.223 36.446-25.223 59.183c0 22.737 8.408 42.465 25.223 59.183s36.657 25.078 59.526 25.078c22.869 0 42.711-8.359 59.526-25.078s25.223-36.446 25.223-59.183c0-22.737-8.408-42.465-25.223-59.183s-36.657-25.078-59.526-25.078z" />
<glyph unicode="&#xba07;" glyph-name="profile" horiz-adv-x="500" d="M142.479 275.489c-43.884 68.29-69.336 149.539-69.336 236.729 0 242.255 196.484 438.64 438.857 438.64s438.857-196.385 438.857-438.64c0-89.121-26.591-172.032-72.276-241.243-4.409 7.318-33.679 40.671-56.208 61.595-15.945 17.721-27.489 25.803-50.723 28.383-19.792 1.721-152.243 45.584-195.269 64.507v67.085c0 0 25.816 31.823 25.816 62.786 2.582-2.58 16.349-6.020 18.070 17.201 1.721 23.223 4.303 51.604 5.164 61.926 0.861 10.32-12.908 8.602-13.767 2.58 0 8.602-0.861 12.041 0 12.901s8.605 9.461 8.605 17.201 4.303 12.901 4.303 27.522v61.926c0 9.461-9.465 4.301-9.465 9.461s-6.023 28.383-37.001 28.383c8.605 6.881 13.767 28.383 12.047 37.844-2.582-6.881-15.49-11.182-22.373-11.182-35.28 0-49.050 23.223-91.213 22.362-55.932-0.859-76.584-30.102-76.584-48.165-30.978 0-37.001-23.223-37.001-28.383s-9.465 0.859-9.465-9.461v-61.926c0-14.621 4.303-19.781 4.303-27.522s7.744-16.342 8.605-17.201c0.861-0.859 0-4.301 0-12.901-0.861 5.16-14.629 7.74-13.767-2.58s2.582-38.704 5.164-61.926c1.721-23.223 15.49-19.781 18.070-17.201 0-31.823 25.816-62.786 25.816-62.786 12.047-19.781 54.212-45.584 87.771-45.584-61.956 0-87.771 24.942-87.771 24.942v-47.303c-45.606-18.922-171.24-62.786-191.033-64.507-23.234-1.721-29.257-8.602-40.444-28.383-11.227-18.427-25.741-51.533-27.75-57.079z" />
<glyph unicode="&#xba08;" glyph-name="payrolls" horiz-adv-x="500" d="M709.482 512.001c60.569 0 109.288 49.159 109.288 109.706 0 60.569-48.719 109.728-109.288 109.728-60.547 0-109.706-49.159-109.706-109.728 0-60.547 49.159-109.706 109.706-109.706v0zM380.342 555.884c72.859 0 131.23 58.81 131.23 131.647 0 72.859-58.371 131.669-131.23 131.669s-131.647-58.81-131.647-131.669c0-72.837 58.788-131.647 131.647-131.647v0zM709.482 424.214c-80.312 0-241.375-40.365-241.375-120.677v-98.735h482.751v98.735c0 80.312-161.063 120.677-241.375 120.677v0zM380.342 468.119c-102.253 0-307.199-51.357-307.199-153.61v-109.706h307.199v98.735c0 37.309 14.488 102.693 104.012 152.291-38.188 7.893-75.057 12.29-104.012 12.29v0z" />
<glyph unicode="&#xba09;" glyph-name="payments" horiz-adv-x="500" d="M244.825 380.343h533.13v-87.771h-533.13v87.771zM244.825 555.886h533.13v-87.771h-533.13v87.771zM244.825 731.429h533.13v-87.771h-533.13v87.771zM111.543 73.143l66.641 65.829 66.641-65.829 66.641 65.829 66.641-65.829 66.641 65.829 66.641-65.829 66.641 65.829 66.641-65.829 66.641 65.829 66.641-65.829 66.641 65.829 66.641-65.829v877.714l-66.641-65.829-66.641 65.829-66.641-65.829-66.641 65.829-66.641-65.829-66.641 65.829-66.641-65.829-66.641 65.829-66.641-65.829-66.641 65.829-66.641-65.829-66.641 65.829v-877.714z" />
<glyph unicode="&#xba10;" glyph-name="transfers" horiz-adv-x="500" d="M267.703 564.245l-194.56-208.98 194.56-208.98v156.735h341.821v104.49h-341.821v156.735zM950.857 668.735l-194.56 208.98v-156.735h-341.821v-104.49h341.821v-156.735l194.56 208.98z" />
<glyph unicode="&#xba11;" glyph-name="address" horiz-adv-x="500" d="M511.789 535.209c19.692 0 37.978 4.923 54.857 14.769s30.242 23.033 40.088 39.56c9.846 16.528 14.769 34.637 14.769 54.33s-4.923 37.978-14.769 54.857c-9.846 16.879-23.209 30.242-40.088 40.088s-35.165 14.769-54.857 14.769c-19.692 0-37.802-4.923-54.33-14.769s-29.714-23.209-39.56-40.088c-9.846-16.879-14.769-35.165-14.769-54.857 0-30.242 10.549-55.912 31.648-77.011s46.769-31.648 77.011-31.648zM511.789 950.857c56.264 0 107.956-13.714 155.077-41.143 46.418-27.429 83.341-64.351 110.769-110.769 27.429-47.121 41.143-98.813 41.143-155.077 0-42.901-10.549-92.132-31.648-147.692-18.286-47.121-43.604-98.11-75.956-152.967-26.725-43.605-57.319-88.967-91.78-136.088-23.912-33.055-49.231-65.406-75.956-97.055l-31.648-36.923-31.648 36.923c-26.725 31.649-52.044 64-75.956 97.055-34.462 47.121-65.055 92.483-91.78 136.088-32.352 54.857-57.67 105.846-75.956 152.967-21.099 55.561-31.648 104.791-31.648 147.692 0 56.264 13.714 107.956 41.143 155.077 27.429 46.418 64.351 83.341 110.769 110.769 47.121 27.429 98.813 41.143 155.077 41.143z" />
<glyph unicode="&#xba12;" glyph-name="email" horiz-adv-x="500" d="M864.352 687.684v88.615l-352.352-220.484-352.352 220.484v-88.615l352.352-218.374 352.352 218.374zM864.352 864.914c23.912 0 44.308-8.791 61.187-26.374s25.319-38.33 25.319-62.242v-527.473c0-23.912-8.439-44.659-25.319-62.242s-37.275-26.374-61.187-26.374h-704.703c-23.912 0-44.308 8.791-61.187 26.374s-25.319 38.33-25.319 62.242v527.473c0 23.912 8.439 44.659 25.319 62.242s37.275 26.374 61.187 26.374h704.703z" />
<glyph unicode="&#xba13;" glyph-name="phone" horiz-adv-x="500" d="M248.686 571.685c35.889-68.657 81.53-130.682 136.923-186.075s117.418-101.034 186.075-136.923l107.666 107.666c6.242 7.022 14.043 11.703 23.406 14.043s18.334 1.56 26.917-2.341c51.493-17.944 109.226-26.917 173.202-26.917 13.263 0 24.576-4.681 33.938-14.043s14.043-20.675 14.043-33.938v-172.032c0-13.263-4.681-24.576-14.043-33.938s-20.675-14.043-33.938-14.043c-112.348 0-220.013 21.845-322.999 65.536-99.085 42.13-186.855 101.424-263.314 177.883s-135.753 164.23-177.883 263.314c-43.691 102.986-65.536 210.651-65.536 322.999 0 13.263 4.681 24.576 14.043 33.938s20.675 14.043 33.938 14.043h172.032c13.263 0 24.576-4.681 33.938-14.043s14.043-20.675 14.043-33.938c0-63.976 8.972-121.709 26.917-173.202 2.341-8.582 2.731-17.554 1.17-26.917s-5.851-17.164-12.873-23.406l-107.666-107.666z" />
<glyph unicode="&#xba14;" glyph-name="depart" horiz-adv-x="500" d="M998.4 774.217v0c11.703-32.366-4.937-68.206-37.303-80.091l-723.017-263.131-216.137 151.954 91.611 33.28 117.394-54.857 208.64 75.886-271.726 131.657 110.629 40.229 360.594-99.109 279.223 101.486c32.183 11.703 68.023-4.937 80.091-37.303zM916.846 237.714v0c0 16.091-12.983 29.074-29.074 29.074h-751.543c-38.766 0-38.766-58.149 0-58.149h751.726c15.909 0 28.891 13.166 28.891 29.074z" />
<glyph unicode="&#xba15;" glyph-name="passport" horiz-adv-x="500" d="M411.611 583.314h-82.469c2.926-35.109 15.543-67.474 34.926-94.171 0.914 0 0.914 0.914 2.011 0.914 17.554 9.509 36.937 16.091 56.32 21.943-5.851 22.857-9.874 46.629-10.789 71.314zM422.217 679.314c-20.297 5.669-38.766 13.349-56.32 21.943-0.914 0-0.914 0.914-2.011 0.914-20.297-26.697-32.914-58.88-34.926-94.171h82.469c1.097 24.686 5.12 48.457 10.789 71.314zM430.080 488.229c-16.457-4.754-32-10.423-47.543-18.103-0.914 0-0.914-0.914-1.829-0.914 23.223-22.857 52.297-39.863 84.297-48.457-0.914 0.914-0.914 1.829-1.829 2.926-12.8 19.931-24.32 40.777-33.097 64.549zM430.080 703.086c8.777 23.771 20.297 44.617 34.011 64.731 0.914 0.914 0.914 1.829 1.829 2.926-32.914-8.594-61.989-25.6-84.297-48.457 0.914 0 0.914-0.914 1.829-0.914 14.629-7.863 30.171-14.446 46.629-18.286zM512.549 499.566c-19.383 0-38.766-1.829-57.234-5.669 10.606-29.44 26.149-55.223 45.531-76.069 0.914-0.914 0.914-1.829 1.829-1.829h19.383c0.914 0.914 0.914 1.829 2.011 1.829 19.383 20.846 34.926 46.629 45.531 76.069-18.286 3.84-37.669 5.669-57.051 5.669zM512.549 691.566c19.383 0 38.766 1.829 57.234 5.669-10.606 28.526-26.149 55.223-45.531 76.069-0.914 0.914-0.914 1.829-1.829 1.829h-19.566c-0.914-0.914-0.914-1.829-2.011-1.829-19.383-20.846-34.926-47.543-45.531-76.069 18.469-3.657 37.851-5.669 57.234-5.669zM447.634 517.669c21.394 3.84 42.606 6.583 64.914 6.583s44.617-1.829 64.914-6.583c5.851 20.846 9.691 42.789 9.691 65.646h-150.309c1.097-22.857 4.754-44.617 10.789-65.646zM577.463 672.731c-21.394-3.84-42.606-6.583-64.914-6.583s-44.617 1.829-64.914 6.583c-5.851-20.846-9.691-42.789-9.691-65.646h150.309c-1.097 23.771-4.937 45.531-10.789 65.646zM594.834 488.229c-8.777-23.771-20.297-44.617-34.011-64.731-0.914-0.914-0.914-1.829-1.829-2.926 32.914 8.594 61.074 25.6 84.297 48.457-0.914 0-0.914 0.914-1.829 0.914-14.629 7.863-30.171 13.531-46.629 18.286zM594.834 703.086c16.457 4.754 32 10.423 47.543 18.103 0.914 0 0.914 0.914 1.829 0.914-23.223 22.857-52.297 39.863-84.297 48.457 0.914-0.914 0.914-1.829 1.829-2.926 12.8-19.931 24.32-41.691 33.097-64.549zM602.697 512c20.297-5.669 38.766-13.349 56.32-21.943 0.914 0 0.914-0.914 2.011-0.914 20.297 26.697 32.914 58.88 34.926 94.171h-82.469c-1.097-24.686-4.937-48.457-10.789-71.314zM658.834 701.074c-17.554-8.594-36.937-16.091-56.32-21.943 5.851-22.857 9.691-46.629 10.606-71.314h82.469c-2.926 35.109-15.543 67.474-34.926 94.171-0.914-0.914-1.829-0.914-1.829-0.914zM774.217 925.44h-523.52c-23.223 0-42.606-19.017-42.606-41.874v-743.314c0-22.857 19.383-41.874 42.606-41.874h522.606c23.223 0 42.606 19.017 42.606 41.874v743.314c0 22.857-18.469 41.874-41.691 41.874zM680.229 242.103h-335.36c-8.777 0-16.457 7.68-16.457 16.091 0 8.594 7.68 16.091 16.457 16.091h335.36c8.777 0 16.457-7.68 16.457-16.091 0-8.594-7.863-16.091-16.457-16.091zM512.549 390.4c-115.383 0-209.371 92.16-209.371 205.349s93.989 205.349 209.371 205.349 209.371-92.16 209.371-205.349c0-113.189-93.989-205.349-209.371-205.349z" />
<glyph unicode="&#xba16;" glyph-name="registration" horiz-adv-x="500" d="M309.577 605.623h319.634c12.251 0 22.126 9.874 22.126 22.126s-9.874 22.126-22.126 22.126h-319.634c-12.251 0-22.126-9.874-22.126-22.126s9.874-22.126 22.126-22.126zM944.64 694.674c-21.394 30.171-44.251 45.531-67.657 45.531-13.714 0-22.674-5.669-25.051-7.314l-38.4-27.246c-2.011-1.463-3.657-3.291-5.12-5.12l-13.714-9.509v138.606c0 57.234-40.411 95.817-100.754 95.817h-431.909c-57.234 0-117.943-33.646-117.943-95.817v-619.337c0-57.417 57.234-111.726 117.943-111.726h431.909c56.503 0 100.754 49.006 100.754 111.726v255.817l123.063 85.577c3.84 2.56 6.583 6.217 8.046 10.24l31.634 22.491c2.194 1.646 4.206 3.657 5.669 6.034 2.56 4.023 25.234 42.606-18.469 104.229zM728.503 210.286c0-22.309-12.983-45.531-34.56-45.531h-431.909c-23.771 0-51.749 24.686-51.749 45.531v619.337c0 19.383 29.989 29.623 51.749 29.623h431.909c34.56 0 34.56-20.114 34.56-29.623v-184.686l-140.434-97.646c-2.56-1.829-4.571-4.023-6.034-6.4 0 0 0 0 0 0l-0.731-1.28h-271.726c-12.251 0-22.126-9.874-22.126-22.126 0-12.069 9.874-22.126 22.126-22.126h244.114l-43.703-70.4c-3.657 2.56-8.046 4.206-12.983 4.206h-187.429c-12.251 0-22.126-9.874-22.126-22.126 0-12.069 9.874-22.126 22.126-22.126h175.726l-2.011-3.291c-4.754-7.497-4.389-17.371 0.914-24.503 4.206-5.851 10.971-9.143 17.92-9.143 1.646 0 3.474 0.183 5.303 0.549l178.834 43.52c0.366 0 0.549 0.183 0.731 0.366 0.366 0 0.731 0.183 1.097 0.366 1.829 0.731 3.657 1.463 5.303 2.56 0 0 0 0 0.183 0 0 0 0 0 0 0l35.109 24.32-0.183-209.371zM601.6 488.96l42.789-61.44-95.269-23.223 52.48 84.663zM686.263 444.526l-55.040 79.177 188.16 130.743 55.040-79.177-188.16-130.743zM926.72 616.594l-15.36-10.789-54.491 76.617 19.017 13.531c0.183 0 0.549 0 0.731 0 2.194 0 13.531-1.28 31.817-26.88 20.48-28.526 19.383-46.446 18.286-52.48zM309.577 704.914h319.634c12.251 0 22.126 9.874 22.126 22.126s-9.874 22.126-22.126 22.126h-319.634c-12.251 0-22.126-9.874-22.126-22.126s9.874-22.126 22.126-22.126z" />
<glyph unicode="&#xba17;" glyph-name="wheel" horiz-adv-x="500" d="M512 932.571c-231.314 0-420.571-189.257-420.571-420.571s189.257-420.571 420.571-420.571 420.571 189.257 420.571 420.571-189.257 420.571-420.571 420.571zM512 848.457c130.377 0 248.137-75.703 302.811-189.257l-201.874-71.497c-25.234 33.646-63.086 50.469-100.937 50.469s-75.703-16.823-96.731-46.263l-206.080 67.291c54.674 113.554 172.434 189.257 302.811 189.257zM469.943 179.749c-164.023 21.029-294.4 164.023-294.4 332.251 0 25.234 4.206 46.263 8.411 71.497l201.874-71.497c0-54.674 33.646-100.937 84.114-117.76v-214.491zM512 469.943c-25.234 0-42.057 16.823-42.057 42.057s16.823 42.057 42.057 42.057 42.057-16.823 42.057-42.057-16.823-42.057-42.057-42.057zM554.057 179.749v214.491c50.469 16.823 84.114 63.086 84.114 117.76l201.874 71.497c4.206-25.234 8.411-46.263 8.411-71.497 0-172.434-130.377-311.223-294.4-332.251z" />
<glyph unicode="&#xba18;" glyph-name="traffic-con" horiz-adv-x="500" d="M840.777 214.857h-4.206l-266.24 699.429c-4.206 11.337-14.080 18.286-25.234 18.286h-67.291c-11.337 0-21.029-6.949-25.234-18.286l-266.423-699.429h-4.206c-35.109 0-61.623-27.977-61.623-61.623s27.977-61.623 61.623-61.623h660.297c35.109 0 61.623 27.977 61.623 61.623-1.28 33.463-29.257 61.623-63.086 61.623zM494.629 877.897h29.44l47.726-126.171h-124.709l47.543 126.171zM397.897 621.349h224.366l49.006-128.914h-322.377l49.006 128.914zM242.286 214.857l56.137 147.2h423.314l56.137-147.2h-535.589z" />
<glyph unicode="&#xba19;" glyph-name="workerHat" horiz-adv-x="500" d="M419.109 759.771v-185.783h-30.903v114.103c-21.029-7.497-41.143-17.006-60.343-28.343-97.097-58.149-160.731-159.086-171.703-271.726h710.217c1.097-10.24 1.829-20.663 2.011-30.903-1.463 127.086-70.217 243.749-180.846 306.651-16.457 9.143-33.646 17.006-51.383 23.406v-113.189h-30.903v185.783h-78.446v-92.891h-30.903v92.891h-76.8zM604.891 697.6v0c0 0-7.863 2.926 0 0v0zM868.206 357.12h-758.857c-17.189 0-30.903-13.897-30.903-30.903v-30.903c0-17.189 13.897-30.903 30.903-30.903h805.486c17.189 0 30.903 13.897 30.903 30.903v30.903c0 17.189-13.897 30.903-30.903 30.903h-46.629z" />
<glyph unicode="&#xe900;" glyph-name="basics-dashboard" d="M104.96 410.266l-72.038 40.243c-31.027 17.306-42.138 56.371-24.73 87.245 5.786 10.291 14.336 18.79 24.678 24.576l82.074 45.824-82.074 45.824c-30.976 17.357-42.086 56.422-24.678 87.296 5.786 10.291 14.336 18.79 24.678 24.576l447.642 249.958c19.558 10.906 43.418 10.906 62.976 0l447.59-249.958c31.027-17.306 42.086-56.371 24.678-87.296-5.786-10.24-14.336-18.79-24.678-24.576l-82.074-45.824 82.074-45.824c31.027-17.306 42.086-56.371 24.678-87.245-5.786-10.342-14.336-18.842-24.678-24.576l-72.038-40.243 72.038-40.243c31.027-17.357 42.086-56.422 24.678-87.296-5.786-10.291-14.336-18.79-24.678-24.576l-447.59-249.958c-19.558-10.906-43.418-10.906-62.976 0l-447.59 249.958c-31.027 17.306-42.138 56.371-24.73 87.296 5.786 10.24 14.336 18.79 24.678 24.576l72.038 40.243zM170.752 373.504l-106.394-59.392 447.642-250.061 447.642 249.958-106.394 59.392-309.76-172.954c-19.558-10.906-43.418-10.906-62.976 0l-309.76 173.005zM787.405 410.266l172.237 96.102-116.429 65.024-299.725-167.373c-19.558-10.906-43.418-10.906-62.976 0l-299.725 167.424-116.429-65.024 447.642-249.958 275.456 153.805zM64.358 709.939l447.642-250.010 447.642 250.010-447.642 249.958-447.642-249.958z" />
<glyph unicode="&#xe901;" glyph-name="basics-info" d="M512 1024c282.778 0 512-229.222 512-512s-229.222-512-512-512-512 229.222-512 512 229.222 512 512 512zM512 960c-247.398 0-448-200.602-448-448s200.602-448 448-448 448 200.602 448 448-200.602 448-448 448zM512 576c17.664 0 32-14.336 32-32v-224h32c17.664 0 32-14.336 32-32s-14.336-32-32-32h-64c-17.664 0-32 14.336-32 32v224h-32c-17.664 0-32 14.336-32 32s14.336 32 32 32h64zM512 768c35.328 0 64-28.672 64-64s-28.672-64-64-64-64 28.672-64 64 28.672 64 64 64z" />
<glyph unicode="&#xe902;" glyph-name="basics-search" d="M352 1024c194.406 0 352-157.594 352-352 0-85.658-30.618-164.198-81.51-225.28l387.328-387.277c12.493-12.493 12.493-32.768 0-45.261-11.52-11.52-29.696-12.442-42.24-2.662l-3.021 2.662-387.328 387.328c-61.030-50.893-139.571-81.51-225.229-81.51-194.406 0-352 157.594-352 352s157.594 352 352 352zM352 960c-159.078 0-288-128.922-288-288s128.922-288 288-288 288 128.922 288 288-128.922 288-288 288z" />
<glyph unicode="&#xe903;" glyph-name="bills-otherbills" horiz-adv-x="975" d="M675.694 999.619c16.189 0 31.695-6.437 43.106-17.847l238.592-238.592c11.41-11.41 17.847-26.917 17.847-43.106v-553.789c0-65.292-51.298-118.589-115.81-121.758l-6.095-0.146-737.524 0.146c-64.512 3.17-115.81 56.466-115.81 121.758s51.298 118.589 115.81 121.758l6.095 0.146h121.905v700.952c0 16.823 13.653 30.476 30.476 30.476h401.408zM914.286 146.286v518.095h-243.81c-16.823 0-30.476 13.653-30.476 30.476v243.81h-335.238v-670.476h548.571c16.823 0 30.476-13.653 30.476-30.476 0-15.604-11.752-28.526-26.917-30.232l-3.56-0.244c-33.646 0-60.952-27.307-60.952-60.952s27.307-60.952 60.952-60.952 60.952 27.307 60.952 60.952zM822.857 420.571c16.823 0 30.476-13.653 30.476-30.476s-13.653-30.476-30.476-30.476h-426.667c-16.823 0-30.476 13.653-30.476 30.476s13.653 30.476 30.476 30.476h426.667zM822.857 542.476c16.823 0 30.476-13.653 30.476-30.476s-13.653-30.476-30.476-30.476h-426.667c-16.823 0-30.476 13.653-30.476 30.476s13.653 30.476 30.476 30.476h426.667zM548.571 664.381c16.823 0 30.476-13.653 30.476-30.476s-13.653-30.476-30.476-30.476h-152.381c-16.823 0-30.476 13.653-30.476 30.476s13.653 30.476 30.476 30.476h152.381zM700.952 913.408v-188.075h188.123l-188.123 188.075zM548.571 786.286c16.823 0 30.476-13.653 30.476-30.476s-13.653-30.476-30.476-30.476h-152.381c-16.823 0-30.476 13.653-30.476 30.476s13.653 30.476 30.476 30.476h152.381zM243.81 207.238h-121.905l-4.535-0.146c-31.549-2.341-56.418-28.672-56.418-60.806s24.869-58.466 56.418-60.806l4.535-0.146h625.859c-10.386 17.896-16.335 38.717-16.335 60.952 0 22.187 5.949 43.008 16.286 60.952h-503.906z" />
<glyph unicode="&#xe904;" glyph-name="calendar" d="M865.963 921.6h-50.574v102.4h-101.092v-102.4h-404.594v102.4h-101.092v-102.4h-50.631c-56.036 0-100.523-46.080-100.523-102.4l-0.569-716.8c0-56.32 44.999-102.4 101.148-102.4h707.925c55.637 0 101.148 46.080 101.148 102.4v716.8c0 56.32-45.511 102.4-101.148 102.4zM158.037 665.6h707.925v-563.2h-707.925v563.2zM259.186 563.2h252.814v-256h-252.814v256z" />
<glyph unicode="&#xe905;" glyph-name="activity-log" d="M967.117 445.235h-910.285c-31.283 0-56.883-25.088-56.883-55.654v-333.926c0-30.618 25.6-55.654 56.883-55.654h910.336c31.283 0 56.883 25.088 56.883 55.654v333.926c0 30.618-25.6 55.654-56.883 55.654zM222.618 111.309c-61.235 0-111.309 50.074-111.309 111.309 0 61.184 50.074 111.309 111.309 111.309 61.184 0 111.309-50.125 111.309-111.309 0-61.235-50.125-111.309-111.309-111.309zM967.066 1024h-910.131c-31.283 0-56.883-25.088-56.883-55.654v-333.926c0-30.618 25.6-55.654 56.883-55.654h910.234c31.283 0 56.883 25.088 56.883 55.654v333.926c0 30.618-25.6 55.654-56.883 55.654zM222.618 690.074c-61.235 0-111.309 50.125-111.309 111.309 0 61.235 50.074 111.309 111.309 111.309 61.184 0 111.309-50.074 111.309-111.309 0-61.184-50.125-111.309-111.309-111.309z" />
<glyph unicode="&#xe906;" glyph-name="cards-expenses" d="M865.485 965.53l118.528-266.24c23.45-9.472 39.987-32.461 39.987-59.29v-576c0-35.328-28.672-64-64-64h-896c-35.328 0-64 28.672-64 64v576c0 35.328 28.672 64 64 64h56.832l660.224 294.042c32.256 14.336 70.144-0.154 84.48-32.461zM960 384h-896v-320h896v320zM448 192c17.664 0 32-14.336 32-32s-14.336-32-32-32h-320c-17.664 0-32 14.336-32 32s14.336 32 32 32h320zM832 320c35.328 0 64-28.672 64-64v-64c0-35.328-28.672-64-64-64h-128c-35.328 0-64 28.672-64 64v64c0 35.328 28.672 64 64 64h128zM832 256h-128v-64h128v64zM352 320c17.664 0 32-14.336 32-32s-14.336-32-32-32h-224c-17.664 0-32 14.336-32 32s14.336 32 32 32h224zM960 512h-896v-64h896v64zM960 640h-896v-64h896v64zM807.014 939.52l-528.896-235.52h157.338l397.619 177.050-26.061 58.47zM859.085 822.579l-266.24-118.528h157.286l135.014 60.058-26.061 58.47z" />
<glyph unicode="&#xe907;" glyph-name="cards-new-payroll" d="M349.184 694.857l596.017 159.695-18.871 70.412-824.271-220.843 2.487-9.216h244.638zM584.704 694.857h394.386c3.218 0 6.339-0.488 9.265-1.463l-27.404 102.302-376.247-100.84zM43.739 686.373l-8.436 31.403c-4.389 16.238 5.315 32.963 21.553 37.303l883.127 236.642c16.286 4.389 32.963-5.266 37.352-21.553l32.232-120.344v-358.4c-17.31 24.625-37.839 46.763-60.952 65.829v76.654h-853.333v-60.952h447.195c-24.576-17.31-46.714-37.839-65.829-60.952h-381.367v-60.952h341.333c-9.899-19.31-17.944-39.692-23.942-60.952h-317.391v-213.333h327.631c8.387-21.455 18.92-41.935 31.354-60.952h-389.461c-16.823 0-30.476 13.653-30.476 30.476v518.095c0 8.631 3.608 16.482 9.411 21.992zM735.281 24.381c-151.503 0-274.286 122.782-274.286 274.286s122.782 274.286 274.286 274.286 274.286-122.782 274.286-274.286-122.782-274.286-274.286-274.286zM735.281 85.333c117.809 0 213.333 95.525 213.333 213.333s-95.525 213.333-213.333 213.333-213.333-95.525-213.333-213.333 95.525-213.333 213.333-213.333zM765.757 329.143h91.429c16.823 0 30.476-13.653 30.476-30.476s-13.653-30.476-30.476-30.476h-91.429v-91.429c0-16.823-13.653-30.476-30.476-30.476s-30.476 13.653-30.476 30.476v91.429h-91.429c-16.823 0-30.476 13.653-30.476 30.476s13.653 30.476 30.476 30.476h91.429v91.429c0 16.823 13.653 30.476 30.476 30.476s30.476-13.653 30.476-30.476v-91.429z" />
<glyph unicode="&#xe908;" glyph-name="cheque-management" d="M412.979 640l-44.851-44.851c-5.171-5.222-8.397-11.981-9.216-19.149h-294.912v-512h896v512h-158.464l64 64h94.464c35.328 0 64-28.672 64-64v-512c0-35.328-28.672-64-64-64h-896c-35.328 0-64 28.672-64 64v512c0 35.328 28.672 64 64 64h348.979zM160 192h704c17.664 0 32-14.336 32-32s-14.336-32-32-32h-704c-17.664 0-32 14.336-32 32s14.336 32 32 32zM160 320h320c17.664 0 32-14.336 32-32s-14.336-32-32-32h-320c-17.664 0-32 14.336-32 32s14.336 32 32 32zM915.405 1017.344l90.522-90.624c12.493-12.493 12.493-32.768 0-45.261l-467.661-467.61c-4.864-4.915-11.264-8.090-18.074-9.062l-105.626-15.053c-17.459-2.56-33.69 9.626-36.198 27.136-0.41 3.021-0.41 6.042 0 9.062l15.104 105.574c0.973 6.861 4.096 13.21 9.062 18.125l467.61 467.61c12.493 12.493 32.768 12.493 45.261 0zM455.322 511.949l-7.578-52.787 52.838 7.526 437.402 437.504-45.261 45.261-437.402-437.453z" />
<glyph unicode="&#xe909;" glyph-name="chevron-icon" d="M202.854 769.196l323.301-323.301 330.903 330.903 113.68-113.68-434.446-434.446-2.607 2.607-10.065-10.209-434.446 434.446 113.68 113.68z" />
<glyph unicode="&#xe90a;" glyph-name="down-arrow" d="M935.765 213.333l88.235 87.808-512 509.525-512-509.525 88.235-87.808 423.765 421.717z" />
<glyph unicode="&#xe90b;" glyph-name="down-arrow_2" d="M935.765 213.333l88.235 87.808-512 509.525-512-509.525 88.235-87.808 423.765 421.717z" />
<glyph unicode="&#xe90c;" glyph-name="financial-transfer" d="M432.23 914.739l-377.6-377.6c-12.493-12.493-32.768-12.493-45.261 0s-12.493 32.768 0 45.261l377.6 377.6h-273.766c-17.664 0-32 14.336-32 32s14.336 32 31.949 32h351.027c17.715 0 32-14.336 32-32v-350.976c0-17.664-14.336-32-32-32s-32 14.336-32 32v273.715zM591.667 109.312l377.651 377.651c12.493 12.493 32.768 12.493 45.261 0s12.493-32.768 0-45.261l-377.651-377.702h273.818c17.664 0 32-14.336 32-32s-14.336-32-32-32h-351.13c-17.664 0-32 14.336-32 32v351.078c0 17.664 14.336 32 32 32s32-14.336 32-32v-273.818z" />
<glyph unicode="&#xe90d;" glyph-name="ksa-sadad" d="M64 448c-17.664 0-32 14.336-32 32s14.336 32 32 32h16.026c61.85 0 111.974-50.176 111.974-112.026s-50.176-111.974-112.026-111.974h-47.974c-17.664 0-32 14.336-32 32s14.336 32 32 32h48.026c26.47 0 47.974 21.504 47.974 48.026 0 26.47-21.504 47.974-48.026 47.974h-15.974zM565.248 352h74.752c35.328 0 64 28.672 64 64v64c0 17.664 14.336 32 32 32s32-14.336 32-32v-64c0-23.296-6.246-45.158-17.101-64h17.101c35.328 0 64 28.672 64 64v64c0 17.664 14.336 32 32 32s32-14.336 32-32v-64c0-23.296-6.246-45.158-17.101-64h17.101c35.328 0 64 28.672 64 64v64c0 17.664 14.336 32 32 32s32-14.336 32-32v-64c0-70.656-57.344-128-128-128h-480c-17.664 0-32 14.336-32 32s14.336 32 32 32h48.026c26.47 0 47.974 21.504 47.974 48.026 0 26.47-21.504 47.974-48.026 47.974h-15.974c-17.664 0-32 14.336-32 32s14.336 32 32 32h16.026c61.85 0 111.974-50.176 111.974-112.026 0-17.152-3.891-33.434-10.752-47.974zM288 608c17.664 0 32-14.336 32-32v-256c0-17.664-14.336-32-32-32s-32 14.336-32 32v256c0 17.664 14.336 32 32 32zM960 672h-896v-64c0-17.664-14.336-32-32-32s-32 14.336-32 32v192c0 35.328 28.672 64 64 64h896c35.328 0 64-28.672 64-64v-192c0-17.664-14.336-32-32-32s-32 14.336-32 32v64zM960 736v64h-896v-64h896zM1024 224c0-35.328-28.672-64-64-64h-896c-35.328 0-64 28.672-64 64h1024z" />
<glyph unicode="&#xe90e;" glyph-name="logo" d="M743.135 375.742h276.199v272.516h-276.191v-272.516zM282.12 472.782v-55.279c0-16.103-6.417-23.098-21.248-23.379v3.857c2.56 0.677 4.905 2.345 5.962 4.55 1.189 2.824 2.246 8.258 2.246 14.518v55.734h13.048zM1000.266 629.479v-235.008h-238.146v235.008h238.146zM511.092 474.129c15.071 0 22.743-6.796 22.743-20.224v-36.393h-13.295v9.563s-7.044-10.917-19.39-10.917c-9.076 0-15.608 6.895-15.608 16.318 0 9.687 6.59 15.996 20.711 19.902l13.898 4.096-0.099 0.851c-0.892 5.508-5.070 9.745-10.925 9.745-5.739 0-10.405-1.726-15.030-5.368-0.908 1.107-3.055 4.269-3.823 5.483 6.218 4.765 12.651 6.945 20.819 6.945zM231.969 474.129c15.129 0 22.776-6.796 22.776-20.224v-36.393h-13.312v9.563s-7.085-10.917-19.439-10.917c-9.018 0-15.542 6.904-15.542 16.318 0 9.687 6.54 15.996 20.728 19.902l13.874 4.096-0.116 0.851c-0.851 5.508-5.037 9.745-10.95 9.745-5.673 0-10.405-1.726-15.071-5.368-0.842 1.107-3.022 4.269-3.799 5.483 6.218 4.765 12.684 6.945 20.852 6.945zM167.226 495.633c15.599 0 24.972-7.424 24.972-19.885 0-9.885-4.302-17.16-13.213-22.355l-0.875-0.52 19.060-33.891c-2.312-0.438-13.626-2.51-14.947-2.709l-0.347 0.718-8.853 17.813-6.524 13.163-0.809 1.619-0.487 0.991h-10.925v-33.074h-13.015v78.121zM629.132 499.695v-49.466l20.191 24.906 11.685-5.401-17.259-20.199 22.528-28.581-12.75-4.36-24.394 33.404v-32.495h-13.039v82.193h13.039zM582.020 474.129c13.081 0 19.778-6.945 19.778-20.686v-35.939h-13.081v34.164c0 9.257-4.79 14.386-12.965 14.386-8.828 0-14.509-6.028-14.509-15.393v-33.156h-13.073v55.279h12.932v-8.423l1.858 1.957c4.748 5.029 11.52 7.812 19.051 7.812zM309.364 499.695v-35.328l1.842 1.949c4.806 5.037 11.545 7.82 19.076 7.82 13.13 0 19.762-6.953 19.762-20.686v-35.947h-13.064v34.164c0 9.249-4.773 14.394-12.965 14.394-8.853 0-14.518-6.028-14.518-15.401v-33.156h-13.064v82.193h12.932zM377.427 472.791v-55.279h-13.056v55.279h13.048zM44.742 495.624l29.795-78.121h-15.112l-7.564 21.958h-31.265l-8.374-21.95h-12.222l32.256 78.113h12.486zM447.339 495.624c13.799 0 22.363-5.599 22.363-15.946 0-13.956-12.775-18.093-15.327-18.762v-1.949c9.868-0.438 20.422-7.3 20.422-18.762 0-13.791-11.743-22.693-29.869-22.693h-24.659v78.121zM98.428 499.704v-82.193h-13.039v82.184h13.031zM881.458 599.808l-47.319-26.74v-44.552l-41.885-23.973v-53.545l46.493-26.806c0.124 0 42.702 23.701 42.702 23.701l41.125-23.701 47.608 27.144v53.207l-41.91 23.973v44.552l-46.823 26.74zM241.623 451.179l-1.354-0.495-8.605-2.725c-8.010-2.403-12.082-7.151-12.082-14.163 0-5.343 3.51-9.513 8.002-9.513 2.89 0 5.805 1.363 8.233 3.939 2.568 2.709 6.755 9.084 5.905 21.603l-0.099 1.354zM520.679 451.179l-1.313-0.495-8.564-2.725c-8.076-2.403-12.139-7.151-12.139-14.163 0-5.343 3.526-9.513 7.994-9.513 2.907 0 5.847 1.363 8.283 3.939 2.535 2.709 6.755 9.084 5.896 21.603l-0.165 1.354zM444.639 454.45h-11.314v-29.126h11.421c10.306 0 16.987 5.772 16.987 14.699 0 9.034-6.375 14.427-17.094 14.427zM928.273 506.814l22.974-13.048v-32.256l-28.102-15.996-22.916 13.147 28.044 15.979v32.173zM834.139 506.814v-32.091l28.069-16.062-23.040-13.147-27.954 15.996v32.264l22.924 13.048zM36.938 481.891l-13.353-34.709h25.55l-12.197 34.709zM165.070 487.986h-10.793v-29.679h8.943c10.909 0 15.897 8.646 15.897 16.054 0 8.258-5.285 13.626-14.047 13.626zM442.83 487.986h-9.505v-25.749h6.127c9.951 0 16.846 6.177 16.846 14.427 0 7.061-5.037 11.314-13.469 11.314zM881.449 578.378l27.887-16.021v-76.858c-0.107-0.116-27.706-15.831-27.887-15.913-0.165 0.083-28.102 15.798-28.325 15.913v76.85l28.325 16.021zM282.12 492.726v-10.686h-13.048v10.686h13.048zM377.418 492.726v-10.636h-13.048v10.636h13.048zM54.289 539.747v-10.711h-13.114v10.711h13.089zM31.538 539.747v-10.711h-13.106v10.711h13.097zM328.754 638.844v-62.712c0-5.417-1.47-9.934-4.55-13.543-3.369-4.096-7.977-6.169-14.179-6.169h-7.705c0-16.153-6.408-23.156-21.339-23.436v3.857c2.643 0.694 4.881 2.626 6.037 4.567 2.246 3.989 2.221 7.614 2.221 14.559v48.805h13.081v-40.506h4.558c4.022 0 8.82 1.932 8.82 11.495v63.083h13.056zM623.979 603.119c7.317 1.28 30.522 4.823 42.372-5.12 5.17-4.319 7.185-10.199 7.185-17.482 0-14.609-12.164-24.097-29.531-24.097h-127.009c0-16.153-6.483-23.156-21.339-23.436v3.857c2.585 0.694 4.839 2.626 6.004 4.567 2.254 3.989 2.205 7.614 2.205 14.559v48.805h13.13v-40.506h6.144c5.979 0 8.778 3.485 8.778 11.231v22.297h13.089v-20.356l1.883 2.758c9.133 11.578 21.834 19.993 35.89 19.993 18.085 0 30.951-11.578 29.234-32.149l-0.008-0.116-0.083-0.793c-0.107-0.875-0.281-2.18-0.454-2.866h12.503zM221.795 547.32v-10.603h-13.056v10.603h13.056zM97.941 613.219v-48.954h63.356l0.041 3.080c0 21.554-14.204 33.28-27.615 33.28-6.177 0-9.654-1.817-9.654-1.817v-15.649h-13.097v20.843c6.251 2.841 14.080 4.426 22.123 4.426 25.187 0 42.76-17.028 42.76-41.307l-0.099-2.857h60.342c0.33 1.263 0.372 2.857 0.372 3.080 0 21.554-14.22 33.28-27.565 33.28-6.177 0-9.662-1.817-9.662-1.817v-15.649h-13.106v20.843c6.218 2.841 14.080 4.426 22.082 4.426 24.832 0 42.265-16.657 42.744-40.332 0 0-0.19-6.359-1.528-11.677h-164.583v48.987c-16.037 0-18.556-8.357-18.556-23.825v-16.401c0-12.577-6.458-19.406-18.135-19.406h-18.415c-14.691 0-25.517 7.655-25.517 30.505 0 10.339 2.907 18.605 9.596 24.692 7.845 7.019 16.235 9.356 29.663 9.414v-7.267c-17.425 0.124-26.129-8.002-26.129-26.649 0-21.999 10.711-22.982 17.259-22.982h10.157c5.095 0 8.431 1.701 8.431 10.546v17.177c0.066 17.391 1.734 32 32.908 32h11.809zM354.403 638.844v-82.415h-13.064v82.415h13.064zM276.67 638.844v-82.415h-13.097v82.415h13.097zM491.314 613.211v-37.541c0-5.293-1.47-9.761-4.459-13.188-3.303-4.071-7.837-6.061-13.849-6.061h-44.701c-24.782 0-33.379 5.112-33.379 22.511v25.831h13.056v-23.849c0-12.445 6.086-16.648 22.404-16.648h39.581c5.607 0 8.588 3.080 8.588 9.043v1.123h-9.29c-15.17 0-24.221 7.812-24.221 19.885 0 12.552 8.283 18.894 25.996 18.894h20.274zM641.693 596.447c-3.155 0-4.658-0.462-4.658-0.462v-31.711h4.732c10.835 0 18.655 5.946 18.655 16.004 0 10.174-6.631 16.161-18.729 16.161zM583.333 590.881c-13.163 0.52-25.038-7.573-34.568-25.105l-0.917-1.511h50.762l0.529 4.443c1.032 12.437-4.228 21.719-15.806 22.173zM478.216 605.407h-6.053c-9.637 0-14.278-4.038-14.278-11.644 0-11.206 10.843-12.271 14.865-12.271h5.467v23.915zM477.101 631.849v-10.653h-13.097v10.653h13.097z" />
<glyph unicode="&#xe90f;" glyph-name="mail-outline" d="M921.6 910.222h-819.2c-56.32 0-101.888-44.772-101.888-99.556l-0.512-597.333c0-54.784 46.080-99.556 102.4-99.556h819.2c56.32 0 102.4 44.772 102.4 99.556v597.333c0 54.784-46.080 99.556-102.4 99.556zM921.6 213.333h-819.2v497.778l409.6-248.889 409.6 248.889v-497.778zM512 561.778l-409.6 248.889h819.2l-409.6-248.889z" />
<glyph unicode="&#xe910;" glyph-name="menu" d="M0 170.667h1024v113.792h-1024v-113.792zM0 455.125h1024v113.749h-1024v-113.749zM0 739.541h1024v113.792h-1024v-113.792z" />
<glyph unicode="&#xe911;" glyph-name="money-salary-payment" d="M128 274.995v-178.483l136.243 59.494c12.954 5.222 27.238 6.042 40.704 2.355l247.296-92.006c15.155-4.096 31.334-2.56 45.466 4.557l297.984 185.856-365.414-105.677c-8.909-2.406-18.432-0.87-26.112 4.25-13.517 9.011-17.101 27.187-8.141 40.653 2.816 4.198 6.656 7.578 11.11 9.83l100.659 50.995-278.016 62.259c-6.502 1.024-13.21 1.075-19.814 0.102l-181.965-44.237zM878.848 318.669c74.547 20.326 114.586-84.531 45.466-119.194l-297.984-185.907c-28.16-14.131-60.57-17.357-90.982-9.062l-247.245 92.006-136.294-59.494c-41.984-16.896-87.808 14.131-87.808 59.494v178.483c0 31.744 23.091 58.624 54.374 63.386l181.965 44.186c13.21 1.997 26.624 1.894 39.731-0.205l278.016-62.259c30.72-5.018 51.2-30.31 53.504-58.112l207.258 56.678zM551.424 514.97c14.746 15.411 27.955 32.307 39.424 50.483 39.117-33.331 89.805-53.453 145.203-53.453 123.699 0 224 100.301 224 224s-100.352 224-224.051 224c-55.398 0-106.086-20.122-145.203-53.453-11.469 18.176-24.678 35.072-39.424 50.483 49.971 41.882 114.381 66.97 184.627 66.97 159.078 0 288-128.922 288-288s-128.922-288-288-288c-70.246 0-134.656 25.139-184.627 66.97zM635.29 680.858c3.123 17.92 4.762 36.352 4.762 55.142v1.024c3.891-2.662 6.963-5.99 9.216-9.933 2.458-4.301 3.686-9.574 3.686-15.872 0-7.424-2.15-14.182-6.4-20.122-2.867-3.994-6.656-7.424-11.264-10.24zM635.597 789.402c3.891-3.072 6.758-6.246 8.55-9.574 1.894-3.43 2.816-6.81 2.816-10.035 0-3.021-1.178-5.683-3.482-8.090-1.28-1.28-2.662-2.202-4.25-2.816-0.717 10.342-1.946 20.48-3.584 30.515zM764.211 688.128l-6.554 15.514h-55.706l-6.554-15.872c-2.56-6.144-4.762-10.342-6.554-12.544-1.792-2.15-4.762-3.226-8.858-3.226-3.533 0-6.605 1.178-9.267 3.482-2.714 2.304-4.045 4.915-4.045 7.834 0 1.69 0.307 3.43 0.973 5.222 0.614 1.792 1.638 4.301 3.072 7.526l35.021 80.384 3.584 8.294c1.434 3.277 2.918 5.939 4.506 8.090s3.686 3.84 6.298 5.171c2.56 1.331 5.786 1.997 9.574 1.997 3.84 0 7.066-0.666 9.677-1.997 2.56-1.331 4.659-3.021 6.246-5.12 1.587-2.048 2.918-4.301 4.045-6.656 1.024-2.406 2.458-5.632 4.096-9.626l35.84-79.872c2.816-6.093 4.198-10.496 4.198-13.261 0-2.867-1.331-5.478-3.942-7.885-2.662-2.406-5.837-3.584-9.574-3.584-2.202 0-4.096 0.358-5.632 1.024-1.536 0.717-2.867 1.69-3.942 2.918-1.024 1.178-2.202 3.072-3.379 5.581-1.229 2.458-2.253 4.71-3.123 6.605zM709.222 722.483h40.96l-20.685 51.098-20.275-51.098zM851.507 727.091h-9.728v-39.834c0-5.222-1.28-9.062-3.84-11.52-2.56-2.509-5.888-3.738-9.984-3.738-4.454 0-7.885 1.28-10.291 3.891-2.458 2.56-3.635 6.4-3.635 11.366v95.232c0 5.427 1.331 9.37 3.994 11.776s7.014 3.584 13.005 3.584h45.158c6.195 0 11.571-0.205 15.974-0.666 4.403-0.512 8.397-1.485 11.981-2.918 4.301-1.638 8.090-3.994 11.366-7.014 3.328-3.072 5.837-6.554 7.526-10.598 1.741-4.045 2.56-8.294 2.56-12.8 0-9.216-2.867-16.589-8.602-22.118-5.786-5.53-14.541-9.421-26.214-11.776 4.915-2.304 9.626-5.786 14.080-10.445 4.506-4.608 8.499-9.523 12.032-14.694 3.533-5.222 6.246-9.933 8.192-14.131 1.997-4.198 2.97-7.066 2.97-8.653 0-1.638-0.563-3.226-1.741-4.864-1.126-1.536-2.714-2.867-4.71-3.789s-4.301-1.382-6.912-1.382c-3.072 0-5.734 0.666-7.834 1.997-2.15 1.331-3.942 2.97-5.478 5.018s-3.584 5.018-6.246 8.96l-11.11 16.691c-3.994 6.144-7.526 10.803-10.701 14.029-3.123 3.226-6.349 5.376-9.574 6.605-3.226 1.178-7.322 1.741-12.288 1.741zM867.379 779.059h-25.6v-34.048h24.883c6.656 0 12.288 0.512 16.794 1.587 4.557 1.024 8.038 2.816 10.445 5.325s3.584 5.939 3.584 10.342c0 3.43-0.973 6.451-2.918 9.062-1.894 2.611-4.608 4.608-8.038 5.888-3.226 1.229-9.626 1.843-19.149 1.843zM288 448c-159.078 0-288 128.922-288 288s128.922 288 288 288 288-128.922 288-288-128.922-288-288-288zM288 512c123.699 0 224 100.301 224 224s-100.301 224-224 224-224-100.301-224-224 100.301-224 224-224zM204.902 711.27c0-7.475-2.15-14.234-6.4-20.173-4.25-5.99-10.547-10.65-18.739-14.029s-17.971-5.069-29.286-5.069c-13.517 0-24.678 2.304-33.434 6.912-6.246 3.328-11.264 7.782-15.206 13.312-3.891 5.53-5.837 10.957-5.837 16.179 0 3.072 1.178 5.632 3.482 7.782 2.355 2.202 5.325 3.277 8.96 3.277 2.918 0 5.376-0.87 7.424-2.56s3.738-4.198 5.171-7.475c1.741-3.942 3.635-7.27 5.632-9.882 2.048-2.662 4.915-4.864 8.602-6.554 3.686-1.741 8.499-2.56 14.49-2.56 8.192 0 14.899 1.69 20.019 5.12 5.12 3.533 7.731 7.834 7.731 13.005 0 4.096-1.382 7.424-4.147 9.984s-6.349 4.557-10.752 5.888c-4.403 1.331-10.24 2.765-17.613 4.301-9.882 2.048-18.125 4.506-24.73 7.322-6.656 2.765-11.93 6.554-15.821 11.366s-5.837 10.803-5.837 17.92c0 6.861 2.048 12.902 6.144 18.176 4.096 5.325 10.086 9.37 17.92 12.237 7.731 2.816 16.896 4.25 27.443 4.25 8.397 0 15.667-0.922 21.811-2.816s11.264-4.403 15.309-7.526c4.045-3.123 7.014-6.4 8.858-9.83 1.894-3.43 2.816-6.81 2.816-10.035 0-3.021-1.178-5.683-3.482-8.090-2.355-2.406-5.274-3.584-8.755-3.584-3.174 0-5.632 0.717-7.27 2.15s-3.43 3.789-5.376 7.066c-2.458 4.659-5.478 8.294-8.96 10.906s-9.114 3.942-16.794 3.942c-7.168 0-12.954-1.434-17.408-4.25-4.352-2.867-6.554-6.298-6.554-10.24 0-2.509 0.768-4.608 2.253-6.451 1.536-1.792 3.584-3.328 6.144-4.608 2.662-1.331 5.274-2.355 7.987-3.072 2.662-0.717 7.066-1.792 13.261-3.226 7.68-1.638 14.694-3.43 20.992-5.376 6.246-1.997 11.571-4.352 15.974-7.168s7.834-6.4 10.24-10.701c2.509-4.301 3.738-9.574 3.738-15.872zM316.16 688.128l-6.554 15.514h-55.706l-6.554-15.872c-2.56-6.144-4.762-10.342-6.554-12.544-1.792-2.15-4.762-3.226-8.858-3.226-3.533 0-6.605 1.178-9.267 3.482-2.714 2.304-4.045 4.915-4.045 7.834 0 1.69 0.307 3.43 0.973 5.222 0.614 1.792 1.638 4.301 3.072 7.526l35.021 80.384 3.584 8.294c1.434 3.277 2.918 5.939 4.506 8.090s3.686 3.84 6.298 5.171c2.56 1.331 5.786 1.997 9.574 1.997 3.84 0 7.066-0.666 9.677-1.997 2.56-1.331 4.659-3.021 6.246-5.12 1.587-2.048 2.918-4.301 4.045-6.656 1.024-2.406 2.458-5.632 4.096-9.626l35.84-79.872c2.816-6.093 4.198-10.496 4.198-13.261 0-2.867-1.331-5.478-3.942-7.885-2.662-2.406-5.837-3.584-9.574-3.584-2.202 0-4.096 0.358-5.632 1.024-1.536 0.717-2.867 1.69-3.942 2.918-1.024 1.178-2.202 3.072-3.379 5.581-1.229 2.458-2.253 4.71-3.123 6.605zM261.12 722.483h40.96l-20.685 51.098-20.275-51.098zM403.405 727.091h-9.728v-39.834c0-5.222-1.28-9.062-3.84-11.52-2.56-2.509-5.888-3.738-9.984-3.738-4.454 0-7.885 1.28-10.291 3.891-2.458 2.56-3.635 6.4-3.635 11.366v95.232c0 5.427 1.331 9.37 3.994 11.776s7.014 3.584 13.005 3.584h45.158c6.195 0 11.571-0.205 15.974-0.666 4.403-0.512 8.397-1.485 11.981-2.918 4.301-1.638 8.090-3.994 11.366-7.014 3.328-3.072 5.837-6.554 7.526-10.598 1.741-4.045 2.56-8.294 2.56-12.8 0-9.216-2.867-16.589-8.602-22.118-5.786-5.53-14.541-9.421-26.214-11.776 4.915-2.304 9.626-5.786 14.080-10.445 4.506-4.608 8.499-9.523 12.032-14.694 3.533-5.222 6.246-9.933 8.192-14.131 1.997-4.198 2.97-7.066 2.97-8.653 0-1.638-0.563-3.226-1.741-4.864-1.126-1.536-2.714-2.867-4.71-3.789s-4.301-1.382-6.912-1.382c-3.072 0-5.734 0.666-7.834 1.997-2.15 1.331-3.942 2.97-5.478 5.018s-3.584 5.018-6.246 8.96l-11.11 16.691c-3.994 6.144-7.526 10.803-10.701 14.029-3.123 3.226-6.349 5.376-9.574 6.605-3.226 1.178-7.322 1.741-12.288 1.741zM419.277 779.059h-25.6v-34.048h24.883c6.656 0 12.288 0.512 16.794 1.587 4.557 1.024 8.038 2.816 10.445 5.325s3.584 5.939 3.584 10.342c0 3.43-0.973 6.451-2.918 9.062-1.894 2.611-4.608 4.608-8.038 5.888-3.226 1.229-9.626 1.843-19.149 1.843z" />
<glyph unicode="&#xe912;" glyph-name="next" d="M213.585 222.369l289.559 289.559-289.559 289.703 144.815 144.815 434.446-434.446-434.446-434.446-144.815 144.815z" />
<glyph unicode="&#xe913;" glyph-name="alert-setup" d="M458.105 0c59.284 0 107.789 48.505 107.789 107.789h-215.579c0-59.284 48.505-107.789 107.789-107.789zM841.728 592.842c0 155.756-108.059 286.127-253.629 320.62v34.493c0 41.984-33.954 76.045-76.099 76.045-42.092 0-76.099-33.954-76.099-76.099v-34.493c-145.516-34.439-253.629-164.81-253.629-320.566v-278.959l-101.43-101.538v-50.661h862.316v50.715l-101.43 101.484v278.959z" />
<glyph unicode="&#xe914;" glyph-name="notifications" d="M458.105 0c59.284 0 107.789 48.505 107.789 107.789h-215.579c0-59.284 48.505-107.789 107.789-107.789zM841.728 313.883v278.959c0 155.756-108.059 286.127-253.629 320.62v34.493c0 42.038-33.954 76.045-76.099 76.045-42.092 0-76.099-33.954-76.099-76.099v-34.493c-145.516-34.493-253.629-164.81-253.629-320.566v-278.959l-101.43-101.538v-50.661h862.316v50.715l-101.43 101.484z" />
<glyph unicode="&#xe915;" glyph-name="selector-copy-3" d="M1024 804.571l-512-585.143-512 585.143h1024z" />
<glyph unicode="&#xe916;" glyph-name="shape" d="M104.96 410.266l-72.038 40.243c-31.027 17.306-42.138 56.371-24.73 87.245 5.786 10.291 14.336 18.79 24.678 24.576l82.074 45.824-82.074 45.824c-30.976 17.357-42.086 56.422-24.678 87.296 5.786 10.291 14.336 18.79 24.678 24.576l447.642 249.958c19.558 10.906 43.418 10.906 62.976 0l447.59-249.958c31.027-17.306 42.086-56.371 24.678-87.296-5.786-10.24-14.336-18.79-24.678-24.576l-82.074-45.824 82.074-45.824c31.027-17.306 42.086-56.371 24.678-87.245-5.786-10.342-14.336-18.842-24.678-24.576l-72.038-40.243 72.038-40.243c31.027-17.357 42.086-56.422 24.678-87.296-5.786-10.291-14.336-18.79-24.678-24.576l-447.59-249.958c-19.558-10.906-43.418-10.906-62.976 0l-447.59 249.958c-31.027 17.306-42.138 56.371-24.73 87.296 5.786 10.24 14.336 18.79 24.678 24.576l72.038 40.243zM170.752 373.504l-106.394-59.392 447.642-250.061 447.642 249.958-106.394 59.392-309.76-172.954c-19.558-10.906-43.418-10.906-62.976 0l-309.76 173.005zM787.405 410.266l172.237 96.102-116.429 65.024-299.725-167.373c-19.558-10.906-43.418-10.906-62.976 0l-299.725 167.424-116.429-65.024 447.642-249.958 275.456 153.805zM64.358 709.939l447.642-250.010 447.642 250.010-447.642 249.958-447.642-249.958z" />
<glyph unicode="&#xe917;" glyph-name="power" d="M562.537 1024h-112.58v-562.537h112.52v562.537zM834.199 901.903l-79.872-79.872c88.907-71.439 145.769-181.128 145.769-304.309 0-217.69-176.128-393.758-393.818-393.758s-393.758 176.068-393.758 393.758c0 123.181 56.802 232.87 145.167 304.911l-79.39 79.27c-109.086-92.762-178.296-230.099-178.296-384.181 0-279.552 226.726-506.278 506.278-506.278s506.278 226.726 506.278 506.278c0 154.142-69.21 291.418-178.296 384.181z" />
<glyph unicode="&#xe918;" glyph-name="success" d="M89.657 556.715l-90.112-80.441 318.009-284.046 682.041 609.109-90.112 80.441-591.929-528.668z" />
<glyph unicode="&#xe919;" glyph-name="time" d="M512 1024c-266.779 0-485.053-221.184-485.053-491.574s218.274-491.52 485.053-491.52 485.053 221.13 485.053 491.52c0 270.39-218.274 491.574-485.053 491.574zM715.722 325.955l-252.227 157.319v294.966h72.758v-255.623l218.274-132.743-38.804-63.919z" />
<glyph unicode="&#xe91a;" glyph-name="user-activity-log-default" d="M186.709 521.704v386.487c0 16.823 13.653 30.476 30.476 30.476h401.408c16.189 0 31.695-6.437 43.106-17.847l238.641-238.641c11.41-11.41 17.847-26.917 17.847-43.106v-553.74c0-16.823-13.653-30.476-30.476-30.476h-249.027c3.413 9.509 5.218 19.797 5.218 30.476v30.476h213.333v487.619h-243.81c-16.823 0-30.476 13.653-30.476 30.476v243.81h-335.287v-298.764c-24.478-14.141-45.349-33.792-60.952-57.246zM765.757 481.524c16.823 0 30.476-13.653 30.476-30.476s-13.653-30.476-30.476-30.476h-243.81c0 21.358-3.657 41.886-10.386 60.952h254.196zM339.090 603.429h152.381c16.823 0 30.476-13.653 30.476-30.476s-13.653-30.476-30.476-30.476h-16.091c-33.499 37.4-82.115 60.952-136.29 60.952zM765.757 359.619c16.823 0 30.476-13.653 30.476-30.476s-13.653-30.476-30.476-30.476h-168.472c-23.113 25.844-53.492 45.105-88.162 54.565 0.878 2.097 1.658 4.242 2.438 6.388h254.196zM566.613 237.714h199.144c16.823 0 30.476-13.653 30.476-30.476s-13.653-30.476-30.476-30.476h-121.905c0 21.309-3.657 41.838-10.435 60.952h-66.804zM643.852 852.456v-188.075h188.075l-188.075 188.075zM339.090 725.333h152.381c16.823 0 30.476-13.653 30.476-30.476s-13.653-30.476-30.476-30.476h-152.381c-16.823 0-30.476 13.653-30.476 30.476s13.653 30.476 30.476 30.476zM339.090 176.762c-56.174 0-109.373 19.163-151.893 53.102-18.53-10.533-30.964-30.476-30.964-53.102v-91.429c0-16.823-13.653-30.476-30.476-30.476s-30.476 13.653-30.476 30.476v91.429c0 62.708 47.299 114.347 108.203 121.125 33.451-36.962 81.822-60.172 135.607-60.172s102.156 23.211 135.607 60.172c60.855-6.827 108.203-58.417 108.203-121.125v-91.429c0-16.823-13.653-30.476-30.476-30.476s-30.476 13.653-30.476 30.476v91.429c0 22.626-12.434 42.569-30.964 53.102-42.52-33.938-95.72-53.102-151.893-53.102zM339.090 298.667c-67.291 0-121.905 54.613-121.905 121.905s54.613 121.905 121.905 121.905 121.905-54.613 121.905-121.905-54.613-121.905-121.905-121.905zM339.090 359.619c33.646 0 60.952 27.307 60.952 60.952s-27.307 60.952-60.952 60.952-60.952-27.307-60.952-60.952 27.307-60.952 60.952-60.952z" />
<glyph unicode="&#xe91b;" glyph-name="user-beneficiaries" d="M657.554 267.41c58.856-6.583 105.033-55.052 108.056-114.883l0.146-6.242v-60.952c0-16.823-13.653-30.476-30.476-30.476-15.604 0-28.526 11.752-30.232 26.917l-0.244 3.56v60.952c0 22.626-12.434 42.569-30.964 53.102-42.52-33.938-95.72-53.102-151.893-53.102s-109.373 19.163-151.893 53.102c-17.115-9.752-29.013-27.453-30.72-47.933l-0.244-5.169v-60.952c0-16.823-13.653-30.476-30.476-30.476-15.604 0-28.526 11.752-30.232 26.917l-0.244 3.56v60.952c0 62.708 47.299 114.347 108.203 121.125 33.451-36.962 81.822-60.172 135.607-60.172s102.156 23.211 135.607 60.172zM521.947 512c67.291 0 121.905-54.613 121.905-121.905s-54.613-121.905-121.905-121.905-121.905 54.613-121.905 121.905 54.613 121.905 121.905 121.905zM521.947 451.048c-33.646 0-60.952-27.307-60.952-60.952s27.307-60.952 60.952-60.952 60.952 27.307 60.952 60.952-27.307 60.952-60.952 60.952zM884.395 757.175c51.395-5.705 91.721-47.494 94.549-99.182l0.146-5.803v-52.565c0-14.726-11.947-26.673-26.673-26.673-13.605 0-24.82 10.191-26.429 23.308l-0.244 3.365v52.565c0 19.602-10.825 36.913-27.063 46.031-37.254-29.452-83.773-46.031-132.925-46.031s-95.671 16.579-132.925 46.031c-14.872-8.387-25.21-23.601-26.819-41.204l-0.244-4.827v-52.565c0-14.726-11.947-26.673-26.673-26.673-13.605 0-24.82 10.191-26.478 23.308l-0.195 3.365v52.565c0 54.321 41.448 99.084 94.696 104.984 29.257-32.037 71.582-52.175 118.638-52.175s89.381 20.139 118.638 52.175zM396.776 757.175c51.395-5.705 91.721-47.494 94.549-99.182l0.146-5.803v-52.565c0-14.726-11.947-26.673-26.673-26.673-13.605 0-24.82 10.191-26.429 23.308l-0.244 3.365v52.565c0 19.602-10.825 36.913-27.063 46.031-37.254-29.452-83.773-46.031-132.925-46.031s-95.671 16.579-132.925 46.031c-14.872-8.387-25.21-23.601-26.819-41.204l-0.244-4.827v-52.565c0-14.726-11.947-26.673-26.673-26.673-13.605 0-24.82 10.191-26.478 23.308l-0.195 3.365v52.565c0 54.321 41.448 99.084 94.696 104.984 29.257-32.037 71.582-52.175 118.638-52.175s89.381 20.139 118.638 52.175zM765.757 969.143c58.904 0 106.691-47.299 106.691-105.667 0-58.319-47.787-105.618-106.691-105.618s-106.691 47.299-106.691 105.618c0 58.368 47.787 105.667 106.691 105.667zM278.138 969.143c58.904 0 106.691-47.299 106.691-105.667 0-58.319-47.787-105.618-106.691-105.618s-106.691 47.299-106.691 105.618c0 58.368 47.787 105.667 106.691 105.667zM765.757 916.334c-29.452 0-53.346-23.65-53.346-52.858 0-29.16 23.893-52.809 53.346-52.809s53.346 23.65 53.346 52.809c0 29.208-23.893 52.858-53.346 52.858zM278.138 916.334c-29.452 0-53.346-23.65-53.346-52.858 0-29.16 23.893-52.809 53.346-52.809s53.346 23.65 53.346 52.809c0 29.208-23.893 52.858-53.346 52.858z" />
<glyph unicode="&#xe91c;" glyph-name="user-relatioship-manager" d="M444.221 267.41c58.856-6.583 105.033-55.052 108.056-114.883l0.146-6.242v-60.952c0-16.823-13.653-30.476-30.476-30.476-15.604 0-28.526 11.752-30.232 26.917l-0.244 3.56v60.952c0 22.626-12.434 42.569-30.964 53.102-42.52-33.938-95.72-53.102-151.893-53.102s-109.373 19.163-151.893 53.102c-17.115-9.752-29.013-27.453-30.72-47.933l-0.244-5.169v-60.952c0-16.823-13.653-30.476-30.476-30.476-15.604 0-28.526 11.752-30.232 26.917l-0.244 3.56v60.952c0 62.708 47.299 114.347 108.203 121.125 33.451-36.962 81.822-60.172 135.607-60.172s102.156 23.211 135.607 60.172zM979.090 146.286c16.823 0 30.476-13.653 30.476-30.476s-13.653-30.476-30.476-30.476h-365.714v44.325l-0.195 7.997c-0.146 2.926-0.341 5.803-0.585 8.631h366.494zM735.281 572.952c16.823 0 30.476-13.653 30.476-30.476s-13.653-30.476-30.476-30.476h-30.476v-243.81h30.476c16.823 0 30.476-13.653 30.476-30.476s-13.653-30.476-30.476-30.476h-121.905c-7.558 0-14.482 2.779-19.797 7.314-3.121 6.485-6.583 12.727-10.338 18.773l-0.146 0.829c-0.146 1.17-0.195 2.341-0.195 3.56 0 16.823 13.653 30.476 30.476 30.476h30.476v243.81h-30.476c-16.823 0-30.476 13.653-30.476 30.476s13.653 30.476 30.476 30.476h121.905zM979.090 572.952c16.823 0 30.476-13.653 30.476-30.476s-13.653-30.476-30.476-30.476h-30.476v-243.81h30.476c16.823 0 30.476-13.653 30.476-30.476s-13.653-30.476-30.476-30.476h-121.905c-16.823 0-30.476 13.653-30.476 30.476s13.653 30.476 30.476 30.476h30.476v243.81h-30.476c-16.823 0-30.476 13.653-30.476 30.476s13.653 30.476 30.476 30.476h121.905zM308.614 512c67.291 0 121.905-54.613 121.905-121.905s-54.613-121.905-121.905-121.905-121.905 54.613-121.905 121.905 54.613 121.905 121.905 121.905zM308.614 451.048c-33.646 0-60.952-27.307-60.952-60.952s27.307-60.952 60.952-60.952 60.952 27.307 60.952 60.952-27.307 60.952-60.952 60.952zM491.471 572.952c16.823 0 30.476-13.653 30.476-30.476s-13.653-30.476-30.476-30.476h-30.476v-20.821c-24.966 37.547-63.488 65.39-108.544 76.507 4.876 3.316 10.728 5.266 17.115 5.266h121.905zM979.090 694.857c16.823 0 30.476-13.653 30.476-30.476s-13.653-30.476-30.476-30.476h-609.524c-16.823 0-30.476 13.653-30.476 30.476s13.653 30.476 30.476 30.476h609.524zM692.273 986.6l279.406-203.24c6.827-4.925 8.29-14.482 3.365-21.26-2.926-3.95-7.461-6.29-12.337-6.29h-576.756c-8.436 0-15.262 6.827-15.262 15.262 0 4.876 2.341 9.411 6.339 12.288l279.406 203.24c10.679 7.753 25.112 7.753 35.84 0zM674.328 924.233l-147.797-107.471h295.595l-147.797 107.471z" />
<glyph unicode="&#xe91d;" glyph-name="pos" horiz-adv-x="500" d="M530.754 787.064v94.865c-0.107 28.548-21.208 52.67-49.502 56.586v-146.913h-242.209v147.064c-28.293-3.917-49.395-28.038-49.502-56.586v-94.865c-42.291-2.015-75.577-36.813-75.69-79.13v-627.593c0.083-43.751 35.549-80.408 79.324-80.492h334.249c43.775 0.083 79.24 36.74 79.324 80.492v627.593c-0.202 42.37-33.641 77.123-75.993 78.979zM275.98 104.7h-85.682v85.636h85.682v-85.636zM275.98 218.629h-85.682v85.636h85.682v-85.636zM275.98 332.558h-85.682v86.241h85.682v-86.241zM403.291 104.7h-86.136v85.636h86.136v-85.636zM403.291 218.629h-86.136v85.636h86.136v-85.636zM403.291 332.558h-86.136v86.241h86.136v-86.241zM530.148 104.7h-86.136v85.636h85.682v-85.636h0.454zM530.148 218.629h-86.136v85.636h85.682v-85.636h0.454zM530.148 332.558h-86.136v86.241h85.682v-86.241h0.454zM530.148 485.522h-339.85v199.111h339.396v-198.96l0.454-0.151zM463.843 1024h-207.997v-214.695h207.997v214.695zM278.705 929.135h61.461v-30.26h-61.461v30.26zM373.015 845.466h-94.31v30.26h94.31v-30.26zM393.451 953.191h-115.049v30.26h115.049v-30.26zM440.228 845.466h-30.276v30.26h30.276v-30.26zM440.228 899.329h-30.276v30.26h30.276v-30.26zM440.228 953.191h-30.276v30.26h30.276v-30.26zM626.124 108.936h237.381c16.044 0 29.050 13.006 29.050 29.050v16.946h-266.43v-45.995zM892.554 254.901v344.039c-0.083 16.001-15.675 30.401-35.12 30.469h-231.31v-474.78h266.582c-0.303 52.455-0.353 85.879-0.151 100.272zM731.031 561.173h40.57c5.434 0 9.84-4.403 9.84-9.835v-49.626c0-5.431-4.405-9.835-9.84-9.835h-40.57c-5.434 0-9.84 4.403-9.84 9.835v49.626c0 5.431 4.405 9.835 9.84 9.835z" />
<glyph unicode="&#xe91e;" glyph-name="dashboard" d="M0 455.117h455.117v568.883h-455.117v-568.883zM0 0h455.117v341.35h-455.117v-341.35zM568.883 0h455.117v568.883h-455.117v-568.883zM568.883 682.65h455.117v341.35h-455.117v-341.35z" />
<glyph unicode="&#xe91f;" glyph-name="success1" horiz-adv-x="1434" d="M129.161 541.286l-129.161-119.467 455.885-421.82 977.715 904.533-129.161 119.467-848.555-785.067z" />
<glyph unicode="&#xe920;" glyph-name="info-black-18dp" d="M512 938.667c-235.52 0-426.667-191.147-426.667-426.667s191.147-426.667 426.667-426.667 426.667 191.147 426.667 426.667-191.147 426.667-426.667 426.667zM554.667 298.667h-85.333v256h85.333v-256zM554.667 640h-85.333v85.333h85.333v-85.333z" />
<glyph unicode="&#xe921;" glyph-name="payment-options" d="M972.766 676.075h-98.267l-27.581 208.114c-3.949 27.942-29.609 47.533-57.604 43.976l-744.827-98.711c-13.498-1.81-25.722-8.919-33.968-19.759-8.283-10.768-11.899-24.407-10.042-37.862l62.847-473.968c3.339-25.525 25.098-44.61 50.841-44.591 2.205 0.004 4.406 0.154 6.592 0.444l49.339 6.507v-113.569c0-28.296 22.938-51.234 51.234-51.234h751.436c28.296 0 51.234 22.938 51.234 51.234v478.186c0 28.296-22.938 51.234-51.234 51.234zM840.052 676.075h-133.363l131.057 17.368 2.306-17.368zM34.291 776.442c-0.6 4.457 0.617 8.97 3.381 12.518 2.747 3.653 6.844 6.052 11.374 6.66l744.69 98.677c9.365 1.187 17.955-5.345 19.315-14.687l6.746-50.859-778.761-103.271-6.746 50.961zM170.096 294.67l-53.728-7.087c-9.35-1.242-17.936 5.33-19.179 14.681 0 0.002 0 0.004 0 0.006l-38.101 287.902 111.008 14.67v-310.172zM172.35 639.579l-117.839-15.541-8.966 67.561 778.761 103.288 5.123-39.143 3.791-28.435-386.46-51.234h-225.431c-22.586-0.041-42.482-14.864-48.98-36.496zM989.844 146.654c0-9.431-7.647-17.078-17.078-17.078h-751.436c-9.431 0-17.078 7.647-17.078 17.078v477.674c0 0.171 0.085 0.342 0.085 0.512 0 9.431 7.647 17.078 17.078 17.078h751.35c9.431 0 17.078-7.647 17.078-17.078v-478.186zM749.828 419.508c6.865 5.068 12.935 11.135 18 18 28.079-37.796 81.482-45.673 119.278-17.593s45.673 81.482 17.593 119.278c-16.111 21.685-41.545 34.451-68.558 34.412-26.983-0.075-52.329-12.945-68.312-34.686-28.004 37.945-81.465 46.004-119.412 18-37.945-28.004-46.004-81.465-18-119.412 28.004-37.943 81.467-46.004 119.412-18zM836.141 539.45c28.296 0 51.234-22.938 51.234-51.234s-22.938-51.234-51.234-51.234-51.234 22.938-51.234 51.234 22.938 51.234 51.234 51.234zM699.516 539.45c28.296 0 51.234-22.938 51.234-51.234s-22.938-51.234-51.234-51.234-51.234 22.938-51.234 51.234 22.938 51.234 51.234 51.234zM272.564 556.528h34.156v-34.156h-34.156v34.156zM340.876 556.528h204.937v-34.156h-204.937v34.156zM272.564 488.216h273.249v-34.156h-273.249v34.156zM904.453 334.513h-614.811c-9.431 0-17.078-7.647-17.078-17.078v-102.469c0-9.431 7.647-17.078 17.078-17.078h614.811c9.431 0 17.078 7.647 17.078 17.078v102.469c0 9.431-7.645 17.078-17.078 17.078zM887.375 232.044h-580.655v68.312h580.655v-68.312z" />
<glyph unicode="&#xe922;" glyph-name="cvv" d="M81.558 183.743h860.885c45.027 0.053 81.504 36.54 81.558 81.558v493.637c-0.053 45.027-36.531 81.504-81.558 81.558h-860.885c-45.018-0.053-81.504-36.54-81.558-81.558v-493.637c0.053-45.018 36.54-81.504 81.558-81.558zM942.442 210.929h-860.885c-30.018 0.035-54.336 24.354-54.372 54.372v322.77h969.628v-322.77c-0.035-30.018-24.354-54.336-54.372-54.372zM27.186 615.257v77.743h969.628v-77.743zM81.558 813.31h860.885c30.018-0.035 54.336-24.354 54.372-54.372v-38.743h-969.628v38.743c0.035 30.018 24.354 54.336 54.372 54.372zM851.823 419.239h-679.646c-7.504 0-13.593-6.088-13.593-13.593v-113.274c0-7.513 6.088-13.593 13.593-13.593h679.646c7.504 0 13.593 6.080 13.593 13.593v113.274c0 7.504-6.088 13.593-13.593 13.593zM185.77 392.053h389.186v-86.088h-389.186zM838.23 305.965h-236.088v86.088h236.088zM790.85 324.088c13.77 0 24.92 11.15 24.92 24.92 0 13.761-11.15 24.92-24.92 24.92-13.761 0-24.92-11.159-24.92-24.92 0.018-13.761 11.168-24.912 24.92-24.92zM790.85 351.274c1.257 0 2.265-1.018 2.265-2.265 0-1.257-1.009-2.265-2.265-2.265-1.248 0-2.265 1.009-2.265 2.265 0 1.248 1.018 2.265 2.265 2.265zM718.354 324.088c13.77 0 24.92 11.15 24.92 24.92 0 13.761-11.15 24.92-24.92 24.92-13.761 0-24.92-11.159-24.92-24.92 0.018-13.761 11.168-24.912 24.92-24.92zM718.354 351.274c1.257 0 2.265-1.018 2.265-2.265 0-1.257-1.009-2.265-2.265-2.265-1.248 0-2.265 1.009-2.265 2.265 0 1.248 1.018 2.265 2.265 2.265zM648.124 324.088c13.77 0 24.92 11.15 24.92 24.92 0 13.761-11.15 24.92-24.92 24.92-13.761 0-24.92-11.159-24.92-24.92 0.018-13.761 11.168-24.912 24.92-24.92zM648.124 351.274c1.257 0 2.265-1.018 2.265-2.265 0-1.257-1.009-2.265-2.265-2.265-1.248 0-2.265 1.009-2.265 2.265 0 1.248 1.018 2.265 2.265 2.265z" />
<glyph unicode="&#xe923;" glyph-name="paddlock" d="M783.25 588.523v162.164c0.434 73.375-28.873 143.929-81.191 195.378-50.581 50.364-116.793 77.934-186.912 77.934-1.085 0-2.388 0-3.473 0-149.573-0.217-271.142-122.654-271.142-273.313v-162.164c-56.443-6.73-97.689-54.055-97.689-111.366v-364.272c0-61.87 49.496-112.885 111.366-112.885h515.582c61.87 0 111.366 51.015 111.366 112.885v364.272c-0.217 57.094-41.464 104.636-97.906 111.366zM283.733 750.687h0.217c0 126.779 102.248 230.547 227.941 230.547h0.217c59.699 0.217 117.010-23.445 159.342-65.56 44.069-43.635 68.6-103.116 68.165-164.986v-162.381h-47.759v162.381c0.434 49.279-19.104 96.604-54.055 131.338-32.997 32.997-77.717 51.667-124.391 51.667h-1.303c-99.86 0-180.616-82.059-180.616-182.787v-162.598h-47.759v162.381zM648.656 750.687v-162.381h-273.53v162.381c0 76.849 61.219 139.37 137.199 139.37h1.303c35.168 0 69.034-14.111 93.999-39.076 26.485-26.485 41.464-62.738 41.029-100.294zM839.693 112.234v0c0-37.99-30.826-68.817-68.817-68.817h-515.799c-37.99 0-68.817 30.826-68.817 68.817v363.838c0 37.99 30.826 68.817 68.817 68.817h515.799c37.99 0 68.817-30.826 68.817-68.817v-363.838zM587.004 307.612c-9.552 33.649-40.161 56.66-75.112 56.66-43.2 0-78.368-34.951-78.368-78.368 0-34.951 23.011-65.56 56.66-75.112v-60.784c0-11.94 9.769-21.709 21.709-21.709s21.709 9.769 21.709 21.709v60.784c41.464 11.94 65.56 55.357 53.403 96.821zM511.891 251.17c-19.321 0-34.951 15.63-34.951 34.951s15.63 34.951 34.951 34.951c19.321 0 34.951-15.63 34.951-34.951s-15.63-34.951-34.951-34.951z" />
<glyph unicode="&#xe924;" glyph-name="restore" d="M554.667 896c-212.053 0-384-171.947-384-384h-128l165.973-165.973 2.987-5.973 172.373 171.947h-128c0 165.12 133.547 298.667 298.667 298.667s298.667-133.547 298.667-298.667-133.547-298.667-298.667-298.667c-82.347 0-157.013 33.707-210.773 87.893l-60.587-60.587c69.547-69.547 165.12-112.64 271.36-112.64 212.053 0 384 171.947 384 384s-171.947 384-384 384zM512 682.667v-213.333l182.613-108.373 30.72 51.627-149.333 88.747v181.333h-64z" />
<glyph unicode="&#xe925;" glyph-name="help" d="M512 1024c282.778 0 512-229.222 512-512s-229.222-512-512-512-512 229.222-512 512 229.222 512 512 512zM531.456 331.162c-18.842 0-34.304-5.99-46.387-17.971-12.032-11.981-18.074-27.187-18.074-45.619 0-18.176 5.888-33.178 17.715-45.056 11.776-11.776 27.341-17.715 46.746-17.715 19.354 0 34.918 5.939 46.694 17.766s17.715 26.829 17.715 45.005c0 18.432-6.042 33.638-18.074 45.568-12.083 12.032-27.546 18.022-46.336 18.022zM539.392 819.2c-55.706 0-99.635-14.848-131.891-44.595-29.696-27.443-45.978-64.614-48.691-111.514l-0.41-11.93h115.354c0.512 22.016 6.656 39.27 18.483 51.814 11.776 12.493 27.546 18.79 47.155 18.79 41.37 0 62.054-23.296 62.054-69.786 0-15.411-3.994-30.054-11.93-43.981-7.987-13.926-23.962-31.949-47.923-54.067-24.013-22.17-40.499-44.698-49.562-67.533-7.885-19.968-12.288-45.978-13.312-77.978l-0.205-14.080h101.888l1.536 25.19c2.56 23.552 11.725 44.544 27.443 62.874l7.168 7.68 32.256 31.846c25.19 25.293 42.803 48.333 52.89 69.12s15.104 42.906 15.104 66.304c0 51.456-15.514 91.29-46.541 119.501s-74.65 42.342-130.867 42.342z" />
<glyph unicode="&#xe926;" glyph-name="preferences" d="M893.594 515.174c-0.205 16.23-1.024 32.358-3.379 49.306-2.406 16.896-6.195 32.614-10.496 48.282l94.72 96.87c8.499 8.806 9.114 22.579 1.485 32.717l-125.338 158.208c-7.629 10.138-21.811 12.237-32.307 6.656l-118.426-67.123c-29.082 16.23-59.648 28.774-92.16 36.915l-37.888 129.28c-3.277 11.725-15.104 19.2-27.699 17.459l-201.677-27.955c-12.595-1.792-21.914-12.186-21.709-24.371l-0.41-134.554c-28.979-16.691-54.784-37.53-78.234-60.621l-132.608 32.358c-12.288 2.867-24.73-3.43-29.184-15.206l-76.288-186.214c-5.018-11.827-0.102-24.883 10.547-31.027l118.067-67.328c0.256-16.23 1.024-32.87 3.379-49.306 2.355-16.384 6.195-32.614 10.496-48.282l-94.72-96.87c-8.499-8.806-9.062-22.579-1.485-32.717l125.338-158.208c7.629-10.138 21.811-12.237 32.307-6.656l118.477 67.123c29.030-16.23 59.597-28.774 92.16-36.915l37.888-129.28c3.226-11.725 15.104-19.2 27.648-17.459l201.728 27.955c12.544 1.792 21.862 12.186 21.658 24.371l0.41 134.554c28.979 16.691 54.784 37.53 78.234 60.621l132.608-32.358c12.288-2.867 24.73 3.43 29.184 15.206l76.339 186.214c4.506 11.776 0.051 24.883-10.598 31.027l-118.067 67.328zM512.154 336.077c-98.304 0-178.176 78.899-178.176 175.923 0 96.973 79.872 175.923 178.176 175.923 98.202 0 178.176-78.95 178.176-175.923 0-97.024-79.974-175.923-178.176-175.923z" />
<glyph unicode="&#xe927;" glyph-name="tools" d="M869.268 739.921l-86.501 86.070 114.957 113.287-40.96 39.667-134.252-17.031-78.525-78.147 13.635-160.822-96.687-96.31-187.769 188.039 105.849 104.232-78.525 78.147h-155.864l-243.496-239.023 155.864-155.163 106.981 105.364 187.715-188.039-124.012-122.341-156.995 14.713-78.525-78.147-19.348-131.395 40.96-40.798 113.772 113.287 86.501-84.938-113.772-113.287 40.96-40.798 133.12 17.031 78.471 78.147-13.635 161.954 120.616 118.946 326.548-326.225 108.059 107.628-325.416 325.093 100.136 99.651 156.995-15.845 78.525 78.147 19.348 131.395-40.96 40.798z" />
<glyph unicode="&#xe928;" glyph-name="remove_red_eye_black_24dp" d="M512 832c-213.333 0-395.52-132.693-469.333-320 73.813-187.307 256-320 469.333-320s395.52 132.693 469.333 320c-73.813 187.307-256 320-469.333 320zM512 298.667c-117.76 0-213.333 95.573-213.333 213.333s95.573 213.333 213.333 213.333 213.333-95.573 213.333-213.333-95.573-213.333-213.333-213.333zM512 640c-70.827 0-128-57.173-128-128s57.173-128 128-128 128 57.173 128 128-57.173 128-128 128z" />
<glyph unicode="&#xe929;" glyph-name="content_copy_black_24dp" d="M682.667 981.333h-512c-46.933 0-85.333-38.4-85.333-85.333v-597.333h85.333v597.333h512v85.333zM810.667 810.667h-469.333c-46.933 0-85.333-38.4-85.333-85.333v-597.333c0-46.933 38.4-85.333 85.333-85.333h469.333c46.933 0 85.333 38.4 85.333 85.333v597.333c0 46.933-38.4 85.333-85.333 85.333zM810.667 128h-469.333v597.333h469.333v-597.333z" />
<glyph unicode="&#xea01;" glyph-name="help1" horiz-adv-x="500" d="M455.314 914.286c-252.343 0-457.143-204.8-457.143-457.143s204.8-457.143 457.143-457.143 457.143 204.8 457.143 457.143-204.8 457.143-457.143 457.143zM501.029 137.143h-91.429v91.429h91.429v-91.429zM595.657 491.429l-41.143-42.057c-32.914-33.371-53.486-60.8-53.486-129.371h-91.429v22.857c0 50.286 20.571 96 53.486 129.371l56.686 57.6c16.914 16.457 26.971 39.314 26.971 64.457 0 50.286-41.143 91.429-91.429 91.429s-91.429-41.143-91.429-91.429h-91.429c0 101.029 81.829 182.857 182.857 182.857s182.857-81.829 182.857-182.857c0-40.229-16.457-76.8-42.514-102.857z" />
<glyph unicode="&#xea02;" glyph-name="note-add" horiz-adv-x="500" d="M548.571 914.286h-365.714c-50.286 0-90.88-41.143-90.88-91.429l-0.549-731.429c0-50.286 40.594-91.429 91.063-91.429h548.937c50.286 0 91.429 41.143 91.429 91.429v548.571l-274.286 274.286zM502.857 594.286v251.429l251.429-251.429h-251.429z" />
<glyph unicode="&#xea03;" glyph-name="info" horiz-adv-x="500" d="M457.143 914.286c251.794 0 457.143-205.349 457.143-457.143s-205.349-457.143-457.143-457.143-457.143 205.349-457.143 457.143 205.349 457.143 457.143 457.143zM457.143 66.194c215.954 0 390.949 174.811 390.949 390.949s-174.994 390.949-390.949 390.949-390.949-174.994-390.949-390.949 174.994-390.949 390.949-390.949zM417.463 202.789h79.36v371.017h-79.36zM417.463 620.069h79.36v92.891h-79.36z" />
<glyph unicode="&#xea04;" glyph-name="time1" horiz-adv-x="500" d="M457.143 914.286c-251.429 0-457.143-205.714-457.143-457.143s205.714-457.143 457.143-457.143 457.143 205.714 457.143 457.143-205.714 457.143-457.143 457.143zM649.143 265.143l-237.714 146.286v274.286h68.571v-237.714l205.714-123.429c0 0-36.571-59.429-36.571-59.429z" />
</font>
</defs>
</svg>
