<svg width="25" height="24" viewBox="0 0 25 24" fill="none" xmlns="http://www.w3.org/2000/svg">
<path d="M23.7992 14.7066C20.3678 16.094 16.7005 16.8051 12.9992 16.8006C9.17962 16.8006 5.53522 16.0566 2.19922 14.7066M12.9992 13.2006H13.0112M17.7992 6.00056V3.60056C17.7992 2.96404 17.5464 2.35359 17.0963 1.90351C16.6462 1.45342 16.0357 1.20056 15.3992 1.20056H10.5992C9.9627 1.20056 9.35225 1.45342 8.90216 1.90351C8.45208 2.35359 8.19922 2.96404 8.19922 3.60056V6.00056H17.7992ZM4.59922 22.8006H21.3992C22.0357 22.8006 22.6462 22.5477 23.0963 22.0976C23.5464 21.6475 23.7992 21.0371 23.7992 20.4006V8.40056C23.7992 7.76404 23.5464 7.15359 23.0963 6.70351C22.6462 6.25342 22.0357 6.00056 21.3992 6.00056H4.59922C3.9627 6.00056 3.35225 6.25342 2.90216 6.70351C2.45208 7.15359 2.19922 7.76404 2.19922 8.40056V20.4006C2.19922 21.0371 2.45208 21.6475 2.90216 22.0976C3.35225 22.5477 3.9627 22.8006 4.59922 22.8006Z" stroke="#474B52" stroke-width="2.4" stroke-linecap="round" stroke-linejoin="round"/>
</svg>
