<svg width="12" height="13" viewBox="0 0 12 13" fill="none" xmlns="http://www.w3.org/2000/svg">
<path fill-rule="evenodd" clip-rule="evenodd" d="M0.585787 1.4979C1.36683 0.716847 2.63317 0.716847 3.41421 1.4979L6 4.08368L8.58579 1.4979C9.36684 0.716847 10.6332 0.716847 11.4142 1.4979C12.1953 2.27894 12.1953 3.54527 11.4142 4.32632L8.82843 6.91211L11.4142 9.4979C12.1953 10.2789 12.1953 11.5453 11.4142 12.3263C10.6332 13.1074 9.36684 13.1074 8.58579 12.3263L6 9.74054L3.41421 12.3263C2.63317 13.1074 1.36683 13.1074 0.585787 12.3263C-0.195262 11.5453 -0.195262 10.2789 0.585787 9.4979L3.17157 6.91211L0.585787 4.32632C-0.195262 3.54527 -0.195262 2.27894 0.585787 1.4979Z" fill="#EF4444"/>
</svg>
