<svg width="17" height="17" viewBox="0 0 17 17" fill="none" xmlns="http://www.w3.org/2000/svg">
<path fill-rule="evenodd" clip-rule="evenodd" d="M0.834735 0.374774C1.28105 -0.0715393 2.00467 -0.0715393 2.45098 0.374774L8.5 6.4238L14.549 0.374774C14.9953 -0.0715393 15.719 -0.0715393 16.1653 0.374774C16.6116 0.821088 16.6116 1.5447 16.1653 1.99102L10.1162 8.04004L16.1653 14.0891C16.6116 14.5354 16.6116 15.259 16.1653 15.7053C15.719 16.1516 14.9953 16.1516 14.549 15.7053L8.5 9.65628L2.45098 15.7053C2.00467 16.1516 1.28105 16.1516 0.834735 15.7053C0.388422 15.259 0.388422 14.5354 0.834735 14.0891L6.88376 8.04004L0.834735 1.99102C0.388422 1.5447 0.388422 0.821088 0.834735 0.374774Z" fill="#221AFB"/>
</svg>
