<svg width="33" height="28" viewBox="0 0 33 28" fill="none" xmlns="http://www.w3.org/2000/svg">
<path d="M13.9739 3.5V2.75H13.2239H9.81592C9.67785 2.75 9.56592 2.63807 9.56592 2.5V1C9.56592 0.861928 9.67785 0.75 9.81592 0.75H19.5705C19.7086 0.75 19.8205 0.861929 19.8205 1V2.5C19.8205 2.63807 19.7086 2.75 19.5705 2.75H16.1625H15.4125V3.5V7V7.75H16.1625H23.9784C24.1165 7.75 24.2284 7.86193 24.2284 8V14V14.75H24.9784H27.9171H28.6671V14V9.75C28.6671 9.61193 28.779 9.5 28.9171 9.5H31.3251C31.4631 9.5 31.5751 9.61193 31.5751 9.75V25.25C31.5751 25.3881 31.4631 25.5 31.3251 25.5H28.9171C28.779 25.5 28.6671 25.3881 28.6671 25.25V21V20.25H27.9171H24.9784H24.2284V21V27C24.2284 27.1381 24.1165 27.25 23.9785 27.25H13.69C13.6161 27.25 13.546 27.2173 13.4985 27.1608L11.1594 24.3747C10.8269 23.9787 10.3362 23.75 9.81912 23.75H6.87728C6.73921 23.75 6.62728 23.6381 6.62728 23.5V19.25V18.5H5.87728H2.93864H2.18864V19.25V23.5C2.18864 23.6381 2.07671 23.75 1.93864 23.75H1C0.861929 23.75 0.75 23.6381 0.75 23.5V11.5C0.75 11.3619 0.861929 11.25 0.999999 11.25H1.93864C2.07671 11.25 2.18864 11.3619 2.18864 11.5V15.75V16.5H2.93864H5.87728H6.62728V15.75V10.8641C6.62728 10.8053 6.64801 10.7484 6.68582 10.7034L9.09058 7.83925C9.13809 7.78267 9.20818 7.75 9.28205 7.75H13.2239H13.9739V7V3.5Z" stroke="#221AFB" stroke-width="1.5"/>
</svg>
