<svg width="18" height="21" viewBox="0 0 18 21" fill="none" xmlns="http://www.w3.org/2000/svg">
<path fill-rule="evenodd" clip-rule="evenodd" d="M5.58579 1.18735C5.96086 0.812276 6.46957 0.601562 7 0.601562H11C11.5304 0.601562 12.0391 0.812276 12.4142 1.18735C12.7893 1.56242 13 2.07113 13 2.60156V4.60156H17C17.5523 4.60156 18 5.04928 18 5.60156C18 6.15385 17.5523 6.60156 17 6.60156H16.9311L16.1305 17.8146C16.1305 17.8146 16.1305 17.8145 16.1305 17.8146C16.0765 18.5714 15.7379 19.2798 15.1826 19.7969C14.6274 20.3141 13.8968 20.6016 13.138 20.6016H4.86202C4.10323 20.6016 3.37262 20.3141 2.81735 19.7969C2.26213 19.2798 1.92347 18.5716 1.86954 17.8148C1.86953 17.8147 1.86955 17.8149 1.86954 17.8148L1.06886 6.60156H1C0.447715 6.60156 0 6.15385 0 5.60156C0 5.04928 0.447715 4.60156 1 4.60156H5V2.60156C5 2.07113 5.21071 1.56242 5.58579 1.18735ZM7 4.60156H11V2.60156H7V4.60156ZM3.07395 6.60156L3.86446 17.6723C3.88242 17.9246 3.99533 18.161 4.18042 18.3333C4.36551 18.5057 4.60905 18.6016 4.862 18.6016H13.138C13.391 18.6016 13.6345 18.5057 13.8196 18.3333C14.0047 18.161 14.1176 17.9249 14.1355 17.6726L14.926 6.60156H3.07395ZM7 8.60156C7.55228 8.60156 8 9.04928 8 9.60156V15.6016C8 16.1538 7.55228 16.6016 7 16.6016C6.44772 16.6016 6 16.1538 6 15.6016V9.60156C6 9.04928 6.44772 8.60156 7 8.60156ZM11 8.60156C11.5523 8.60156 12 9.04928 12 9.60156V15.6016C12 16.1538 11.5523 16.6016 11 16.6016C10.4477 16.6016 10 16.1538 10 15.6016V9.60156C10 9.04928 10.4477 8.60156 11 8.60156Z" fill="#EF4444"/>
</svg>
