<svg width="15" height="20" viewBox="0 0 15 20" fill="none" xmlns="http://www.w3.org/2000/svg">
<path fill-rule="evenodd" clip-rule="evenodd" d="M0 2.8C0 1.39559 1.01214 0 2.55556 0H9.39445C9.98672 0 10.5657 0.175314 11.0585 0.503849L13.6641 3.57422C14.4987 4.13061 15 5.06731 15 6.07037V17.2C15 18.6044 13.9879 20 12.4444 20H2.55556C1.01214 20 0 18.6044 0 17.2V2.8ZM2.55556 2C2.38075 2 2 2.21619 2 2.8V17.2C2 17.7838 2.38075 18 2.55556 18H12.4444C12.6193 18 13 17.7838 13 17.2V6.07037C13 5.73601 12.8329 5.42378 12.5547 5.23832L9.94915 2.16795C9.78488 2.05844 9.59188 2 9.39445 2H2.55556Z" fill="#1B254A"/>
</svg>
