<svg width="24" height="24" viewBox="0 0 24 24" fill="none" xmlns="http://www.w3.org/2000/svg">
<path fill-rule="evenodd" clip-rule="evenodd" d="M0 1.20049C0 0.537747 0.537258 0.000488281 1.2 0.000488281H3.6C4.17202 0.000488281 4.66452 0.40424 4.7767 0.965149L5.06376 2.40049H22.8C23.2159 2.40049 23.6021 2.61583 23.8208 2.96961C24.0394 3.32339 24.0593 3.76516 23.8733 4.13715L19.0733 13.7371C18.87 14.1437 18.4545 14.4005 18 14.4005H6.49706L4.09706 16.8005H18C18.9548 16.8005 19.8705 17.1798 20.5456 17.8549C21.2207 18.53 21.6 19.4457 21.6 20.4005C21.6 21.3553 21.2207 22.2709 20.5456 22.9461C19.8705 23.6212 18.9548 24.0005 18 24.0005C17.0452 24.0005 16.1295 23.6212 15.4544 22.9461C14.7793 22.2709 14.4 21.3553 14.4 20.4005C14.4 19.9878 14.4709 19.5823 14.6059 19.2005H9.39411C9.52912 19.5823 9.6 19.9878 9.6 20.4005C9.6 21.3553 9.22071 22.2709 8.54558 22.9461C7.87045 23.6212 6.95478 24.0005 6 24.0005C5.04522 24.0005 4.12955 23.6212 3.45442 22.9461C2.77928 22.2709 2.4 21.3553 2.4 20.4005C2.4 19.8436 2.52904 19.3 2.77056 18.8097C1.59487 18.0295 1.2483 16.2551 2.39987 15.1036L4.69735 12.8061L2.61624 2.40049H1.2C0.537258 2.40049 0 1.86323 0 1.20049ZM6.98376 12.0005H17.2584L20.8584 4.80049H5.54376L6.98376 12.0005ZM6 19.2005C5.68174 19.2005 5.37652 19.3269 5.15147 19.552C4.92643 19.777 4.8 20.0822 4.8 20.4005C4.8 20.7188 4.92643 21.024 5.15147 21.249C5.37652 21.4741 5.68174 21.6005 6 21.6005C6.31826 21.6005 6.62348 21.4741 6.84853 21.249C7.07357 21.024 7.2 20.7187 7.2 20.4005C7.2 20.0822 7.07357 19.777 6.84853 19.552C6.62348 19.3269 6.31826 19.2005 6 19.2005ZM18 19.2005C17.6817 19.2005 17.3765 19.3269 17.1515 19.552C16.9264 19.777 16.8 20.0822 16.8 20.4005C16.8 20.7187 16.9264 21.024 17.1515 21.249C17.3765 21.4741 17.6817 21.6005 18 21.6005C18.3183 21.6005 18.6235 21.4741 18.8485 21.249C19.0736 21.024 19.2 20.7187 19.2 20.4005C19.2 20.0822 19.0736 19.777 18.8485 19.552C18.6235 19.3269 18.3183 19.2005 18 19.2005Z" fill="#474B52"/>
</svg>
