<svg width="21" height="21" viewBox="0 0 21 21" fill="none" xmlns="http://www.w3.org/2000/svg">
<path fill-rule="evenodd" clip-rule="evenodd" d="M17 2.53641C16.6021 2.53641 16.2205 2.6942 15.9391 2.97505L15.1462 3.76651L17.268 5.88445L18.0609 5.09299C18.3423 4.81214 18.5003 4.43121 18.5003 4.03402C18.5003 3.63683 18.3423 3.25591 18.0609 2.97505C17.7795 2.6942 17.3979 2.53641 17 2.53641ZM15.8538 7.2961L13.732 5.17816L2.5 16.3898V18.5437H4.58579L15.8538 7.2961ZM13.0249 3.06068L14.5249 1.5634C15.1813 0.908154 16.0717 0.540039 17 0.540039C17.9283 0.540039 18.8187 0.908154 19.4751 1.5634C20.1315 2.21865 20.5003 3.10736 20.5003 4.03402C20.5003 4.96068 20.1315 5.84939 19.4751 6.50464L5.70711 20.2477C5.51957 20.4349 5.26522 20.54 5 20.54H1.5C0.947715 20.54 0.5 20.0931 0.5 19.5419V15.9763C0.5 15.7116 0.605357 15.4577 0.792893 15.2705L13.0249 3.06068Z" fill="#221AFB"/>
</svg>
