<svg width="24" height="24" viewBox="0 0 24 24" fill="none" xmlns="http://www.w3.org/2000/svg">
<path fill-rule="evenodd" clip-rule="evenodd" d="M3.45442 1.05493C4.12955 0.379803 5.04522 0.000518799 6 0.000518799H18C18.9548 0.000518799 19.8705 0.379803 20.5456 1.05493C21.2207 1.73006 21.6 2.64574 21.6 3.60052V21.6005H22.8C23.4627 21.6005 24 22.1378 24 22.8005C24 23.4633 23.4627 24.0005 22.8 24.0005H1.2C0.537258 24.0005 0 23.4633 0 22.8005C0 22.1378 0.537258 21.6005 1.2 21.6005H2.4V3.60052C2.4 2.64574 2.77928 1.73007 3.45442 1.05493ZM4.8 21.6005H8.4V16.8005C8.4 16.164 8.65286 15.5536 9.10294 15.1035C9.55303 14.6534 10.1635 14.4005 10.8 14.4005H13.2C13.8365 14.4005 14.447 14.6534 14.8971 15.1035C15.3471 15.5536 15.6 16.164 15.6 16.8005V21.6005H19.2V3.60052C19.2 3.28226 19.0736 2.97703 18.8485 2.75199C18.6235 2.52695 18.3183 2.40052 18 2.40052H6C5.68174 2.40052 5.37652 2.52695 5.15147 2.75199C4.92643 2.97703 4.8 3.28226 4.8 3.60052V21.6005ZM10.8 21.6005H13.2V16.8005H10.8V21.6005ZM7.2 6.00052C7.2 5.33778 7.73726 4.80052 8.4 4.80052H9.6C10.2627 4.80052 10.8 5.33778 10.8 6.00052C10.8 6.66326 10.2627 7.20052 9.6 7.20052H8.4C7.73726 7.20052 7.2 6.66326 7.2 6.00052ZM13.2 6.00052C13.2 5.33778 13.7373 4.80052 14.4 4.80052H15.6C16.2627 4.80052 16.8 5.33778 16.8 6.00052C16.8 6.66326 16.2627 7.20052 15.6 7.20052H14.4C13.7373 7.20052 13.2 6.66326 13.2 6.00052ZM7.2 10.8005C7.2 10.1378 7.73726 9.60052 8.4 9.60052H9.6C10.2627 9.60052 10.8 10.1378 10.8 10.8005C10.8 11.4633 10.2627 12.0005 9.6 12.0005H8.4C7.73726 12.0005 7.2 11.4633 7.2 10.8005ZM13.2 10.8005C13.2 10.1378 13.7373 9.60052 14.4 9.60052H15.6C16.2627 9.60052 16.8 10.1378 16.8 10.8005C16.8 11.4633 16.2627 12.0005 15.6 12.0005H14.4C13.7373 12.0005 13.2 11.4633 13.2 10.8005Z" fill="#474B52"/>
</svg>
