<svg width="24" height="20" viewBox="0 0 24 20" fill="none" xmlns="http://www.w3.org/2000/svg">
<path d="M7.2 12.3996C7.2 13.0623 6.66274 13.5996 6 13.5996C5.33726 13.5996 4.8 13.0623 4.8 12.3996C4.8 11.7369 5.33726 11.1996 6 11.1996C6.66274 11.1996 7.2 11.7369 7.2 12.3996Z" fill="#474B52"/>
<path d="M18 13.5996C18.6627 13.5996 19.2 13.0623 19.2 12.3996C19.2 11.7369 18.6627 11.1996 18 11.1996C17.3373 11.1996 16.8 11.7369 16.8 12.3996C16.8 13.0623 17.3373 13.5996 18 13.5996Z" fill="#474B52"/>
<path fill-rule="evenodd" clip-rule="evenodd" d="M3.9 7.5996L4.66861 1.45075C4.74367 0.85024 5.25415 0.399597 5.85934 0.399597H18.1407C18.7459 0.399597 19.2563 0.850241 19.3314 1.45076L20.1 7.5996H21.6C22.9255 7.5996 24 8.67411 24 9.9996V14.7996C24 16.1251 22.9255 17.1996 21.6 17.1996H20.4V18.3996C20.4 19.0623 19.8627 19.5996 19.2 19.5996C18.5373 19.5996 18 19.0623 18 18.3996V17.1996H6V18.3996C6 19.0623 5.46274 19.5996 4.8 19.5996C4.13726 19.5996 3.6 19.0623 3.6 18.3996V17.1996H2.4C1.07452 17.1996 0 16.1251 0 14.7996V9.9996C0 8.67411 1.07452 7.5996 2.4 7.5996H3.9ZM6.85298 3.32518C6.89051 3.02492 7.14576 2.7996 7.44835 2.7996H16.5517C16.8542 2.7996 17.1095 3.02492 17.147 3.32518L17.597 6.92518C17.6418 7.28329 17.3626 7.5996 17.0017 7.5996H6.99835C6.63745 7.5996 6.35822 7.28329 6.40298 6.92518L6.85298 3.32518ZM21 14.7996C21.3314 14.7996 21.6 14.531 21.6 14.1996V10.5996C21.6 10.2682 21.3314 9.9996 21 9.9996H3C2.66863 9.9996 2.4 10.2682 2.4 10.5996V14.1996C2.4 14.531 2.66863 14.7996 3 14.7996H21Z" fill="#474B52"/>
</svg>
