<svg width="28" height="28" viewBox="0 0 28 28" fill="none" xmlns="http://www.w3.org/2000/svg">
<path fill-rule="evenodd" clip-rule="evenodd" d="M0 25.8462C0 26.4174 0.226921 26.9653 0.630845 27.3691C1.03477 27.7731 1.58261 28 2.15385 28H15.0769C15.6482 28 16.196 27.7731 16.5999 27.3691C17.0038 26.9653 17.2308 26.4174 17.2308 25.8462V17.2308H20.4615C20.7472 17.2308 21.0211 17.3442 21.223 17.5461C21.425 17.7482 21.5385 18.022 21.5385 18.3077V22.6154C21.5385 23.4722 21.8788 24.294 22.4847 24.8999C23.0906 25.5058 23.9124 25.8462 24.7692 25.8462C25.6261 25.8462 26.4478 25.5058 27.0537 24.8999C27.6596 24.294 28 23.4722 28 22.6154V8.61539C28 8.32972 27.9433 8.04997 27.8361 7.79113C27.7288 7.53228 27.5711 7.29434 27.3692 7.09242C27.2745 6.99777 27.1719 6.91271 27.063 6.83817L27.0428 6.8245C27.0036 6.79834 26.9637 6.77349 26.9231 6.75009C26.5984 6.56263 26.2275 6.46154 25.8462 6.46154V3.20921L25.8455 3.18791L25.8446 3.16885C25.8292 2.90186 25.7149 2.64945 25.5232 2.46159C25.3219 2.26427 25.0512 2.15385 24.7692 2.15385C24.6193 2.15634 24.4714 2.18947 24.3347 2.25126C24.198 2.31318 24.0755 2.40231 23.9746 2.51326C23.8737 2.62421 23.7966 2.75475 23.748 2.8966C23.7135 2.99769 23.6939 3.10299 23.6898 3.20921L23.6891 3.23077L23.6889 3.25233C23.6889 3.27047 23.6894 3.28848 23.6903 3.30649C23.6908 3.31714 23.6915 3.32779 23.6923 3.33844V8.61539C23.6923 8.99425 23.7922 9.36563 23.9809 9.69231C24.0043 9.73293 24.0291 9.77289 24.0553 9.81194C24.2395 10.0877 24.4842 10.3161 24.7692 10.4807C24.8503 10.5275 24.9347 10.5691 25.0219 10.6053C25.2838 10.7138 25.5633 10.769 25.8441 10.7692L25.8462 22.6154C25.8462 22.901 25.7327 23.1749 25.5307 23.3769C25.3288 23.5789 25.0548 23.6923 24.7692 23.6923C24.4836 23.6923 24.2097 23.5789 24.0077 23.3769C23.8058 23.1749 23.6923 22.901 23.6923 22.6154V18.3077C23.6923 17.4508 23.3519 16.6291 22.746 16.0232C22.7035 15.9807 22.66 15.9394 22.6154 15.8996C22.0247 15.3713 21.2583 15.0769 20.4615 15.0769H17.2308V2.15385C17.2308 1.58265 17.0038 1.03472 16.5999 0.630878C16.196 0.226901 15.6482 0 15.0769 0H2.15385C1.58261 0 1.03477 0.226901 0.630845 0.630878C0.226921 1.03472 0 1.58265 0 2.15385V25.8462ZM2.46927 4.62307C2.67123 4.42114 2.94515 4.30769 3.23077 4.30769H14C14.2856 4.30769 14.5595 4.42114 14.7615 4.62307C14.9635 4.82512 15.0769 5.09895 15.0769 5.38462V11.8462C15.0769 12.1318 14.9635 12.4057 14.7615 12.6077C14.5595 12.8096 14.2856 12.9231 14 12.9231H3.23077C2.94515 12.9231 2.67123 12.8096 2.46927 12.6077C2.26731 12.4057 2.15385 12.1318 2.15385 11.8462V5.38462C2.15385 5.09895 2.26731 4.82512 2.46927 4.62307Z" fill="#221AFB"/>
</svg>
