<svg width="25" height="28" viewBox="0 0 25 28" fill="none" xmlns="http://www.w3.org/2000/svg">
<path fill-rule="evenodd" clip-rule="evenodd" d="M23.8524 1.5547C24.2955 0.890147 23.8191 0 23.0204 0H12.4444C9.85398 0.00109185 7.35072 0.935859 5.3936 2.63298C3.43651 4.33009 2.15671 6.67577 1.78888 9.24L0.11099 20.9999C0.0458487 21.4564 0.301379 21.8983 0.729573 22.0696L14.01 27.3818C14.7104 27.662 15.4571 27.0951 15.3755 26.3451L14.0326 14.0039L14.0321 13.9995L14 13.7044C13.8756 12.8644 15.0111 12.5067 15.4156 13.2222L19.8177 21.0577C20.0525 21.4757 20.5509 21.6682 21.0057 21.5166L24.2051 20.4501C24.6135 20.314 24.8889 19.9319 24.8889 19.5015V7.77778C24.8889 6.3155 24.2119 5.02247 23.1546 4.16902C22.9297 3.98749 22.6876 3.8258 22.4311 3.68666L23.8524 1.5547ZM12.4454 2.33333H20.529L19.072 4.51884L21.3184 5.73758C22.0751 6.14817 22.5556 6.91203 22.5556 7.77778V18.5404L21.3126 18.9548L17.4498 12.0793L17.4469 12.0741C16.6075 10.5891 14.9733 10.2707 13.7797 10.6637C12.5668 11.0631 11.463 12.3062 11.6839 13.9896L12.323 19.8625L3.17565 16.0398L4.09857 9.57131C4.38687 7.56297 5.38942 5.72505 6.92226 4.39584C8.45508 3.06663 10.4166 2.33443 12.4454 2.33333Z" fill="#221AFB"/>
</svg>
