<svg width="20" height="21" viewBox="0 0 20 21" fill="none" xmlns="http://www.w3.org/2000/svg">
<path fill-rule="evenodd" clip-rule="evenodd" d="M10 2.60156C7.87827 2.60156 5.84344 3.44442 4.34315 4.94471C2.84285 6.445 2 8.47983 2 10.6016C2 11.6521 2.20693 12.6924 2.60896 13.663C3.011 14.6336 3.60028 15.5155 4.34315 16.2584C5.08601 17.0013 5.96793 17.5906 6.93853 17.9926C7.90914 18.3946 8.94942 18.6016 10 18.6016C11.0506 18.6016 12.0909 18.3946 13.0615 17.9926C14.0321 17.5906 14.914 17.0013 15.6569 16.2584C16.3997 15.5155 16.989 14.6336 17.391 13.663C17.7931 12.6924 18 11.6521 18 10.6016C18 8.47983 17.1571 6.445 15.6569 4.94471C14.1566 3.44442 12.1217 2.60156 10 2.60156ZM2.92893 3.53049C4.8043 1.65513 7.34784 0.601562 10 0.601562C12.6522 0.601562 15.1957 1.65513 17.0711 3.53049C18.9464 5.40586 20 7.9494 20 10.6016C20 11.9148 19.7413 13.2151 19.2388 14.4284C18.7362 15.6417 17.9997 16.744 17.0711 17.6726C16.1425 18.6012 15.0401 19.3378 13.8268 19.8404C12.6136 20.3429 11.3132 20.6016 10 20.6016C8.68678 20.6016 7.38642 20.3429 6.17317 19.8404C4.95991 19.3378 3.85752 18.6012 2.92893 17.6726C2.00035 16.744 1.26375 15.6417 0.761205 14.4284C0.258658 13.2151 0 11.9148 0 10.6016C5.96046e-08 7.9494 1.05357 5.40586 2.92893 3.53049ZM9 6.60156C9 6.04928 9.44771 5.60156 10 5.60156H10.01C10.5623 5.60156 11.01 6.04928 11.01 6.60156C11.01 7.15385 10.5623 7.60156 10.01 7.60156H10C9.44771 7.60156 9 7.15385 9 6.60156ZM8 10.6016C8 10.0493 8.44772 9.60156 9 9.60156H10C10.5523 9.60156 11 10.0493 11 10.6016V13.6016C11.5523 13.6016 12 14.0493 12 14.6016C12 15.1538 11.5523 15.6016 11 15.6016H10C9.44771 15.6016 9 15.1538 9 14.6016V11.6016C8.44772 11.6016 8 11.1538 8 10.6016Z" fill="#1B254A"/>
</svg>
