<svg width="24" height="24" viewBox="0 0 24 24" fill="none" xmlns="http://www.w3.org/2000/svg">
<path d="M13.2001 0.000610352C14.1549 0.000610352 15.0705 0.379895 15.7457 1.05503C16.4208 1.73016 16.8001 2.64583 16.8001 3.60061V7.20061H14.4001V3.60061C14.4001 3.28235 14.2736 2.97713 14.0486 2.75208C13.8236 2.52704 13.5183 2.40061 13.2001 2.40061H3.60007C3.28181 2.40061 2.97659 2.52704 2.75155 2.75208C2.5265 2.97713 2.40007 3.28235 2.40007 3.60061V20.4006C2.40007 20.7189 2.5265 21.0241 2.75155 21.2491C2.97659 21.4742 3.28182 21.6006 3.60007 21.6006H16.5942C16.4169 22.1021 16.1289 22.5629 15.7457 22.9462C15.0705 23.6213 14.1549 24.0006 13.2001 24.0006H3.60007C2.64529 24.0006 1.72962 23.6213 1.05449 22.9462C0.37936 22.2711 7.43866e-05 21.3554 7.43866e-05 20.4006V3.60061C7.43866e-05 2.64583 0.37936 1.73016 1.05449 1.05503C1.72962 0.379895 2.6453 0.000610352 3.60007 0.000610352H13.2001Z" fill="#474B52"/>
<path d="M7.20007 18.0006C7.20007 18.6634 6.66282 19.2006 6.00007 19.2006C5.33733 19.2006 4.80007 18.6634 4.80007 18.0006C4.80007 17.3379 5.33733 16.8006 6.00007 16.8006C6.66282 16.8006 7.20007 17.3379 7.20007 18.0006Z" fill="#474B52"/>
<path d="M10.8001 7.20061H7.20007V12.0006H6.00007C5.33733 12.0006 4.80007 11.4634 4.80007 10.8006V6.00061C4.80007 5.33787 5.33733 4.80061 6.00007 4.80061H10.8001C11.4628 4.80061 12.0001 5.33787 12.0001 6.00061C12.0001 6.66335 11.4628 7.20061 10.8001 7.20061Z" fill="#474B52"/>
<path d="M7.20007 14.4006C7.20007 15.0634 6.66282 15.6006 6.00007 15.6006C5.33733 15.6006 4.80007 15.0634 4.80007 14.4006C4.80007 13.7379 5.33733 13.2006 6.00007 13.2006C6.66282 13.2006 7.20007 13.7379 7.20007 14.4006Z" fill="#474B52"/>
<path fill-rule="evenodd" clip-rule="evenodd" d="M24.0001 9.60061C24.0001 8.93787 23.4628 8.40061 22.8001 8.40061H9.60007C8.93733 8.40061 8.40007 8.93787 8.40007 9.60061V19.2006C8.40007 19.8634 8.93733 20.4006 9.60007 20.4006H22.8001C23.4628 20.4006 24.0001 19.8634 24.0001 19.2006V9.60061ZM21.6001 10.8006V12.0006H10.8001V10.8006H21.6001ZM10.8001 14.4006H21.6001V18.0006H10.8001V14.4006Z" fill="#474B52"/>
</svg>
