<svg width="20" height="16" viewBox="0 0 20 16" fill="none" xmlns="http://www.w3.org/2000/svg">
<path fill-rule="evenodd" clip-rule="evenodd" d="M10 4C8.93913 4 7.92172 4.42143 7.17157 5.17157C6.42143 5.92172 6 6.93913 6 8C6 9.06087 6.42143 10.0783 7.17157 10.8284C7.92172 11.5786 8.93913 12 10 12C11.0609 12 12.0783 11.5786 12.8284 10.8284C13.5786 10.0783 14 9.06087 14 8C14 6.93913 13.5786 5.92172 12.8284 5.17157C12.0783 4.42143 11.0609 4 10 4ZM8.58579 6.58579C8.96086 6.21071 9.46957 6 10 6C10.5304 6 11.0391 6.21071 11.4142 6.58579C11.7893 6.96086 12 7.46957 12 8C12 8.53043 11.7893 9.03914 11.4142 9.41421C11.0391 9.78929 10.5304 10 10 10C9.46957 10 8.96086 9.78929 8.58579 9.41421C8.21071 9.03914 8 8.53043 8 8C8 7.46957 8.21071 6.96086 8.58579 6.58579Z" fill="#221AFB"/>
<path fill-rule="evenodd" clip-rule="evenodd" d="M10 0C5.28933 0 1.35531 3.27918 0.0411737 7.71601C-0.0137246 7.90136 -0.0137246 8.09864 0.0411737 8.28399C1.35531 12.7208 5.28933 16 10 16C14.7117 16 18.6447 12.7208 19.9588 8.28399C20.0137 8.09864 20.0137 7.90136 19.9588 7.71601C18.6447 3.27924 14.7117 0 10 0ZM10 14C6.36216 14 3.21524 11.5267 2.04786 8C3.21524 4.47332 6.36216 2 10 2C13.6387 2 16.7848 4.47327 17.9521 8C16.7848 11.5267 13.6387 14 10 14Z" fill="#221AFB"/>
</svg>
