<svg width="21" height="21" viewBox="0 0 21 21" fill="none" xmlns="http://www.w3.org/2000/svg">
<path fill-rule="evenodd" clip-rule="evenodd" d="M8.15234 2.49902C6.56104 2.49902 5.03492 3.13116 3.9097 4.25638C2.78448 5.3816 2.15234 6.90772 2.15234 8.49902C2.15234 9.28695 2.30754 10.0672 2.60907 10.7951C2.91059 11.5231 3.35255 12.1845 3.9097 12.7417C4.46686 13.2988 5.12829 13.7408 5.85624 14.0423C6.5842 14.3438 7.36441 14.499 8.15234 14.499C8.94028 14.499 9.72049 14.3438 10.4484 14.0423C11.1764 13.7408 11.8378 13.2988 12.395 12.7417C12.9521 12.1845 13.3941 11.5231 13.6956 10.7951C13.9971 10.0672 14.1523 9.28695 14.1523 8.49902C14.1523 6.90772 13.5202 5.3816 12.395 4.25638C11.2698 3.13116 9.74364 2.49902 8.15234 2.49902ZM2.49549 2.84217C3.99578 1.34188 6.03061 0.499023 8.15234 0.499023C10.2741 0.499023 12.3089 1.34188 13.8092 2.84217C15.3095 4.34246 16.1523 6.37729 16.1523 8.49902C16.1523 9.5496 15.9454 10.5899 15.5434 11.5605C15.2696 12.2216 14.9089 12.8415 14.4719 13.4044L19.8595 18.7919C20.25 19.1824 20.25 19.8156 19.8595 20.2061C19.4689 20.5967 18.8358 20.5967 18.4452 20.2061L13.0577 14.8186C12.4948 15.2555 11.8749 15.6162 11.2138 15.8901C10.2432 16.2921 9.20292 16.499 8.15234 16.499C7.10177 16.499 6.06148 16.2921 5.09088 15.8901C4.12027 15.488 3.23836 14.8987 2.49549 14.1559C1.75262 13.413 1.16335 12.5311 0.761308 11.5605C0.35927 10.5899 0.152344 9.5496 0.152344 8.49902C0.152344 6.37729 0.995198 4.34246 2.49549 2.84217Z" fill="#1B254A"/>
</svg>
