<svg width="25" height="28" viewBox="0 0 25 28" fill="none" xmlns="http://www.w3.org/2000/svg">
<path fill-rule="evenodd" clip-rule="evenodd" d="M11.4284 14.7039H20.4397C21.486 14.6851 22.502 15.0816 23.2931 15.8176C24.0842 16.5536 24.5949 17.5773 24.7272 18.6927C24.7841 19.3089 24.7203 19.931 24.54 20.519C24.3597 21.1071 24.0668 21.6481 23.6803 22.1072C23.2938 22.5664 22.8221 22.9336 22.2956 23.1852C21.7691 23.4367 21.1994 23.5671 20.6232 23.568H17.5297V25.784C17.5297 26.3717 17.3125 26.9354 16.9257 27.3509C16.5389 27.7665 16.0144 28 15.4674 28H1C0.447715 28 0 27.5523 0 27V26.784C0 26.2317 0.447716 25.784 1 25.784H15.4674V23.568H6.67883C6.22473 23.568 5.78333 23.4069 5.42311 23.1098C5.0629 22.8127 4.80401 22.3962 4.68663 21.9248L0.141269 5.52928C-0.127509 4.39904 0.0292598 3.2005 0.577569 2.19365C1.12588 1.1868 2.02151 0.452835 3.07019 0.150967C4.11887 -0.150902 5.23602 0.00366868 6.17932 0.581149C7.12262 1.15863 7.816 2.11245 8.10905 3.23571L11.4284 14.7039ZM5.35101 16.5613C6.05158 15.5097 7.20399 14.8235 8.50691 14.8235H9.24859L6.11788 3.80966C6.05206 3.52365 5.93383 3.25461 5.7701 3.01828C5.60637 2.78196 5.40042 2.58309 5.1643 2.4333C4.92819 2.28352 4.66665 2.18583 4.39498 2.14596C4.12331 2.10608 3.84697 2.12481 3.58212 2.20106C3.31728 2.27731 3.06924 2.40954 2.85251 2.59002C2.63579 2.7705 2.45474 2.99561 2.31994 3.25218C2.18515 3.50874 2.09932 3.79161 2.06748 4.08424C2.03564 4.37687 2.05843 4.67339 2.1345 4.95645L5.35101 16.5613Z" fill="#221AFB"/>
</svg>
