<svg width="40" height="40" viewBox="0 0 40 40" fill="none" xmlns="http://www.w3.org/2000/svg">
<path fill-rule="evenodd" clip-rule="evenodd" d="M5.85786 5.85786C9.60859 2.10714 14.6957 0 20 0C25.3043 0 30.3914 2.10714 34.1421 5.85786C37.8929 9.60859 40 14.6957 40 20C40 22.6264 39.4827 25.2272 38.4776 27.6537C37.4725 30.0802 35.9993 32.285 34.1421 34.1421C32.285 35.9993 30.0802 37.4725 27.6537 38.4776C25.2272 39.4827 22.6264 40 20 40C17.3736 40 14.7728 39.4827 12.3463 38.4776C9.91982 37.4725 7.71503 35.9993 5.85786 34.1421C4.00069 32.285 2.5275 30.0802 1.52241 27.6537C0.517315 25.2272 0 22.6264 0 20C1.19209e-07 14.6957 2.10714 9.60859 5.85786 5.85786ZM20 10C21.1046 10 22 10.8954 22 12V20C22 21.1046 21.1046 22 20 22C18.8954 22 18 21.1046 18 20V12C18 10.8954 18.8954 10 20 10ZM18 28C18 26.8954 18.8954 26 20 26H20.02C21.1246 26 22.02 26.8954 22.02 28C22.02 29.1046 21.1246 30 20.02 30H20C18.8954 30 18 29.1046 18 28Z" fill="#FBF1E0"/>
<path fill-rule="evenodd" clip-rule="evenodd" d="M20 10C21.1046 10 22 10.8954 22 12V20C22 21.1046 21.1046 22 20 22C18.8954 22 18 21.1046 18 20V12C18 10.8954 18.8954 10 20 10ZM18 28C18 26.8954 18.8954 26 20 26H20.02C21.1246 26 22.02 26.8954 22.02 28C22.02 29.1046 21.1246 30 20.02 30H20C18.8954 30 18 29.1046 18 28Z" fill="#F67C0D"/>
</svg>
