<?xml version="1.0" encoding="UTF-8"?>
<svg width="44px" height="32px" viewBox="0 0 44 32" version="1.1" xmlns="http://www.w3.org/2000/svg" xmlns:xlink="http://www.w3.org/1999/xlink">
    <!-- Generator: Sketch 43.2 (39069) - http://www.bohemiancoding.com/sketch -->
    <title>arab-language</title>
    <desc>Created with Sketch.</desc>
    <defs>
        <linearGradient x1="50%" y1="0%" x2="50%" y2="100%" id="linearGradient-1">
            <stop stop-color="#FFFFFF" offset="0%"></stop>
            <stop stop-color="#F0F0F0" offset="100%"></stop>
        </linearGradient>
        <rect id="path-2" x="0" y="0" width="46" height="33" rx="2"></rect>
    </defs>
    <g id="Page-1" stroke="none" stroke-width="1" fill="none" fill-rule="evenodd">
        <g id="arab-language">
            <g id="SA" transform="translate(-1.000000, -1.000000)">
                <mask id="mask-3" fill="white">
                    <use xlink:href="#path-2"></use>
                </mask>
                <use id="Mask" fill="#FFFFFF" xlink:href="#path-2"></use>
                <rect id="Mask-Copy" fill="#128C4B" mask="url(#mask-3)" x="0" y="0" width="46" height="33"></rect>
                <path d="M10.952381,19.8 L28.4761905,19.8 L28.4761905,17.1678042 C28.4761905,16.7989861 28.7447859,16.6348816 29.0747477,16.8005798 L30.6666667,17.6 L30.6666667,19.8 L34.3822467,19.8 C34.7497217,19.8 35.047619,20.0886963 35.047619,20.4682653 L35.047619,22.8679144 C35.047619,23.603605 34.4411737,24.2 33.7177924,24.2 L29.1424578,24.2 C28.7744885,24.2 28.4761905,23.8940994 28.4761905,23.5279734 L28.4761905,22 L13.8017113,22 C13.4378362,22 12.9328251,21.7890548 12.6783135,21.5334366 L10.952381,19.8 Z" id="Rectangle-455" fill="#FFFFFF" mask="url(#mask-3)"></path>
                <path d="M10.952381,13.5246176 C10.952381,13.3453362 11.0534552,13.0984863 11.1846528,12.9667183 L11.8153472,12.3332817 C11.9436274,12.2044438 11.9465448,11.9984863 11.8153472,11.8667183 L11.1846528,11.2332817 C11.0563726,11.1044438 10.952381,10.8556519 10.952381,10.6753824 L10.952381,9.12461758 C10.952381,8.94533624 11.0961042,8.8 11.2946429,8.8 L12.8005952,8.8 C12.9896213,8.8 13.1428571,8.94434814 13.1428571,9.12461758 L13.1428571,10.6753824 C13.1428571,10.8546638 13.2080893,10.8689684 13.2951453,10.6940994 L14.0858071,9.10590057 C14.1699135,8.93695635 14.3792783,8.8 14.5651544,8.8 L17.1967503,8.8 C17.3773801,8.8 17.5238095,8.95295029 17.5238095,9.12408676 L17.5238095,9.57591324 C17.5238095,9.75490141 17.3800863,9.9 17.1815476,9.9 L15.6755952,9.9 C15.4865692,9.9 15.3333333,10.0529503 15.3333333,10.2240868 L15.3333333,10.6759132 C15.3333333,10.8549014 15.4770566,11 15.6755952,11 L17.1815476,11 C17.3705736,11 17.5238095,11.1463959 17.5238095,11.3307151 L17.5238095,15.0692849 C17.5238095,15.2519338 17.3800863,15.4 17.1815476,15.4 L15.6755952,15.4 C15.4865692,15.4 15.3333333,15.2556519 15.3333333,15.0753824 L15.3333333,13.5246176 C15.3333333,13.3453362 15.4856215,13.2 15.667892,13.2 L16.0940127,13.2 C16.2787844,13.2 16.4285714,13.0470497 16.4285714,12.8759132 L16.4285714,12.4240868 C16.4285714,12.2450986 16.2848482,12.1 16.0863095,12.1 L14.5803571,12.1 C14.3913311,12.1 14.2380952,12.2417969 14.2380952,12.4284812 L14.2380952,15.0715188 C14.2380952,15.252934 14.0858071,15.4 13.9035365,15.4 L13.4774159,15.4 C13.2926442,15.4 13.1428571,15.2556519 13.1428571,15.0753824 L13.1428571,13.5246176 C13.1428571,13.3453362 12.990569,13.2 12.8082984,13.2 L12.3821778,13.2 C12.1974061,13.2 12.047619,13.3443481 12.047619,13.5246176 L12.047619,15.0753824 C12.047619,15.2546638 11.8953309,15.4 11.7130603,15.4 L11.2869397,15.4 C11.102168,15.4 10.952381,15.2556519 10.952381,15.0753824 L10.952381,13.5246176 Z" id="Rectangle-456" fill="#FFFFFF" mask="url(#mask-3)"></path>
                <path d="M28.4761905,13.5246176 C28.4761905,13.3453362 28.5772647,13.0984863 28.7084623,12.9667183 L29.3391567,12.3332817 C29.4674369,12.2044438 29.4703544,11.9984863 29.3391567,11.8667183 L28.7084623,11.2332817 C28.5801821,11.1044438 28.4761905,10.8556519 28.4761905,10.6753824 L28.4761905,9.12461758 C28.4761905,8.94533624 28.6199137,8.8 28.8184524,8.8 L30.3244048,8.8 C30.5134308,8.8 30.6666667,8.94434814 30.6666667,9.12461758 L30.6666667,10.6753824 C30.6666667,10.8546638 30.7318989,10.8689684 30.8189548,10.6940994 L31.6096166,9.10590057 C31.693723,8.93695635 31.9030878,8.8 32.088964,8.8 L34.7205598,8.8 C34.9011897,8.8 35.047619,8.95295029 35.047619,9.12408676 L35.047619,9.57591324 C35.047619,9.75490141 34.9038958,9.9 34.7053571,9.9 L33.1994048,9.9 C33.0103787,9.9 32.8571429,10.0529503 32.8571429,10.2240868 L32.8571429,10.6759132 C32.8571429,10.8549014 33.0008661,11 33.1994048,11 L34.7053571,11 C34.8943832,11 35.047619,11.1463959 35.047619,11.3307151 L35.047619,15.0692849 C35.047619,15.2519338 34.9038958,15.4 34.7053571,15.4 L33.1994048,15.4 C33.0103787,15.4 32.8571429,15.2556519 32.8571429,15.0753824 L32.8571429,13.5246176 C32.8571429,13.3453362 33.009431,13.2 33.1917016,13.2 L33.6178222,13.2 C33.8025939,13.2 33.952381,13.0470497 33.952381,12.8759132 L33.952381,12.4240868 C33.952381,12.2450986 33.8086577,12.1 33.610119,12.1 L32.1041667,12.1 C31.9151406,12.1 31.7619048,12.2417969 31.7619048,12.4284812 L31.7619048,15.0715188 C31.7619048,15.252934 31.6096166,15.4 31.427346,15.4 L31.0012254,15.4 C30.8164537,15.4 30.6666667,15.2556519 30.6666667,15.0753824 L30.6666667,13.5246176 C30.6666667,13.3453362 30.5143785,13.2 30.332108,13.2 L29.9059873,13.2 C29.7212156,13.2 29.5714286,13.3443481 29.5714286,13.5246176 L29.5714286,15.0753824 C29.5714286,15.2546638 29.4191404,15.4 29.2368699,15.4 L28.8107492,15.4 C28.6259775,15.4 28.4761905,15.2556519 28.4761905,15.0753824 L28.4761905,13.5246176 Z" id="Rectangle-456" fill="#FFFFFF" mask="url(#mask-3)"></path>
                <path d="M26.2857143,10.4448471 C26.2857143,10.7514496 26.1145833,11.171875 25.8903082,11.3971252 L25.5858823,11.7028748 C25.3675055,11.922201 25.3616071,12.271875 25.5858823,12.4971252 L25.8903082,12.8028748 C26.108685,13.022201 26.2857143,13.4354385 26.2857143,13.7551529 L26.2857143,14.8448471 C26.2857143,15.1514496 26.051295,15.4 25.7329647,15.4 L24.6479877,15.4 C24.3427125,15.4 24.0952381,15.1645615 24.0952381,14.8448471 L24.0952381,13.7551529 C24.0952381,13.4485504 23.9941639,13.4030273 23.8412156,13.7102539 L23.2540225,14.8897461 C23.1137298,15.1715515 22.7421755,15.4 22.4574311,15.4 L20.2568546,15.4 C19.9572021,15.4 19.7142857,15.144873 19.7142857,14.85 L19.7142857,14.85 C19.7142857,14.5462434 19.948705,14.3 20.2670353,14.3 L21.3520123,14.3 C21.6572875,14.3 21.9047619,14.044873 21.9047619,13.75 L21.9047619,13.75 C21.9047619,13.4462434 21.6703426,13.2 21.3520123,13.2 L20.2670353,13.2 C19.9617602,13.2 19.7142857,12.9634369 19.7142857,12.6604736 L19.7142857,9.33952637 C19.7142857,9.04155418 19.948705,8.8 20.2670353,8.8 L21.3520123,8.8 C21.6572875,8.8 21.9047619,9.03543854 21.9047619,9.35515289 L21.9047619,10.4448471 C21.9047619,10.7514496 21.6507394,11 21.3571429,11 L21.3571429,11 C21.0547012,11 20.8095238,11.255127 20.8095238,11.55 L20.8095238,11.55 C20.8095238,11.8537566 21.0439431,12.1 21.3622734,12.1 L22.4472504,12.1 C22.7525256,12.1 23,11.8410545 23,11.5550721 L23,9.34492788 C23,9.04397252 23.2540225,8.8 23.547619,8.8 L23.547619,8.8 C23.8500607,8.8 24.0952381,9.03543854 24.0952381,9.35515289 L24.0952381,10.4448471 C24.0952381,10.7514496 24.3492606,11 24.6428571,11 L24.6428571,11 C24.9452988,11 25.1904762,10.7645615 25.1904762,10.4448471 L25.1904762,9.35515289 C25.1904762,9.04855042 25.4444987,8.8 25.7380952,8.8 L25.7380952,8.8 C26.0405369,8.8 26.2857143,9.03543854 26.2857143,9.35515289 L26.2857143,10.4448471 L26.2857143,10.4448471 Z" id="Rectangle-456" fill="#FFFFFF" mask="url(#mask-3)"></path>
            </g>
        </g>
    </g>
</svg>