<?xml version="1.0" encoding="UTF-8"?>
<svg width="44px" height="32px" viewBox="0 0 44 32" version="1.1" xmlns="http://www.w3.org/2000/svg" xmlns:xlink="http://www.w3.org/1999/xlink">
    <!-- Generator: Sketch 43.2 (39069) - http://www.bohemiancoding.com/sketch -->
    <title>english-language</title>
    <desc>Created with Sketch.</desc>
    <defs>
        <rect id="path-1" x="0" y="0" width="44" height="32" rx="2"></rect>
    </defs>
    <g id="Page-1" stroke="none" stroke-width="1" fill="none" fill-rule="evenodd">
        <g id="english-language">
            <g id="GB">
                <mask id="mask-2" fill="white">
                    <use xlink:href="#path-1"></use>
                </mask>
                <use id="Mask" fill="#FFFFFF" xlink:href="#path-1"></use>
                <rect id="Mask-Copy" fill="#0A17A7" mask="url(#mask-2)" x="0" y="0" width="44" height="32"></rect>
                <path d="M10.277986,21.3333333 L0,21.3333333 L0,10.6666667 L10.277986,10.6666667 L-4.37989587,0.779800516 L-1.99400615,-2.75742646 L16.7619048,9.89359519 L16.7619048,-2.13333333 L27.2380952,-2.13333333 L27.2380952,9.89359519 L45.9940062,-2.75742646 L48.3798959,0.779800516 L33.722014,10.6666667 L44,10.6666667 L44,21.3333333 L33.722014,21.3333333 L48.3798959,31.2201995 L45.9940062,34.7574265 L27.2380952,22.1064048 L27.2380952,34.1333333 L16.7619048,34.1333333 L16.7619048,22.1064048 L-1.99400615,34.7574265 L-4.37989587,31.2201995 L10.277986,21.3333333 Z" id="Rectangle-2" fill="#FFFFFF" mask="url(#mask-2)"></path>
                <path d="M29.3353795,10.1315104 L49.2380952,-3.2" id="Line" stroke="#DB1F35" stroke-width="0.666666667" stroke-linecap="round" mask="url(#mask-2)"></path>
                <path d="M31.4486491,34.1605469 L49.2903995,21.9160156" id="Line-Copy-2" stroke="#DB1F35" stroke-width="0.666666667" stroke-linecap="round" mask="url(#mask-2)" transform="translate(40.369524, 28.038281) scale(1, -1) translate(-40.369524, -28.038281) "></path>
                <path d="M12.5801246,10.0967448 L-6.03033157,-2.67356771" id="Line-Copy" stroke="#DB1F35" stroke-width="0.666666667" stroke-linecap="round" mask="url(#mask-2)"></path>
                <path d="M14.5986328,35.6967448 L-6.03033157,21.7678385" id="Line-Copy-3" stroke="#DB1F35" stroke-width="0.666666667" stroke-linecap="round" mask="url(#mask-2)" transform="translate(4.284151, 28.732292) scale(1, -1) translate(-4.284151, -28.732292) "></path>
                <polygon id="Rectangle-2-Copy-3" fill="#E6273E" mask="url(#mask-2)" points="0 19.2 18.8571429 19.2 18.8571429 32 25.1428571 32 25.1428571 19.2 44 19.2 44 12.8 25.1428571 12.8 25.1428571 0 18.8571429 0 18.8571429 12.8 0 12.8"></polygon>
            </g>
        </g>
    </g>
</svg>