<svg width="41" height="41" viewBox="0 0 41 41" fill="none" xmlns="http://www.w3.org/2000/svg">
    <circle cx="20.832" cy="20.769" r="20" fill="#EFF6FF"/>
    <path d="M16.332 15.68v7.734a2 2 0 0 0 1 1.732l6.961 4.022a2 2 0 0 0 2.058-.033l2.538-1.58a2 2 0 0 0 .943-1.698v-2.534a2 2 0 0 0-1-1.732l-7-4.044a2 2 0 0 0-2 0l-7 4.044a2 2 0 0 0-1 1.732v2.534a2 2 0 0 0 .943 1.699l2.538 1.579a2 2 0 0 0 2.058.033l6.962-4.022a2 2 0 0 0 .999-1.732V15.68a2 2 0 0 0-.943-1.698l-2.5-1.556a2 2 0 0 0-2.114 0l-2.5 1.556a2 2 0 0 0-.943 1.698z" stroke="#221AFB" stroke-width="2"/>
</svg>
