<svg width="25" height="25" viewBox="0 0 25 25" fill="none" xmlns="http://www.w3.org/2000/svg">
<path fill-rule="evenodd" clip-rule="evenodd" d="M17.4199 4.84229C17.1547 4.84229 16.9004 4.94764
16.7128 5.13518C16.5253 5.32271 16.4199 5.57707 16.4199 5.84229V19.8423C16.4199 20.1075 16.5253 20.3619 16.7128 20.5494C16.9004 20.7369 17.1547 20.8423 17.4199 20.8423H19.4199C19.6851 20.8423 19.9395 20.7369 20.127 20.5494C20.3146 20.3619 20.4199 20.1075 20.4199 19.8423V5.84229C20.4199 5.57707 20.3146 5.32271 20.127 5.13518C19.9395 4.94764 19.6851 4.84229 19.4199 4.84229H17.4199ZM15.4199 22.0784C15.9684 22.569 16.6801 22.8423 17.4199 22.8423H19.4199C20.2156 22.8423 20.9786 22.5262 21.5412 21.9636C22.1039 21.401 22.4199 20.6379 22.4199 19.8423V5.84229C22.4199 5.04664 22.1039 4.28357 21.5412 3.72096C20.9786 3.15836 20.2156 2.84229 19.4199 2.84229H17.4199C16.6243 2.84229 15.8612 3.15836 15.2986 3.72096C14.736 4.28357 14.4199 5.04664 14.4199 5.84229V7.01386C14.1017 6.90135 13.7639 6.84229 13.4199 6.84229H11.4199C10.6243 6.84229 9.86121 7.15836 9.2986 7.72096C8.73599 8.28357 8.41992 9.04664 8.41992 9.84229V11.0139C8.10172 10.9013 7.76386 10.8423 7.41992 10.8423H5.41992C4.62427 10.8423 3.86121 11.1584 3.2986 11.721C2.73599 12.2836 2.41992 13.0466 2.41992 13.8423V19.8423C2.41992 20.6379 2.73599 21.401 3.2986 21.9636C3.86121 22.5262 4.62427 22.8423 5.41992 22.8423H7.41992C8.15975 22.8423 8.8714 22.569 9.41992 22.0784C9.96844 22.569 10.6801 22.8423 11.4199 22.8423H13.4199C14.1597 22.8423 14.8714 22.569 15.4199 22.0784ZM14.4199 19.8423V9.84229C14.4199 9.57707 14.3146 9.32271 14.127 9.13518C13.9395 8.94764 13.6851 8.84229 13.4199 8.84229H11.4199C11.1547 8.84229 10.9004 8.94764 10.7128 9.13518C10.5253 9.32271 10.4199 9.57707 10.4199 9.84229V19.8423C10.4199 20.1075 10.5253 20.3619 10.7128 20.5494C10.9004 20.7369 11.1547 20.8423 11.4199 20.8423H13.4199C13.6851 20.8423 13.9395 20.7369 14.127 20.5494C14.3146 20.3619 14.4199 20.1075 14.4199 19.8423ZM8.41992 19.8423V13.8423C8.41992 13.5771 8.31457 13.3227 8.12703 13.1352C7.93949 12.9476 7.68514 12.8423 7.41992 12.8423H5.41992C5.15471 12.8423 4.90035 12.9476 4.71282 13.1352C4.52528 13.3227 4.41992 13.5771 4.41992 13.8423V19.8423C4.41992 20.1075 4.52528 20.3619 4.71282 20.5494C4.90035 20.7369 5.15471 20.8423 5.41992 20.8423H7.41992C7.68514 20.8423 7.93949 20.7369 8.12703 20.5494C8.31457 20.3619 8.41992 20.1075 8.41992 19.8423Z" fill="#221AFB"/>
</svg>
