<svg width="25" height="24" viewBox="0 0 25 24" fill="none" xmlns="http://www.w3.org/2000/svg">
    <path  fill="#2563EB" fill-rule="evenodd" clip-rule="evenodd" d="M6.736 6.179A8.5 8.5 0 1 1 18.379 17.82 8.5 8.5 0 1 1 6.735 6.179zm3.833-1.165a6.5 6.5 0 0 1 8.974 8.974 8.5 8.5 0 0 0-8.974-8.974zM4.557 13.5a6.5 6.5 0 1 1 13 0 6.5 6.5 0 0 1-13 0z"/>
    <path fill="#2563EB" d="M8.207 16.377c1.566 0 2.48-.744 2.48-1.913 0-.921-.575-1.421-1.795-1.642l-.571-.102c-.567-.102-.811-.224-.811-.48s.236-.46.7-.46c.359 0 .622.106.807.389.201.303.426.425.78.425.417-.004.693-.26.693-.638a.871.871 0 0 0-.071-.35c-.295-.708-1.102-1.106-2.228-1.106-1.35 0-2.334.72-2.334 1.862 0 .882.618 1.452 1.747 1.653l.571.102c.638.115.858.229.858.496 0 .28-.307.485-.807.485-.374 0-.704-.115-.901-.394-.224-.315-.437-.413-.752-.413-.413 0-.716.275-.716.677 0 .13.027.263.086.393.244.555.984 1.016 2.264 1.016zM12.143 16.377c.531 0 .834-.315.834-.874v-1.13h.666l.747 1.335c.296.523.461.669.87.669.485 0 .83-.319.83-.764 0-.197-.03-.326-.176-.57l-.595-.977c.54-.315.807-.909.807-1.539 0-1.216-.779-1.929-2.295-1.929h-1.688c-.532 0-.835.315-.835.874v4.031c0 .559.303.874.835.874zm.834-3.106v-1.44h.693c.449 0 .752.303.752.724 0 .429-.287.716-.756.716h-.689z"/>
</svg>
