<svg xmlns="http://www.w3.org/2000/svg" xmlns:xlink="http://www.w3.org/1999/xlink" width="33" height="33" viewBox="0 0 33 33">
    <defs>
        <ellipse id="a" cx="16.5" cy="16.34" rx="16.5" ry="16.34"/>
    </defs>
    <g fill="none" fill-rule="evenodd">
        <mask id="b" fill="#fff">
            <use xlink:href="#a"/>
        </mask>
        <use fill="#9099A0" xlink:href="#a"/>
        <path fill="#FFF" fill-rule="nonzero" d="M26.262 21.975c-.744-.064-5.724-1.698-7.341-2.403v-2.5s.97-1.185.97-2.338c.097.096.615.224.68-.64.064-.866.161-1.923.194-2.308.032-.384-.486-.32-.518-.096 0-.32-.032-.448 0-.48.032-.032.324-.353.324-.641 0-.289.161-.48.161-1.025V7.237c0-.353-.356-.16-.356-.353 0-.192-.226-1.057-1.39-1.057.323-.256.517-1.057.452-1.41-.097.257-.582.417-.84.417-1.327 0-1.845-.865-3.43-.833-2.103.032-2.88 1.121-2.88 1.794-1.164 0-1.39.865-1.39 1.057 0 .193-.357-.032-.357.353v2.307c0 .544.162.736.162 1.025 0 .288.291.609.323.64.033.033 0 .16 0 .481-.032-.192-.55-.288-.517.096.032.385.097 1.442.194 2.307.065.865.582.737.68.64 0 1.186.97 2.34.97 2.34.453.737 2.038 1.698 3.3 1.698-2.33 0-3.3-.93-3.3-.93v1.763c-1.715.705-6.438 2.339-7.182 2.403-.874.064-1.1.32-1.521 1.057-.453.737-1.048 2.104-1.052 2.155C3.912 27.423 8.273 33 15.653 33s12.427-4.078 14.65-7.627c-.007-.116-1.218-1.499-2.134-2.341-.6-.66-1.033-.961-1.907-1.057z" mask="url(#b)"/>
    </g>
</svg>
