<svg xmlns="http://www.w3.org/2000/svg" width="32" height="31" viewBox="0 0 32 31">
    <g fill="none" fill-rule="evenodd">
        <path fill="#649ABC" d="M10 11.625H8V.969C8 .434 8.448 0 9 0h13.172c.53 0 1.039.204 1.414.567l7.828 7.584c.375.364.586.856.586 1.37v17.604c0 .535-.448.969-1 .969h-5.001L26 28v-1.844h4v-15.5h-8.031a.969.969 0 0 1-.969-1V1.937H10v9.688zm15.999 2.906h1.032a.969.969 0 1 1 0 1.938H26v-1.844l-.001-.094zM26 18.406h1.031a.969.969 0 1 1 0 1.938H26v-1.938zm0 3.875h1.031a.969.969 0 1 1 0 1.938H26V22.28zM23 2.74v5.979h6.172L23 2.74zM12.969 8.719h5.062a.969.969 0 1 1 0 1.937H12.97a.969.969 0 1 1 0-1.937zm0-3.875h5.062a.969.969 0 1 1 0 1.937H12.97a.969.969 0 1 1 0-1.937z"/>
        <path fill="#649ABC" fill-rule="nonzero" d="M1.5 13.563h21c.828 0 1.5.71 1.5 1.585v14.267C24 30.29 23.328 31 22.5 31h-21C.672 31 0 30.29 0 29.415V15.148c0-.876.672-1.585 1.5-1.585zM2 15.5v13.563h20V15.5H2z"/>
        <rect width="7" height="1.938" x="4" y="25.188" fill="#649ABC" rx=".969"/>
        <path fill="#649ABC" fill-rule="nonzero" d="M17 25.188h2s1 0 1 .968c0 .969-1 .969-1 .969h-2c-1 0-1-.969-1-.969s0-.968 1-.968z"/>
        <path fill="#669ABC" d="M2 23.25v-1.938h20v1.938zM2 19.375v-1.938h20v1.938z"/>
    </g>
</svg>
