<svg xmlns="http://www.w3.org/2000/svg" width="24" height="24" fill="none" viewBox="0 0 24 24">
    <path fill="#1B3696" fill-rule="evenodd" d="M10.05 2.192c1.939-.386 3.95-.188 5.777.57 1.827.756 3.389 2.038 4.488 3.682C21.413 8.09 22 10.022 22 12v1.5c0 .928-.369 1.819-1.025 2.475C20.318 16.63 19.428 17 18.5 17c-.928 0-1.819-.369-2.475-1.025-.157-.157-.298-.328-.42-.51l-.07.07C14.599 16.474 13.327 17 12 17s-2.598-.527-3.536-1.464C7.527 14.598 7 13.326 7 12s.527-2.598 1.464-3.536C9.402 7.527 10.674 7 12 7s2.598.527 3.536 1.464C16.473 9.402 17 10.674 17 12v1.5c0 .398.158.78.44 1.06.28.282.662.44 1.06.44s.78-.158 1.06-.44c.282-.28.44-.662.44-1.06V12c0-1.582-.47-3.129-1.348-4.445-.88-1.315-2.129-2.34-3.59-2.946-1.462-.606-3.07-.764-4.623-.455-1.552.308-2.977 1.07-4.096 2.19-1.119 1.118-1.88 2.543-2.19 4.095-.308 1.552-.15 3.16.456 4.623.605 1.461 1.63 2.71 2.946 3.59C8.871 19.53 10.418 20 12 20c1.404.001 2.784-.368 3.999-1.071.478-.277 1.09-.114 1.366.364.277.478.114 1.09-.364 1.366-1.52.881-3.246 1.343-5.002 1.341-1.978 0-3.91-.587-5.555-1.685-1.644-1.1-2.926-2.66-3.683-4.488-.757-1.827-.955-3.838-.569-5.778.386-1.94 1.338-3.722 2.737-5.12 1.398-1.399 3.18-2.351 5.12-2.737zM15 12c0-.796-.316-1.559-.879-2.121C13.56 9.316 12.796 9 12 9s-1.559.316-2.121.879C9.316 10.44 9 11.204 9 12s.316 1.559.879 2.121c.562.563 1.325.879 2.121.879s1.559-.316 2.121-.879C14.684 13.56 15 12.796 15 12z" clip-rule="evenodd"/>
</svg>
