<svg width="144" height="144" viewBox="0 0 40 40" fill="none" xmlns="http://www.w3.org/2000/svg">
    <path fill-rule="evenodd" clip-rule="evenodd" d="M8.686 8.686a16 16 0 1 1 22.628 22.628A16 16 0 0 1 8.686 8.686zm6.983 6.983a1.6 1.6 0 0 1 2.262 0L20 17.737l2.069-2.068a1.6 1.6 0 0 1 2.262 2.262L22.263 20l2.068 2.069a1.6 1.6 0 0 1-2.262 2.262L20 22.263l-2.069 2.068a1.6 1.6 0 0 1-2.262-2.262L17.737 20l-2.068-2.069a1.6 1.6 0 0 1 0-2.262z" fill="#DB3233"/>
    <path fill-rule="evenodd" clip-rule="evenodd" d="M15.669 15.669a1.6 1.6 0 0 1 2.263 0L20 17.737l2.069-2.068a1.6 1.6 0 0 1 2.263 2.262L22.262 20l2.07 2.069a1.6 1.6 0 0 1-2.263 2.262L20 22.263l-2.068 2.068a1.6 1.6 0 0 1-2.263-2.262L17.738 20l-2.07-2.069a1.6 1.6 0 0 1 0-2.262z" fill="#FAFAFA"/>
</svg>
