<svg width="25" height="24" viewBox="0 0 25 24" fill="none" xmlns="http://www.w3.org/2000/svg">
<path fill-rule="evenodd" clip-rule="evenodd" d="M13.697 6.32818C13.6249 6.13106 13.4373 5.99996 13.2274 5.99996H11.8786C11.6687 5.99996 11.4812 6.13106 11.409 6.32818L10.1887 9.66407C10.1291 9.82719 10.2498 9.99996 10.4235 9.99996H14.6825C14.8562 9.99996 14.977 9.82719 14.9173 9.66407L13.697 6.32818ZM14.4794 3.99996C14.7784 3.99996 15.0477 4.19889 15.1589 4.50289L17.5001 10.9028C17.6922 11.4282 17.3376 12 16.8208 12H8.28522C7.76778 12 7.41402 11.4275 7.60595 10.9028L9.94715 4.50289C10.0584 4.19889 10.3276 3.99996 10.6266 3.99996H14.4794Z" fill="#6b7085"/>
<path fill-rule="evenodd" clip-rule="evenodd" d="M2.55292 18.9029C2.36099 19.4275 2.7148 20 3.2322 20H11.7678C12.2845 20 12.6392 19.4282 12.447 18.9029L10.1058 12.5029C9.99464 12.1989 9.72541 12 9.42642 12H5.57354C5.27456 12 5.00533 12.1989 4.89412 12.5029L2.55292 18.9029ZM8.64394 14.3282C8.57183 14.1311 8.38428 14 8.17438 14H6.82559C6.61569 14 6.42813 14.1311 6.35602 14.3282L5.1357 17.6641C5.07603 17.8272 5.19679 18 5.37048 18H9.62948C9.80317 18 9.92394 17.8272 9.86426 17.6641L8.64394 14.3282Z" fill="#6b7085"/>
<path fill-rule="evenodd" clip-rule="evenodd" d="M18.644 14.3282C18.5719 14.1311 18.3844 14 18.1745 14H16.8257C16.6158 14 16.4282 14.1311 16.3561 14.3282L15.1358 17.6641C15.0761 17.8272 15.1969 18 15.3706 18H19.6296C19.8033 18 19.924 17.8272 19.8643 17.6641L18.644 14.3282ZM19.4265 12C19.7255 12 19.9947 12.1989 20.1059 12.5029L22.4471 18.9028C22.6393 19.4282 22.2846 20 21.7679 20H13.2323C12.7148 20 12.3611 19.4275 12.553 18.9028L14.8942 12.5029C15.0054 12.1989 15.2746 12 15.5736 12H19.4265Z" fill="#6b7085"/>
</svg>
