<svg xmlns="http://www.w3.org/2000/svg" width="24" height="18" fill="none" viewBox="0 0 24 18">
    <path fill="#1B3696" d="M1.43 6.468h18.807v2.958H1.43V6.468z"/>
    <path fill="#1B3696" stroke="#1B3696" stroke-width=".3" d="M19.657 15.206v.007c-.004.343-.284.62-.627.62H2.637c-.346 0-.628-.282-.628-.627V5.234c0-.346.282-.628.628-.628H19.03c.346 0 .627.282.627.628v9.972zm2.334-2.59h0v.15c0 .346-.282.627-.627.627h-.547V5.234c0-.985-.802-1.787-1.787-1.787H4.343v-.652c0-.346.281-.628.627-.628h16.394c.345 0 .627.282.627.628v9.82zm-.627-11.609H4.97c-.986 0-1.787.802-1.787 1.788v.652h-.546C1.65 3.447.85 4.25.85 5.234v9.972c0 .985.801 1.786 1.787 1.786H19.03c.985 0 1.787-.801 1.787-1.787v-.652h.547c.985 0 1.786-.802 1.786-1.788v-9.97c0-.986-.801-1.788-1.786-1.788z"/>
    <path fill="#1B3696" d="M18.01 11.686H15.28c-.238 0-.43.193-.43.43v2.353c0 .238.192.43.43.43h2.731c.237 0 .43-.192.43-.43v-2.353c0-.237-.193-.43-.43-.43zm-.43 2.353h-1.872v-1.493h1.872v1.493z"/>
</svg>
