<svg xmlns="http://www.w3.org/2000/svg" width="24" height="24" fill="none" viewBox="0 0 24 24">
    <g clip-path="url(#clip0)">
        <path fill="#E1E5F5" d="M5 6h5V5c0-.53.21-1.04.586-1.414C10.96 3.21 11.47 3 12 3c.53 0 1.04.21 1.414.586C13.79 3.96 14 4.47 14 5v1h5c.53 0 1.04.21 1.414.586C20.79 6.96 21 7.47 21 8v9c0 .53-.21 1.04-.586 1.414C20.04 18.79 19.53 19 19 19H5c-.53 0-1.04-.21-1.414-.586C3.21 18.04 3 17.53 3 17V8c0-.53.21-1.04.586-1.414C3.96 6.21 4.47 6 5 6z"/>
        <path fill="#1B3696" fill-rule="evenodd" d="M12 4c-.265 0-.52.105-.707.293C11.105 4.48 11 4.735 11 5v1c0 .265.105.52.293.707.187.188.442.293.707.293.265 0 .52-.105.707-.293C12.895 6.52 13 6.265 13 6V5c0-.265-.105-.52-.293-.707C12.52 4.105 12.265 4 12 4zM9.879 2.879C10.44 2.316 11.204 2 12 2s1.559.316 2.121.879C14.684 3.44 15 4.204 15 5h4c.796 0 1.559.316 2.121.879C21.684 6.44 22 7.204 22 8v9c0 .796-.316 1.559-.879 2.121-.562.563-1.325.879-2.121.879H5c-.796 0-1.559-.316-2.121-.879C2.316 18.56 2 17.796 2 17V8c0-.796.316-1.559.879-2.121C3.44 5.316 4.204 5 5 5h4c0-.796.316-1.559.879-2.121zM9.172 7H5c-.265 0-.52.105-.707.293C4.105 7.48 4 7.735 4 8v9c0 .265.105.52.293.707.187.188.442.293.707.293h14c.265 0 .52-.105.707-.293.188-.187.293-.442.293-.707V8c0-.265-.105-.52-.293-.707C19.52 7.105 19.265 7 19 7h-4.172c-.147.418-.387.802-.707 1.121C13.56 8.684 12.796 9 12 9s-1.559-.316-2.121-.879c-.32-.32-.56-.703-.707-1.121zM6.879 9.879C7.44 9.316 8.204 9 9 9s1.559.316 2.121.879c.563.562.879 1.325.879 2.121s-.316 1.559-.879 2.121c-.055.056-.112.108-.17.159l1.174.94c.431.344.5.973.156 1.405-.345.431-.974.5-1.406.156l-1.912-1.53-2.216 1.566c-.45.318-1.075.211-1.394-.24-.318-.45-.211-1.075.24-1.394l1.378-.973-.092-.089C6.316 13.56 6 12.796 6 12s.316-1.559.879-2.121zM9 11c-.265 0-.52.105-.707.293C8.105 11.48 8 11.735 8 12c0 .265.105.52.293.707.187.188.442.293.707.293.265 0 .52-.105.707-.293.188-.187.293-.442.293-.707 0-.265-.105-.52-.293-.707C9.52 11.105 9.265 11 9 11zm5 0c0-.552.448-1 1-1h3c.552 0 1 .448 1 1s-.448 1-1 1h-3c-.552 0-1-.448-1-1zm0 4c0-.552.448-1 1-1h3c.552 0 1 .448 1 1s-.448 1-1 1h-3c-.552 0-1-.448-1-1z" clip-rule="evenodd"/>
    </g>
    <defs>
        <clipPath id="clip0">
            <path fill="#fff" d="M0 0H24V24H0z"/>
        </clipPath>
    </defs>
</svg>
