<?xml version="1.0" standalone="no"?>
<!DOCTYPE svg PUBLIC "-//W3C//DTD SVG 20010904//EN"
 "http://www.w3.org/TR/2001/REC-SVG-20010904/DTD/svg10.dtd">
<svg version="1.0" xmlns="http://www.w3.org/2000/svg"
 width="225.000000pt" height="225.000000pt" viewBox="0 0 225.000000 225.000000"
 preserveAspectRatio="xMidYMid meet">

<g transform="translate(0.000000,225.000000) scale(0.100000,-0.100000)"
fill="#000000" stroke="none">
<path d="M948 1865 c-253 -62 -457 -249 -545 -500 -26 -75 -28 -90 -28 -240 0
-150 2 -165 28 -240 41 -115 100 -209 186 -296 87 -87 182 -146 296 -185 113
-39 304 -46 423 -16 275 70 484 280 554 555 17 69 20 101 15 212 -6 148 -22
208 -86 331 -95 182 -274 322 -479 375 -90 23 -276 25 -364 4z m322 -121 c117
-27 205 -78 301 -173 130 -131 189 -270 189 -451 0 -172 -60 -311 -189 -441
-140 -139 -283 -195 -476 -187 -168 8 -300 67 -418 185 -121 122 -176 247
-184 418 -10 193 47 335 187 475 93 94 183 147 295 174 80 19 215 19 295 0z"/>
<path d="M1100 1523 c-64 -24 -83 -113 -34 -152 15 -12 41 -21 59 -21 18 0 44
9 59 21 35 28 37 95 4 127 -25 23 -65 34 -88 25z"/>
<path d="M1050 1005 l0 -285 70 0 70 0 0 285 0 285 -70 0 -70 0 0 -285z"/>
</g>
</svg>
