<svg width="137" height="54" fill="none" xmlns="http://www.w3.org/2000/svg">
    <path d="m130.924 27.193-7.573-4.396V14.03a7.017 7.017 0 0 0-.93-3.48 6.96 6.96 0 0 0-2.533-2.548l-5.994-3.481a6.918 6.918 0 0 0-6.924 0l-5.997 3.481a6.961 6.961 0 0 0-2.531 2.549 7.012 7.012 0 0 0-.932 3.48v8.765l-7.57 4.396a6.958 6.958 0 0 0-2.532 2.549 7.014 7.014 0 0 0-.931 3.48v6.96a7.014 7.014 0 0 0 .93 3.48 6.96 6.96 0 0 0 2.533 2.55l5.997 3.48a6.896 6.896 0 0 0 6.923 0l7.551-4.383.02.014.022-.014 7.551 4.382a6.892 6.892 0 0 0 6.923 0l5.997-3.478a6.965 6.965 0 0 0 2.532-2.55 7.009 7.009 0 0 0 .928-3.481v-6.96a7.004 7.004 0 0 0-.929-3.48 6.954 6.954 0 0 0-2.531-2.549zm-29.64-13.162a3.186 3.186 0 0 1 1.576-2.742l5.994-3.482a3.16 3.16 0 0 1 3.153 0l5.997 3.482a3.186 3.186 0 0 1 1.576 2.743v6.602l-5.178-3.013a7.925 7.925 0 0 0-7.946 0l-5.172 3.013V14.03zm-.311 32.375a3.14 3.14 0 0 1-3.152 0l-5.994-3.49a3.172 3.172 0 0 1-1.152-1.161 3.197 3.197 0 0 1-.424-1.585v-6.949a3.19 3.19 0 0 1 .423-1.583 3.164 3.164 0 0 1 1.153-1.16l5.683-3.299v6.03a8.043 8.043 0 0 0 1.068 3.994 7.98 7.98 0 0 0 2.907 2.925l5.152 2.992-5.664 3.286zm9.458-5.463-7.062-4.098a4.19 4.19 0 0 1-1.527-1.537 4.23 4.23 0 0 1-.561-2.098v-8.2l7.062-4.098a4.164 4.164 0 0 1 4.172 0l7.062 4.099v8.196a4.202 4.202 0 0 1-2.087 3.632l-7.059 4.104zm20.18-.761a3.199 3.199 0 0 1-.423 1.584 3.17 3.17 0 0 1-1.151 1.161l-5.997 3.479a3.141 3.141 0 0 1-3.152 0l-5.65-3.286 5.153-2.992a7.982 7.982 0 0 0 2.904-2.925 8.043 8.043 0 0 0 1.067-3.993v-6.031l5.686 3.3c.479.278.876.678 1.152 1.16.276.48.421 1.027.422 1.582l-.011 6.96zM24.11 28.79a.928.928 0 0 0 .566.854.913.913 0 0 0 1-.2.926.926 0 0 0-.649-1.577.924.924 0 0 0-.646.273.935.935 0 0 0-.272.65zM42.967 18.053h-1.593v8.45h1.593v-8.45zM12.711 26.5v-4.786h-.748c-.955 0-1.486.79-1.486 1.705v3.086H6.311a3.007 3.007 0 0 1-2.26-.915 3.269 3.269 0 0 1 0-4.331l1.158.97a1.89 1.89 0 0 0-.384 1.19c-.012.433.124.857.384 1.202a1.367 1.367 0 0 0 1.102.512h2.57v-1.706a2.989 2.989 0 0 1 .873-2.214 2.951 2.951 0 0 1 2.209-.858h2.347v4.786h5.556a2.09 2.09 0 0 1-.124-.707v-1.007c.01-.43-.127-.85-.39-1.19a1.388 1.388 0 0 0-1.107-.51 1.358 1.358 0 0 0-1.102.51l-1.158-.97a3.272 3.272 0 0 1 4.52 0c.54.587.833 1.361.819 2.16v1.171a.547.547 0 0 0 .542.543h4.407a2.092 2.092 0 0 1-.124-.707v-1.007c.01-.43-.129-.851-.393-1.19a1.383 1.383 0 0 0-1.104-.51 1.358 1.358 0 0 0-1.102.51l-1.158-.97a3.27 3.27 0 0 1 4.52 0c.54.587.835 1.36.821 2.16v1.171a.547.547 0 0 0 .54.543h.387v1.373L12.71 26.5zM7.195 28.79a.926.926 0 0 0-.27-.653.915.915 0 0 0-1.297 0 .926.926 0 0 0 .649 1.577.915.915 0 0 0 .649-.27.926.926 0 0 0 .269-.653M49.286 20.077a.914.914 0 0 0 .848-.57.93.93 0 0 0-.199-1.007.915.915 0 0 0-1.567.653c0 .245.097.48.27.653.171.173.405.27.648.27zM8.91 27.867a.914.914 0 0 0-.849.57.93.93 0 0 0 .2 1.007.916.916 0 0 0 1.566-.653.935.935 0 0 0-.271-.651.924.924 0 0 0-.647-.273zM52.778 20.338a2.941 2.941 0 0 0-2.21.86 2.977 2.977 0 0 0-.872 2.215 3.255 3.255 0 0 0 .469 1.706h-2.093a1.353 1.353 0 0 1-1.1-.512 1.912 1.912 0 0 1-.383-1.202c-.011-.43.124-.85.384-1.191l-1.161-.97a3.269 3.269 0 0 0 0 4.332 3.035 3.035 0 0 0 2.26.915h4.706c.812 0 1.59-.324 2.165-.902a3.09 3.09 0 0 0 0-4.357 3.053 3.053 0 0 0-2.165-.902v.008zm0 4.78c-.955 0-1.486-.79-1.486-1.705s.53-1.705 1.486-1.705c.954 0 1.497.79 1.497 1.705s-.545 1.706-1.497 1.706zM74.24 20.338a2.941 2.941 0 0 0-2.209.86 2.977 2.977 0 0 0-.873 2.215 3.24 3.24 0 0 0 .469 1.706h-2.023a.281.281 0 0 1-.282-.185 2.992 2.992 0 0 0-.542-3.494 2.956 2.956 0 0 0-2.215-.855c-1.74 0-2.972.935-3.81 1.99v-1.487h-1.486v4.042h-1.732c-.263 0-.345-.205-.345-.463v-3.763H57.6v5.164c0 .923-.542 1.705-1.497 1.705v1.373a2.938 2.938 0 0 0 2.174-.82 2.971 2.971 0 0 0 .913-2.147.74.74 0 0 0 .633.312h7.203a2.391 2.391 0 0 0 1.658-.707 1.366 1.366 0 0 0 1.207.707h4.35c.812 0 1.59-.324 2.165-.902a3.09 3.09 0 0 0 0-4.357 3.053 3.053 0 0 0-2.165-.902v.008zm-7.695 4.78h-3.582c.706-1.722 2.04-3.16 3.593-3.16.955 0 1.5.787 1.5 1.705s-.565 1.461-1.51 1.461v-.005zm7.695.006c-.955 0-1.486-.79-1.486-1.705s.531-1.705 1.486-1.705 1.497.79 1.497 1.705-.545 1.705-1.497 1.705zM32.242 18.053h-1.594v8.45h1.594v-8.45zM38.397 24.192c0 .657-.328.935-.774.935h-1.348c-.262 0-.342-.204-.342-.463v-3.76h-1.596v5.164c0 .923-.542 1.705-1.497 1.705v1.373a2.936 2.936 0 0 0 2.174-.82 2.973 2.973 0 0 0 .914-2.147.745.745 0 0 0 .633.312h1.29c1.413 0 2.077-.886 2.077-2.222v-6.224h-1.531v6.147zM46.656 40.969v-9.393h1.596v3.547c.244-.199.518-.358.81-.472.274-.091.56-.137.848-.134a3.092 3.092 0 0 1 2.421 1.1 3.38 3.38 0 0 1-.237 4.704c-.59.56-1.373.866-2.184.853a2.447 2.447 0 0 1-.847-.142 3.308 3.308 0 0 1-.81-.464v.395l-1.597.006zm3.235-5a1.492 1.492 0 0 0-1.246.592c-.28.367-.423.82-.407 1.282a1.96 1.96 0 0 0 .517 1.42 1.538 1.538 0 0 0 1.13.453 1.557 1.557 0 0 0 1.274-.592c.278-.367.421-.82.404-1.281a1.893 1.893 0 0 0-.531-1.421 1.552 1.552 0 0 0-1.147-.464M60.54 40.969h-1.596v-.395c-.247.192-.52.348-.81.463a2.433 2.433 0 0 1-.848.142 3.073 3.073 0 0 1-2.421-1.1 3.404 3.404 0 0 1 .223-4.715 3.164 3.164 0 0 1 2.198-.852c.288-.004.574.042.847.133.293.114.566.273.81.472v-.386h1.597v6.238zm-3.232-5a1.54 1.54 0 0 0-1.274.592c-.28.367-.423.82-.407 1.282a1.935 1.935 0 0 0 .532 1.42 1.582 1.582 0 0 0 1.15.453 1.532 1.532 0 0 0 1.256-.592c.28-.366.424-.82.407-1.281a1.917 1.917 0 0 0-.517-1.421 1.558 1.558 0 0 0-1.147-.464M63.76 35.055a2.4 2.4 0 0 1 .684-.415c.242-.087.499-.129.757-.123.363 0 .722.075 1.056.22.332.138.631.347.876.613.446.489.67 1.242.67 2.274v3.353h-1.594v-3.262c0-.705-.105-1.174-.308-1.407a1.035 1.035 0 0 0-.828-.338 1.203 1.203 0 0 0-1.02.435c-.197.244-.282.724-.282 1.438v3.126h-1.596v-6.253h1.596l-.011.339zM72.7 37.348l2.842 3.621h-1.957l-1.975-2.55-.588.578v1.972h-1.596v-9.393h1.596v5.38l2.255-2.226h2.098L72.7 37.349zM11.54 40.969H9.945v-.395a3.384 3.384 0 0 1-.813.463 2.428 2.428 0 0 1-.848.142 3.092 3.092 0 0 1-2.426-1.105 3.423 3.423 0 0 1 .223-4.715 3.17 3.17 0 0 1 2.197-.853c.288-.003.575.042.848.134.293.114.568.273.813.471v-.38h1.594l.005 6.238zm-3.232-5a1.546 1.546 0 0 0-1.274.592c-.28.367-.424.82-.407 1.282a1.923 1.923 0 0 0 .534 1.42 1.577 1.577 0 0 0 1.147.453 1.537 1.537 0 0 0 1.26-.592c.278-.367.42-.82.403-1.281a1.918 1.918 0 0 0-.516-1.421 1.554 1.554 0 0 0-1.147-.464M14.774 31.576h-1.596v9.393h1.595v-9.393zM26.976 40.969H25.38v-.395c-.247.192-.52.348-.81.463a2.432 2.432 0 0 1-.848.142 3.074 3.074 0 0 1-2.42-1.1 3.404 3.404 0 0 1 .223-4.715 3.164 3.164 0 0 1 2.197-.852c.288-.004.575.042.848.133.293.114.566.273.81.472v-.386h1.596v6.238zm-3.231-5a1.54 1.54 0 0 0-1.274.592c-.28.367-.423.82-.407 1.282a1.935 1.935 0 0 0 .531 1.42 1.582 1.582 0 0 0 1.15.453 1.531 1.531 0 0 0 1.257-.592c.28-.366.423-.82.407-1.281a1.917 1.917 0 0 0-.517-1.421 1.557 1.557 0 0 0-1.147-.464M29.524 31.618a.993.993 0 0 1 .715.285.947.947 0 0 1 .282.699.965.965 0 0 1-.997.995.983.983 0 0 1-.92-.615.999.999 0 0 1-.074-.383.952.952 0 0 1 .282-.7.972.972 0 0 1 .7-.283M33.555 35.054c.203-.175.434-.315.684-.414.243-.087.5-.128.757-.123.363 0 .722.075 1.056.22.333.138.631.347.876.613.446.489.672 1.242.672 2.274v3.353h-1.596v-3.262c0-.705-.104-1.174-.308-1.407a1.037 1.037 0 0 0-.827-.338 1.205 1.205 0 0 0-1.02.434c-.198.245-.283.725-.283 1.439v3.126H31.97v-9.393h1.596l-.01 3.478zM40.02 31.618a.979.979 0 0 1 .927.604c.049.12.072.25.068.38a.953.953 0 0 1-.282.71.973.973 0 0 1-.712.285.985.985 0 0 1-.92-.615 1 1 0 0 1-.074-.383.952.952 0 0 1 .282-.7.972.972 0 0 1 .7-.283l.012.002zm.786 9.348H39.21v-6.252h1.596v6.252zM16.29 37.209v3.777h1.593v-3.842c0-.853.438-1.112 1.13-1.112h.893v-1.42l-.946-.015c-1.803 0-2.67.995-2.67 2.603M30.32 34.73h-1.593v6.418c0 .94-.55 1.742-1.52 1.742v1.396a3.036 3.036 0 0 0 2.186-.872 3.073 3.073 0 0 0 .922-2.175l.006-6.508z" fill="#221AFB"/>
</svg>
