<svg width="144" height="144" viewBox="0 0 144 144" fill="none" xmlns="http://www.w3.org/2000/svg">
<rect width="144" height="144" rx="72" fill="#EFF6FF"/>
<rect x="51.6714" y="12.6016" width="70.5746" height="121.399" rx="12" fill="#203448"/>
<rect x="49.9077" y="10" width="70.5746" height="121.399" rx="12" fill="#2A445D"/>
<rect x="54.3184" y="24.7411" width="61.7527" height="92.7832" fill="#06B3B9"/>
<rect x="74.6084" y="19.5383" width="21.1724" height="2.6014" rx="1.3007" fill="#F8F9FF"/>
<path fill-rule="evenodd" clip-rule="evenodd" d="M85.1945 16.9373C86.169 16.9373 86.9589 16.1608 86.9589 15.203C86.9589 14.2452 86.169 13.4688 85.1945 13.4688C84.2201 13.4688 83.4302 14.2452 83.4302 15.203C83.4302 16.1608 84.2201 16.9373 85.1945 16.9373Z" fill="#F8F9FF"/>
<path fill-rule="evenodd" clip-rule="evenodd" d="M85.6358 127.93C87.8283 127.93 89.6057 126.183 89.6057 124.028C89.6057 121.873 87.8283 120.126 85.6358 120.126C83.4434 120.126 81.666 121.873 81.666 124.028C81.666 126.183 83.4434 127.93 85.6358 127.93Z" fill="#F8F9FF"/>
<path d="M84.3886 66.6358C84.3886 70.1324 83.7784 73.4888 82.6568 76.6078C75.5668 88.3141 85.2708 90.0484 85.2708 90.0484C85.2708 90.0484 76.449 96.5519 67.6272 93.3699C63.516 95.4056 58.8708 96.5519 53.9533 96.5519C37.1444 96.5519 23.5181 83.158 23.5181 66.6358C23.5181 50.1136 37.1444 36.7197 53.9533 36.7197C70.7623 36.7197 84.3886 50.1136 84.3886 66.6358Z" fill="#C5C5C5"/>
<path d="M82.624 64.9014C82.624 68.398 82.0137 71.7544 80.8922 74.8735C73.8022 86.5798 83.5062 88.314 83.5062 88.314C83.5062 88.314 74.6843 94.8175 65.8625 91.6355C61.7513 93.6712 57.1062 94.8175 52.1887 94.8175C35.3798 94.8175 21.7534 81.4236 21.7534 64.9014C21.7534 48.3792 35.3798 34.9854 52.1887 34.9854C68.9976 34.9854 82.624 48.3792 82.624 64.9014Z" fill="white"/>
<rect x="34.9858" y="56.6637" width="13.2327" height="3.46853" rx="1.73426" fill="#D6D6D6"/>
<rect x="34.9858" y="63.6008" width="17.6437" height="3.46853" rx="1.73426" fill="#D6D6D6"/>
<rect x="56.1587" y="63.6008" width="7.05744" height="3.46853" rx="1.73426" fill="#D6D6D6"/>
<rect x="52.6294" y="56.6637" width="7.05745" height="3.46853" rx="1.73426" fill="#D6D6D6"/>
<rect x="34.9858" y="70.538" width="35.2873" height="3.46853" rx="1.73427" fill="#D6D6D6"/>
</svg>
