<?xml version="1.0" encoding="UTF-8" standalone="no"?>
<svg width="25px" height="23px" viewBox="0 0 25 23" version="1.1" xmlns="http://www.w3.org/2000/svg" xmlns:xlink="http://www.w3.org/1999/xlink">
    <!-- Generator: Sketch 46.2 (44496) - http://www.bohemiancoding.com/sketch -->
    <title>Icon/Payrolls</title>
    <desc>Created with Sketch.</desc>
    <defs></defs>
    <g id="Symbols" stroke="none" stroke-width="1" fill="none" fill-rule="evenodd">
        <g id="Icon/Payrolls" fill-rule="nonzero" fill="#DCDFEC">
            <g id="noun_497184-(1)" transform="translate(3.000000, 0.000000)">
                <path d="M3.19346468,2.54002284 L16.3880476,2.54002284 L16.3880476,20.5298743 L15.288499,20.5298743 L15.2892859,3.60863345 L3.19346468,3.66092878 L3.19346468,2.54002284 Z M19,0 L19,17.9898515 L17.9001892,17.9898515 L17.9012383,1.0686106 L5.80515483,1.12090594 L5.80515483,0 L19,0 Z M7.99926834,14.486574 C7.82589008,14.0715276 7.29578807,13.9508657 6.88319506,13.8322445 C6.41761807,13.6980624 5.9336803,13.5784208 5.53341525,13.3098014 C4.34075127,12.5095551 4.42416169,10.5741174 5.80567941,9.98815452 C5.94679514,9.92820622 6.09551748,9.88815563 6.2468628,9.85703354 L6.12096028,8.90908486 L7.6144788,8.90908486 L7.48647791,9.87310479 C7.73487308,9.92897151 7.97461242,10.0149399 8.18707291,10.1455507 C8.63586289,10.4215681 8.87901212,10.8628897 8.98576695,11.3350784 L7.79336526,11.5646676 C7.73618454,11.4001287 7.64516754,11.2465589 7.5032649,11.136101 C7.33749328,11.0067657 7.11742619,10.9475827 6.90050664,10.940695 C6.51230726,10.9284502 6.00554964,11.0264083 5.85735192,11.4067612 C5.77551528,11.616963 5.83059763,11.861348 5.99610696,12.0238462 C6.144567,12.1692528 6.50470065,12.3207817 7.07650785,12.4786881 C7.64857738,12.6363394 8.07166227,12.7996029 8.34576254,12.9679684 C8.61960048,13.136589 8.83415934,13.3671987 8.98917682,13.6592873 C9.44898325,14.527645 9.2606541,15.8181919 8.41658268,16.4360422 C8.15244971,16.6291523 7.83507048,16.7505795 7.50405181,16.8146094 L7.6144788,17.646488 L6.12096028,17.646488 L6.23479713,16.7896097 C5.91872938,16.7128248 5.6218093,16.5804283 5.37420103,16.3837469 C4.90049285,16.0072204 4.65498296,15.445492 4.5427199,14.8725391 L5.67925231,14.622797 C5.77735136,15.2161578 6.23060038,15.6845199 6.90208042,15.6845199 C7.28057485,15.6845199 7.56595386,15.5911536 7.75795519,15.4039108 C8.0029405,15.1648828 8.13172827,14.8036623 7.99926834,14.486574 L7.99926834,14.486574 Z M0,21.2783354 L1.76945484,23 L3.04107018,21.7630239 L4.30953794,22.9966837 L5.59190746,21.7701667 L6.85276861,22.9966837 L8.13513813,21.7701667 L9.39573698,22.9966837 L10.6888607,21.7599627 L11.9636236,22.9997449 L13.7763574,21.2364991 L13.7763574,5.0800457 L0,5.0800457 L0,21.2783354 Z" id="Shape"></path>
            </g>
        </g>
    </g>
</svg>