<svg xmlns="http://www.w3.org/2000/svg" width="24" height="24" fill="none" viewBox="0 0 24 24">
    <g clip-path="url(#clip0)">
        <path fill="#E1E5F5" d="M7 4H17V20H7z"/>
        <path fill="#1B3696" fill-rule="evenodd" d="M5.879 2.879C6.44 2.316 7.204 2 8 2h8c.796 0 1.559.316 2.121.879C18.684 3.44 19 4.204 19 5v14c0 .796-.316 1.559-.879 2.121-.562.563-1.325.879-2.121.879H8c-.796 0-1.559-.316-2.121-.879C5.316 20.56 5 19.796 5 19V5c0-.796.316-1.559.879-2.121zM8 4c-.265 0-.52.105-.707.293C7.105 4.48 7 4.735 7 5v14c0 .265.105.52.293.707.187.188.442.293.707.293h8c.265 0 .52-.105.707-.293.188-.187.293-.442.293-.707V5c0-.265-.105-.52-.293-.707C16.52 4.105 16.265 4 16 4H8zm3 14c0-.552.448-1 1-1h.01c.552 0 1 .448 1 1s-.448 1-1 1H12c-.552 0-1-.448-1-1z" clip-rule="evenodd"/>
    </g>
    <defs>
        <clipPath id="clip0">
            <path fill="#fff" d="M0 0H24V24H0z"/>
        </clipPath>
    </defs>
</svg>
