<?xml version="1.0" encoding="UTF-8"?>
<svg width="500px" height="500px" viewBox="0 0 500 500" version="1.1" xmlns="http://www.w3.org/2000/svg" xmlns:xlink="http://www.w3.org/1999/xlink">
    <!-- Generator: Sketch 52.6 (67491) - http://www.bohemiancoding.com/sketch -->
    <title>POS</title>
    <desc>Created with Sketch.</desc>
    <g id="POS" stroke="none" stroke-width="1" fill="none" fill-rule="evenodd">
        <g id="noun_Pos-payment_311044" transform="translate(55.000000, 0.000000)" fill="#000000" fill-rule="nonzero">
            <path d="M204.157121,115.691489 L204.157121,69.3705674 C204.105008,55.4311095 193.801549,43.6529975 179.986455,41.7405437 L179.986455,113.475177 L61.7202012,113.475177 L61.7202012,41.6666667 C47.9051072,43.5791205 37.6016486,55.3572325 37.5495356,69.2966903 L37.5495356,115.617612 C16.8994634,116.601468 0.646638398,133.592875 0.591331269,154.255319 L0.591331269,460.6974 C0.632005655,482.060355 17.9491976,499.959347 39.3235294,500 L202.53096,500 C223.905292,499.959347 241.222484,482.060355 241.263158,460.6974 L241.263158,154.255319 C241.164738,133.566916 224.836911,116.597615 204.157121,115.691489 Z M79.755805,448.877069 L37.9191176,448.877069 L37.9191176,407.062648 L79.755805,407.062648 L79.755805,448.877069 Z M79.755805,393.247636 L37.9191176,393.247636 L37.9191176,351.433215 L79.755805,351.433215 L79.755805,393.247636 Z M79.755805,337.618203 L37.9191176,337.618203 L37.9191176,295.508274 L79.755805,295.508274 L79.755805,337.618203 Z M141.919505,448.877069 L99.8610681,448.877069 L99.8610681,407.062648 L141.919505,407.062648 L141.919505,448.877069 Z M141.919505,393.247636 L99.8610681,393.247636 L99.8610681,351.433215 L141.919505,351.433215 L141.919505,393.247636 Z M141.919505,337.618203 L99.8610681,337.618203 L99.8610681,295.508274 L141.919505,295.508274 L141.919505,337.618203 Z M203.861455,448.877069 L161.803019,448.877069 L161.803019,407.062648 L203.639706,407.062648 L203.639706,448.877069 L203.861455,448.877069 Z M203.861455,393.247636 L161.803019,393.247636 L161.803019,351.433215 L203.639706,351.433215 L203.639706,393.247636 L203.861455,393.247636 Z M203.861455,337.618203 L161.803019,337.618203 L161.803019,295.508274 L203.639706,295.508274 L203.639706,337.618203 L203.861455,337.618203 Z M203.861455,262.928487 L37.9191176,262.928487 L37.9191176,165.706265 L203.639706,165.706265 L203.639706,262.85461 L203.861455,262.928487 Z" id="Shape"></path>
            <path d="M171.486068,0 L69.9249226,0 L69.9249226,104.83156 L171.486068,104.83156 L171.486068,0 Z M81.0863003,46.320922 L111.096362,46.320922 L111.096362,61.0963357 L81.0863003,61.0963357 L81.0863003,46.320922 Z M127.136223,87.1749409 L81.0863003,87.1749409 L81.0863003,72.3995272 L127.136223,72.3995272 L127.136223,87.1749409 Z M137.114938,34.5744681 L80.9384675,34.5744681 L80.9384675,19.7990544 L137.114938,19.7990544 L137.114938,34.5744681 Z M159.955108,87.1749409 L145.171827,87.1749409 L145.171827,72.3995272 L159.955108,72.3995272 L159.955108,87.1749409 Z M159.955108,60.8747045 L145.171827,60.8747045 L145.171827,46.0992908 L159.955108,46.0992908 L159.955108,60.8747045 Z M159.955108,34.5744681 L145.171827,34.5744681 L145.171827,19.7990544 L159.955108,19.7990544 L159.955108,34.5744681 Z" id="Shape"></path>
            <path d="M250.724458,446.808511 L366.63294,446.808511 C374.466767,446.808511 380.817337,440.45794 380.817337,432.624113 L380.817337,424.349882 L250.724458,424.349882 L250.724458,446.808511 Z M380.817337,375.536713 L380.817337,207.54905 C380.776847,199.7363 373.163645,192.704712 363.668731,192.671395 L250.724458,192.671395 L250.724458,424.497636 L380.891254,424.497636 C380.743421,398.884919 380.718782,382.564611 380.817337,375.536713 Z M301.948529,225.989953 L321.758127,225.989953 C324.411616,225.989953 326.562693,228.139886 326.562693,230.791962 L326.562693,255.023641 C326.562693,257.675717 324.411616,259.82565 321.758127,259.82565 L301.948529,259.82565 C299.295041,259.82565 297.143963,257.675717 297.143963,255.023641 L297.143963,230.791962 C297.143963,228.139886 299.295041,225.989953 301.948529,225.989953 Z" id="Shape"></path>
        </g>
    </g>
</svg>