<?xml version="1.0" encoding="UTF-8"?>
<svg width="500px" height="500px" viewBox="0 0 500 500" version="1.1" xmlns="http://www.w3.org/2000/svg" xmlns:xlink="http://www.w3.org/1999/xlink">
    <!-- Generator: Sketch 52.6 (67491) - http://www.bohemiancoding.com/sketch -->
    <title>POS</title>
    <desc>Created with Sketch.</desc>
    <g id="POS" stroke="none" stroke-width="1" fill="none" fill-rule="evenodd">
        <path d="M263.193586,115.691489 L263.193586,69.3705674 C263.142336,55.4311095 253.009561,43.6529975 239.423324,41.7405437 L239.423324,113.475177 L123.116229,113.475177 L123.116229,41.6666667 C109.529992,43.5791205 99.3972166,55.3572325 99.345967,69.2966903 L99.345967,115.617612 C79.0379771,116.601468 63.0543909,133.592875 63,154.255319 L63,460.6974 C63.0400006,482.060355 80.0703217,499.959347 101.090573,500 L261.594363,500 C282.614615,499.959347 299.644936,482.060355 299.684937,460.6974 L299.684937,154.255319 C299.588147,133.566916 283.530802,116.597615 263.193586,115.691489 Z M140.853061,448.877069 L99.7094266,448.877069 L99.7094266,407.062648 L140.853061,407.062648 L140.853061,448.877069 Z M140.853061,393.247636 L99.7094266,393.247636 L99.7094266,351.433215 L140.853061,351.433215 L140.853061,393.247636 Z M140.853061,337.618203 L99.7094266,337.618203 L99.7094266,295.508274 L140.853061,295.508274 L140.853061,337.618203 Z M201.986978,448.877069 L160.625267,448.877069 L160.625267,407.062648 L201.986978,407.062648 L201.986978,448.877069 Z M201.986978,393.247636 L160.625267,393.247636 L160.625267,351.433215 L201.986978,351.433215 L201.986978,393.247636 Z M201.986978,337.618203 L160.625267,337.618203 L160.625267,295.508274 L201.986978,295.508274 L201.986978,337.618203 Z M262.902818,448.877069 L221.541108,448.877069 L221.541108,407.062648 L262.684742,407.062648 L262.684742,448.877069 L262.902818,448.877069 Z M262.902818,393.247636 L221.541108,393.247636 L221.541108,351.433215 L262.684742,351.433215 L262.684742,393.247636 L262.902818,393.247636 Z M262.902818,337.618203 L221.541108,337.618203 L221.541108,295.508274 L262.684742,295.508274 L262.684742,337.618203 L262.902818,337.618203 Z M262.902818,262.928487 L99.7094266,262.928487 L99.7094266,165.706265 L262.684742,165.706265 L262.684742,262.85461 L262.902818,262.928487 Z M231.063751,0 L231.063751,104.83156 L131.185034,104.83156 L131.185034,0 L231.063751,0 Z M142.161516,46.320922 L142.161516,61.0963357 L171.674441,61.0963357 L171.674441,46.320922 L142.161516,46.320922 Z M187.448591,87.1749409 L187.448591,72.3995272 L142.161516,72.3995272 L142.161516,87.1749409 L187.448591,87.1749409 Z M197.262002,34.5744681 L197.262002,19.7990544 L142.016132,19.7990544 L142.016132,34.5744681 L197.262002,34.5744681 Z M219.72381,87.1749409 L219.72381,72.3995272 L205.185423,72.3995272 L205.185423,87.1749409 L219.72381,87.1749409 Z M219.72381,60.8747045 L219.72381,46.0992908 L205.185423,46.0992908 L205.185423,60.8747045 L219.72381,60.8747045 Z M219.72381,34.5744681 L219.72381,19.7990544 L205.185423,19.7990544 L205.185423,34.5744681 L219.72381,34.5744681 Z M308.989504,446.808511 L308.989504,424.349882 L436.927308,424.349882 L436.927308,432.624113 C436.927308,440.45794 430.576737,446.808511 422.742911,446.808511 L308.989504,446.808511 Z M436.927308,375.536713 C436.830385,382.564611 436.854616,398.884919 437,424.497636 L308.989504,424.497636 L308.989504,192.671395 L420.062779,192.671395 C429.400404,192.704712 436.887488,199.7363 436.927308,207.54905 L436.927308,375.536713 Z M359.365015,225.989953 C356.755483,225.989953 354.640039,228.139886 354.640039,230.791962 L354.640039,255.023641 C354.640039,257.675717 356.755483,259.82565 359.365015,259.82565 L378.846453,259.82565 C381.455985,259.82565 383.571429,257.675717 383.571429,255.023641 L383.571429,230.791962 C383.571429,228.139886 381.455985,225.989953 378.846453,225.989953 L359.365015,225.989953 Z" id="Shape" fill="#B9C0D9" fill-rule="nonzero"></path>
    </g>
</svg>