<svg xmlns="http://www.w3.org/2000/svg" width="22" height="22" fill="none" viewBox="0 0 22 22">
    <g clip-path="url(#clip0)">
        <path fill="#1B3696" d="M4.24 11.652c1.412 0 2.657-.697 3.425-1.764.74 1.065 1.969 1.764 3.362 1.764 1.39 0 2.617-.695 3.358-1.756.764 1.062 2.008 1.756 3.414 1.756 2.696 0 4.735-2.613 4.076-5.228L20.59 1.321C20.395.546 19.7.004 18.9.004H3.09c-.8 0-1.495.542-1.69 1.317L.122 6.394c-.364 1.447.115 2.707.96 3.855v10.005c0 .96.776 1.741 1.738 1.741h16.355c.962 0 1.737-.78 1.737-1.741v-6.489c0-.42-.354-.762-.775-.762-.421 0-.775.341-.775.762v6.489c0 .12-.067.238-.187.238h-4.794V14.54c0-.42-.342-.768-.764-.768h-5.24c-.42 0-.763.347-.763.768v5.952H2.821c-.12 0-.187-.118-.187-.238v-8.922c.47.21 1.039.32 1.606.32zM15.134 1.508h3.765c.1 0 .187.078.211.175l1.286 5.108c.418 1.66-.876 3.334-2.59 3.334-1.478 0-2.672-1.198-2.672-2.675V1.508zm-6.673 0h5.169V7.45c0 1.435-1.122 2.678-2.587 2.678-1.49 0-2.582-1.257-2.582-2.702V1.508zm.705 13.815h3.665v5.169H9.166v-5.169zM1.601 6.766L2.88 1.683c.025-.097.112-.175.212-.175h3.82v5.918c0 1.49-1.204 2.7-2.694 2.702-1.733-.001-3.039-1.682-2.616-3.362z"/>
    </g>
    <defs>
        <clipPath id="clip0">
            <path fill="#fff" d="M0 0H22V22H0z"/>
        </clipPath>
    </defs>
</svg>
